{
.appVersion = "3039";
DisplayStrings = (
a,
"/ha.base",
"/ma.base",
"/la.base",
"/sa.base",
"/ra.base",
"/ba.base",
"/wa.base",
"/ta.base",
"/na.base",
"/re.base",
"/za.base",
"/ya.base",
"/da.base",
"/ga.base",
"/hha.base",
"/tsa.base",
"/aPh.base",
"",
"/ma.base",
"/pa.base",
"/_number.bars/one-ethiopic",
"/two-ethiopic",
"/three-ethiopic",
"/four-ethiopic",
"/five-ethiopic",
"/six-ethiopic",
"/dotaccent/lu-ethiopic",
"/_smart.hi/li-ethiopic",
"/la.base/li-ethiopic",
"/_smart.hi/li-ethiopic",
"/_smart.haa/laa-ethiopic",
"/la.base/laa-ethiopic",
"/_smart.hee/lee-ethiopic",
"/la.base/lee-ethiopic",
"/_smart.hwa/lwa-ethiopic",
"/la.base/lwa-ethiopic",
"/ha.base/hu-ethiopic",
"/_smart.hu/lu-ethiopic",
"/la.base/lu-ethiopic",
"/ha.base/hu-ethiopic",
"/_smart.neck/hha-ethiopic",
"/hha.base/hha-ethiopic",
"/hha.base/hhaa-ethiopic",
"/hha.base/hhwa-ethiopic",
"/hha.base/hhwa-ethiopic",
"/ha-ethiopic",
"/ma.base/mu-ethiopic",
"/sa.base/szu-ethiopic",
"/sa.base/szu-ethiopic",
"/ba.base/su-ethiopic",
"/wa.base/qu-ethiopic",
"/wa.base/qu-ethiopic",
"/ha.base/he-ethiopic",
"/_smart.he/he-ethiopic",
"/_smart.he/he-ethiopic",
"/ha.base/he-ethiopic",
"/ha.base/he-ethiopic",
"/_smart.he/he-ethiopic",
"/ha.base/he-ethiopic",
"/_smart.ho.ring/ho-ethiopic",
"/_smart.ho.ring/ho-ethiopic",
"/ha.base/ho-ethiopic",
"/_smart.ho.ring/ho-ethiopic",
"/ha.base/ho-ethiopic",
"/ha.base/ho-ethiopic",
"/_smart.ho.ring/ho-ethiopic",
"/ha.base/ho-ethiopic",
"/_smart.ho.ring/ho-ethiopic",
"/ha.base/ho-ethiopic",
"/_smart.ho.ring/ho-ethiopic",
"/_smart.haa/_smart.ho/lo-ethiopic",
"/la.base/lo-ethiopic",
"/_smart.haa/laa-ethiopic",
"/ma.base/mo-ethiopic",
"/_smart.ho/mo-ethiopic",
"/la.base/lo-ethiopic",
"/sa.base/szo-ethiopic",
"/ba.base/so-ethiopic",
"/ba.base/kxe-ethiopic",
"/ba.base/kxo-ethiopic",
"/ba.base/kwaa-ethiopic",
"/hha.base/tho-ethiopic",
"/ta.base/tu-ethiopic",
"/_smart.haa.acute",
"/_smart.neck",
"/_smart.he.acute",
"/wa.base/qaa-ethiopic",
"/qe-ethiopic",
"/qhe-ethiopic",

glyphs = (
{
glyphname = .notdef;
lastChange = "2019-03-14 18:39:42 +0000";
layers = (
{
layerId = "6873DD1C-7BCD-4DE2-A211-237E2294755D";
paths = (
{
closed = 1;
nodes = (
"428 758 LINE",
"72 758 LINE",
"72 0 LINE",
"428 0 LINE"
);
},
{
closed = 1;
nodes = (
"355 73 LINE",
"145 73 LINE",
"145 685 LINE",
"355 685 LINE"
);
}
);
userData = {
assembly = "PUSHW[ ]	/* 4 values pushed */
6 5 1 4 
CALL[ ]	/* CallFunction */
PUSHW[ ]	/* 1 value pushed */
6 
SRP0[ ]	/* SetRefPoint0 */
PUSHW[ ]	/* 4 values pushed */
3 5 4 4 
CALL[ ]	/* CallFunction */
PUSHW[ ]	/* 1 value pushed */
3 
SRP0[ ]	/* SetRefPoint0 */
SVTCA[0]	/* SetFreedomAndProjectionVectorToAxis */
PUSHW[ ]	/* 1 value pushed */
0 
RCVT[ ]	/* ReadCVT */
IF[ ]	/* If */
PUSHW[ ]	/* 1 value pushed */
0 
MDAP[1]	/* MoveDirectAbsPt */
ELSE[ ]	/* Else */
PUSHW[ ]	/* 2 values pushed */
0 8 
MIAP[0]	/* MoveIndirectAbsPt */
EIF[ ]	/* EndIf */
PUSHW[ ]	/* 4 values pushed */
3 4 4 4 
CALL[ ]	/* CallFunction */
PUSHW[ ]	/* 1 value pushed */
3 
SRP0[ ]	/* SetRefPoint0 */
PUSHW[ ]	/* 1 value pushed */
0 
SRP0[ ]	/* SetRefPoint0 */
PUSHW[ ]	/* 2 values pushed */
6 4 
MIRP[11100]	/* MoveIndirectRelPt */
IUP[0]	/* InterpolateUntPts */
IUP[1]	/* InterpolateUntPts */";
};
width = 500;
}
);
note = .notdef;
},
{
glyphname = exclam;
lastChange = "2019-03-14 18:39:42 +0000";
layers = (
{
layerId = "6873DD1C-7BCD-4DE2-A211-237E2294755D";
paths = (
{
closed = 1;
nodes = (
"217.354 557.063 OFFCURVE",
"202.687 519.523 OFFCURVE",
"194 478.5 CURVE SMOOTH",
"182 421.833 OFFCURVE",
"169.333 331 OFFCURVE",
"164 191 CURVE",
"152 191 LINE",
"146.667 329.667 OFFCURVE",
"133.333 420.833 OFFCURVE",
"120 477.5 CURVE SMOOTH",
"110.388 518.351 OFFCURVE",
"96.605 556.593 OFFCURVE",
"93 562 CURVE",
"93 616.188 OFFCURVE",
"125.912 712 OFFCURVE",
"157 712 CURVE SMOOTH",
"186.099 712 OFFCURVE",
"219 615.573 OFFCURVE",
"219 562 CURVE"
);
},
{
closed = 1;
nodes = (
"216 20.333 OFFCURVE",
"191.667 0 OFFCURVE",
"157 0 CURVE SMOOTH",
"122.333 0 OFFCURVE",
"97 22.333 OFFCURVE",
"97 57 CURVE SMOOTH",
"97 91.667 OFFCURVE",
"122.333 118 OFFCURVE",
"157 118 CURVE SMOOTH",
"191.667 118 OFFCURVE",
"216 89.667 OFFCURVE",
"216 55 CURVE SMOOTH"
);
}
);
userData = {
assembly = "PUSHW[ ]	/* 4 values pushed */
0 7 10 4 
CALL[ ]	/* CallFunction */
NPUSHW[ ]	/* 13 values pushed */
6 0 22 0 38 0 54 0 70 0 86 0 6 
DELTAP1[ ]	/* DeltaExceptionP1 */
NPUSHW[ ]	/* 5 values pushed */
101 0 117 0 2 
DELTAP1[ ]	/* DeltaExceptionP1 */
PUSHW[ ]	/* 1 value pushed */
21 
MDRP[10000]	/* MoveDirectRelPt */
PUSHW[ ]	/* 1 value pushed */
21 
MDAP[1]	/* MoveDirectAbsPt */
PUSHW[ ]	/* 1 value pushed */
10 
SRP0[ ]	/* SetRefPoint0 */
PUSHW[ ]	/* 1 value pushed */
27 
MDRP[10000]	/* MoveDirectRelPt */
PUSHW[ ]	/* 1 value pushed */
27 
MDAP[1]	/* MoveDirectAbsPt */
SVTCA[0]	/* SetFreedomAndProjectionVectorToAxis */
PUSHW[ ]	/* 1 value pushed */
5 
MDAP[1]	/* MoveDirectAbsPt */
PUSHW[ ]	/* 1 value pushed */
0 
RCVT[ ]	/* ReadCVT */
IF[ ]	/* If */
PUSHW[ ]	/* 1 value pushed */
30 
MDAP[1]	/* MoveDirectAbsPt */
ELSE[ ]	/* Else */
PUSHW[ ]	/* 2 values pushed */
30 8 
MIAP[0]	/* MoveIndirectAbsPt */
EIF[ ]	/* EndIf */
PUSHW[ ]	/* 2 values pushed */
24 4 
MIRP[11100]	/* MoveIndirectRelPt */
NPUSHW[ ]	/* 13 values pushed */
7 24 23 24 39 24 55 24 71 24 87 24 6 
DELTAP1[ ]	/* DeltaExceptionP1 */
NPUSHW[ ]	/* 5 values pushed */
102 24 118 24 2 
DELTAP1[ ]	/* DeltaExceptionP1 */
IUP[0]	/* InterpolateUntPts */
IUP[1]	/* InterpolateUntPts */";
};
width = 303;
}
);
note = exclam;
unicode = 0021;
},
{
glyphname = quotedbl;
lastChange = "2019-03-14 18:39:42 +0000";
layers = (
{
layerId = "6873DD1C-7BCD-4DE2-A211-237E2294755D";
paths = (
{
closed = 1;
nodes = (
"292 664.946 OFFCURVE",
"284.343 626.829 OFFCURVE",
"278 593 CURVE SMOOTH",
"270 550.333 OFFCURVE",
"261 492 OFFCURVE",
"253 424 CURVE",
"241 424 LINE",
"233.667 492.667 OFFCURVE",
"225.5 548.5 OFFCURVE",
"216.5 591.5 CURVE SMOOTH",
"207.5 634.5 OFFCURVE",
"203 662.333 OFFCURVE",
"203 675 CURVE SMOOTH",
"203 704.333 OFFCURVE",
"227 726 OFFCURVE",
"247 726 CURVE SMOOTH",
"267 726 OFFCURVE",
"292 704 OFFCURVE",
"292 676 CURVE SMOOTH"
);
},
{
closed = 1;
nodes = (
"153 664.946 OFFCURVE",
"145.343 626.829 OFFCURVE",
"139 593 CURVE SMOOTH",
"131 550.333 OFFCURVE",
"122 492 OFFCURVE",
"114 424 CURVE",
"102 424 LINE",
"94.667 492.667 OFFCURVE",
"86.5 548.5 OFFCURVE",
"77.5 591.5 CURVE SMOOTH",
"68.5 634.5 OFFCURVE",
"64 662.333 OFFCURVE",
"64 675 CURVE SMOOTH",
"64 704.333 OFFCURVE",
"88 726 OFFCURVE",
"108 726 CURVE SMOOTH",
"128 726 OFFCURVE",
"153 704 OFFCURVE",
"153 676 CURVE SMOOTH"
);
}
);
userData = {
assembly = "SVTCA[0]	/* SetFreedomAndProjectionVectorToAxis */
PUSHW[ ]	/* 1 value pushed */
9 
MDAP[1]	/* MoveDirectAbsPt */
PUSHW[ ]	/* 1 value pushed */
24 
MDAP[1]	/* MoveDirectAbsPt */
PUSHW[ ]	/* 1 value pushed */
0 
RCVT[ ]	/* ReadCVT */
IF[ ]	/* If */
PUSHW[ ]	/* 1 value pushed */
3 
MDAP[1]	/* MoveDirectAbsPt */
ELSE[ ]	/* Else */
PUSHW[ ]	/* 2 values pushed */
3 14 
MIAP[0]	/* MoveIndirectAbsPt */
EIF[ ]	/* EndIf */
PUSHW[ ]	/* 1 value pushed */
0 
RCVT[ ]	/* ReadCVT */
IF[ ]	/* If */
PUSHW[ ]	/* 1 value pushed */
18 
MDAP[1]	/* MoveDirectAbsPt */
ELSE[ ]	/* Else */
PUSHW[ ]	/* 2 values pushed */
18 14 
MIAP[0]	/* MoveIndirectAbsPt */
EIF[ ]	/* EndIf */
IUP[0]	/* InterpolateUntPts */
IUP[1]	/* InterpolateUntPts */";
};
width = 356;
}
);
note = quotedbl;
unicode = 0022;
},
{
glyphname = numbersign;
lastChange = "2019-03-14 18:39:42 +0000";
layers = (
{
layerId = "6873DD1C-7BCD-4DE2-A211-237E2294755D";
paths = (
{
closed = 1;
nodes = (
"632 362 LINE",
"483 362 LINE",
"439 235 LINE",
"597 235 LINE",
"569 167 LINE",
"415 167 LINE",
"345 -29 LINE",
"321 -23 LINE",
"389 167 LINE",
"268 167 LINE",
"198 -29 LINE",
"174 -23 LINE",
"242 167 LINE",
"91 167 LINE",
"119 235 LINE",
"266 235 LINE",
"311 362 LINE",
"154 362 LINE",
"181 431 LINE",
"335 431 LINE",
"406 628 LINE",
"430 622 LINE",
"363 431 LINE",
"482 431 LINE",
"553 628 LINE",
"577 622 LINE",
"508 431 LINE",
"660 431 LINE"
);
},
{
closed = 1;
nodes = (
"335 362 LINE",
"288 235 LINE",
"415 235 LINE",
"460 362 LINE"
);
}
);
userData = {
assembly = "SVTCA[0]	/* SetFreedomAndProjectionVectorToAxis */
PUSHW[ ]	/* 1 value pushed */
3 
MDAP[1]	/* MoveDirectAbsPt */
PUSHW[ ]	/* 1 value pushed */
6 
MDAP[1]	/* MoveDirectAbsPt */
PUSHW[ ]	/* 1 value pushed */
17 
MDAP[1]	/* MoveDirectAbsPt */
PUSHW[ ]	/* 1 value pushed */
20 
MDAP[1]	/* MoveDirectAbsPt */
PUSHW[ ]	/* 4 values pushed */
13 3 14 4 
CALL[ ]	/* CallFunction */
PUSHW[ ]	/* 1 value pushed */
13 
SRP0[ ]	/* SetRefPoint0 */
PUSHW[ ]	/* 4 values pushed */
9 4 10 4 
CALL[ ]	/* CallFunction */
PUSHW[ ]	/* 1 value pushed */
9 
SRP0[ ]	/* SetRefPoint0 */
PUSHW[ ]	/* 1 value pushed */
0 
MDRP[10000]	/* MoveDirectRelPt */
PUSHW[ ]	/* 3 values pushed */
1 17 3 
SRP1[ ]	/* SetRefPoint1 */
SRP2[ ]	/* SetRefPoint2 */
IP[ ]	/* InterpolatePts */
PUSHW[ ]	/* 1 value pushed */
9 
SRP0[ ]	/* SetRefPoint0 */
PUSHW[ ]	/* 1 value pushed */
4 
MDRP[10000]	/* MoveDirectRelPt */
PUSHW[ ]	/* 3 values pushed */
5 17 3 
SRP1[ ]	/* SetRefPoint1 */
SRP2[ ]	/* SetRefPoint2 */
IP[ ]	/* InterpolatePts */
PUSHW[ ]	/* 1 value pushed */
14 
SRP0[ ]	/* SetRefPoint0 */
PUSHW[ ]	/* 1 value pushed */
18 
MDRP[10000]	/* MoveDirectRelPt */
PUSHW[ ]	/* 3 values pushed */
19 17 3 
SRP1[ ]	/* SetRefPoint1 */
SRP2[ ]	/* SetRefPoint2 */
IP[ ]	/* InterpolatePts */
PUSHW[ ]	/* 1 value pushed */
14 
SRP0[ ]	/* SetRefPoint0 */
PUSHW[ ]	/* 1 value pushed */
22 
MDRP[10000]	/* MoveDirectRelPt */
PUSHW[ ]	/* 1 value pushed */
13 
SRP0[ ]	/* SetRefPoint0 */
PUSHW[ ]	/* 1 value pushed */
24 
MDRP[10000]	/* MoveDirectRelPt */
PUSHW[ ]	/* 3 values pushed */
25 17 3 
SRP1[ ]	/* SetRefPoint1 */
SRP2[ ]	/* SetRefPoint2 */
IP[ ]	/* InterpolatePts */
PUSHW[ ]	/* 1 value pushed */
10 
SRP0[ ]	/* SetRefPoint0 */
PUSHW[ ]	/* 1 value pushed */
26 
MDRP[10000]	/* MoveDirectRelPt */
PUSHW[ ]	/* 1 value pushed */
10 
SRP0[ ]	/* SetRefPoint0 */
PUSHW[ ]	/* 1 value pushed */
28 
MDRP[10000]	/* MoveDirectRelPt */
PUSHW[ ]	/* 1 value pushed */
13 
SRP0[ ]	/* SetRefPoint0 */
PUSHW[ ]	/* 1 value pushed */
29 
MDRP[10000]	/* MoveDirectRelPt */
PUSHW[ ]	/* 3 values pushed */
30 17 3 
SRP1[ ]	/* SetRefPoint1 */
SRP2[ ]	/* SetRefPoint2 */
IP[ ]	/* InterpolatePts */
IUP[0]	/* InterpolateUntPts */
IUP[1]	/* InterpolateUntPts */";
};
width = 749;
}
);
note = numbersign;
unicode = 0023;
},
{
glyphname = dollar;
lastChange = "2019-03-14 18:39:42 +0000";
layers = (
{
layerId = "6873DD1C-7BCD-4DE2-A211-237E2294755D";
paths = (
{
closed = 1;
nodes = (
"438 69 OFFCURVE",
"376 10 OFFCURVE",
"284 -2 CURVE",
"285 -145 LINE",
"266 -145 LINE",
"267 -4 LINE",
"262.333 -4.667 OFFCURVE",
"257.667 -5 OFFCURVE",
"253 -5 CURVE SMOOTH",
"248.333 -5 OFFCURVE",
"243.667 -5 OFFCURVE",
"239 -5 CURVE SMOOTH",
"217 -5 LINE",
"218 -145 LINE",
"199 -145 LINE",
"200 -3 LINE",
"104 3.667 OFFCURVE",
"42 47 OFFCURVE",
"42 115 CURVE SMOOTH",
"42 143 OFFCURVE",
"65.333 167 OFFCURVE",
"92 167 CURVE SMOOTH",
"114.667 167 OFFCURVE",
"132.667 152 OFFCURVE",
"138 132 CURVE",
"134 121.333 OFFCURVE",
"132 112.667 OFFCURVE",
"132 98 CURVE SMOOTH",
"132 58 OFFCURVE",
"146.667 21.667 OFFCURVE",
"200 11 CURVE",
"200 233 LINE",
"192.667 235 OFFCURVE",
"185.167 237.5 OFFCURVE",
"177.5 240.5 CURVE SMOOTH",
"169.833 243.5 OFFCURVE",
"163.667 245.667 OFFCURVE",
"159 247 CURVE",
"99 269.667 OFFCURVE",
"53 314.667 OFFCURVE",
"53 380 CURVE SMOOTH",
"53 464.81 OFFCURVE",
"116.974 516.609 OFFCURVE",
"200 530 CURVE",
"199 648 LINE",
"218 648 LINE",
"217 532 LINE",
"221 532.667 OFFCURVE",
"225 533 OFFCURVE",
"229 533 CURVE SMOOTH",
"233.667 533 OFFCURVE",
"238 533 OFFCURVE",
"242 533 CURVE SMOOTH",
"246 533 OFFCURVE",
"250 533 OFFCURVE",
"254 533 CURVE SMOOTH",
"258.667 533 OFFCURVE",
"263 532.667 OFFCURVE",
"267 532 CURVE",
"266 648 LINE",
"285 648 LINE",
"284 530 LINE",
"364 519.333 OFFCURVE",
"425 478.333 OFFCURVE",
"425 413 CURVE SMOOTH",
"425 385 OFFCURVE",
"404 361 OFFCURVE",
"376 361 CURVE SMOOTH",
"353.333 361 OFFCURVE",
"337.333 376 OFFCURVE",
"332 396 CURVE",
"336 406.667 OFFCURVE",
"338 415.333 OFFCURVE",
"338 430 CURVE SMOOTH",
"338 468.667 OFFCURVE",
"322.667 502 OFFCURVE",
"284 514 CURVE",
"284 297 LINE",
"298.667 291.667 OFFCURVE",
"308.333 288 OFFCURVE",
"323 284 CURVE",
"395 261.333 OFFCURVE",
"438 213 OFFCURVE",
"438 145 CURVE SMOOTH"
);
},
{
closed = 1;
nodes = (
"200 514 LINE",
"154.667 500.667 OFFCURVE",
"127 467.667 OFFCURVE",
"127 417 CURVE SMOOTH",
"127 366.333 OFFCURVE",
"157.333 338.333 OFFCURVE",
"200 321 CURVE"
);
},
{
closed = 1;
nodes = (
"267 517 LINE",
"260.333 518.333 OFFCURVE",
"250.333 519 OFFCURVE",
"241 519 CURVE SMOOTH",
"233 519 OFFCURVE",
"223.667 518.333 OFFCURVE",
"217 517 CURVE",
"217 316 LINE",
"233.667 310.667 OFFCURVE",
"250.333 305.667 OFFCURVE",
"267 301 CURVE"
);
},
{
closed = 1;
nodes = (
"267 214 LINE",
"249.667 220.667 OFFCURVE",
"234.333 224 OFFCURVE",
"217 228 CURVE",
"217 9 LINE",
"220.333 8.333 OFFCURVE",
"223.667 8 OFFCURVE",
"227 8 CURVE SMOOTH",
"231 8 OFFCURVE",
"234.667 8 OFFCURVE",
"238 8 CURVE SMOOTH",
"248.667 8 OFFCURVE",
"259 8.667 OFFCURVE",
"267 10 CURVE"
);
},
{
closed = 1;
nodes = (
"359 168 OFFCURVE",
"325.333 194.333 OFFCURVE",
"284 209 CURVE",
"284 14 LINE",
"333.333 28.667 OFFCURVE",
"359 68 OFFCURVE",
"359 116 CURVE SMOOTH"
);
}
);
userData = {
assembly = "PUSHW[ ]	/* 4 values pushed */
51 6 60 4 
CALL[ ]	/* CallFunction */
PUSHW[ ]	/* 1 value pushed */
51 
SRP0[ ]	/* SetRefPoint0 */
PUSHW[ ]	/* 4 values pushed */
22 5 36 4 
CALL[ ]	/* CallFunction */
PUSHW[ ]	/* 1 value pushed */
22 
SRP0[ ]	/* SetRefPoint0 */
PUSHW[ ]	/* 4 values pushed */
0 5 106 4 
CALL[ ]	/* CallFunction */
PUSHW[ ]	/* 1 value pushed */
0 
SRP0[ ]	/* SetRefPoint0 */
PUSHW[ ]	/* 1 value pushed */
22 
SRP0[ ]	/* SetRefPoint0 */
PUSHW[ ]	/* 1 value pushed */
6 
MDRP[10000]	/* MoveDirectRelPt */
PUSHW[ ]	/* 3 values pushed */
24 36 22 
SRP1[ ]	/* SetRefPoint1 */
SRP2[ ]	/* SetRefPoint2 */
IP[ ]	/* InterpolatePts */
PUSHW[ ]	/* 1 value pushed */
24 
MDAP[1]	/* MoveDirectAbsPt */
PUSHW[ ]	/* 2 values pushed */
19 7 
MIRP[11100]	/* MoveIndirectRelPt */
PUSHW[ ]	/* 3 values pushed */
7 24 19 
SRP1[ ]	/* SetRefPoint1 */
SRP2[ ]	/* SetRefPoint2 */
IP[ ]	/* InterpolatePts */
PUSHW[ ]	/* 2 values pushed */
10 6 
MIRP[11100]	/* MoveIndirectRelPt */
NPUSHW[ ]	/* 13 values pushed */
6 51 22 51 38 51 54 51 70 51 86 51 6 
DELTAP1[ ]	/* DeltaExceptionP1 */
NPUSHW[ ]	/* 5 values pushed */
101 51 117 51 2 
DELTAP1[ ]	/* DeltaExceptionP1 */
PUSHW[ ]	/* 1 value pushed */
51 
SRP0[ ]	/* SetRefPoint0 */
PUSHW[ ]	/* 2 values pushed */
41 5 
MIRP[11100]	/* MoveIndirectRelPt */
PUSHW[ ]	/* 2 values pushed */
86 7 
MIRP[11100]	/* MoveIndirectRelPt */
PUSHW[ ]	/* 1 value pushed */
33 
MDRP[10000]	/* MoveDirectRelPt */
PUSHW[ ]	/* 1 value pushed */
36 
SRP0[ ]	/* SetRefPoint0 */
PUSHW[ ]	/* 1 value pushed */
47 
MDRP[10000]	/* MoveDirectRelPt */
PUSHW[ ]	/* 1 value pushed */
36 
SRP0[ ]	/* SetRefPoint0 */
PUSHW[ ]	/* 1 value pushed */
63 
MDRP[10000]	/* MoveDirectRelPt */
PUSHW[ ]	/* 1 value pushed */
86 
SRP0[ ]	/* SetRefPoint0 */
PUSHW[ ]	/* 1 value pushed */
65 
MDRP[10000]	/* MoveDirectRelPt */
PUSHW[ ]	/* 1 value pushed */
65 
MDAP[1]	/* MoveDirectAbsPt */
PUSHW[ ]	/* 1 value pushed */
24 
SRP0[ ]	/* SetRefPoint0 */
PUSHW[ ]	/* 1 value pushed */
71 
MDRP[10000]	/* MoveDirectRelPt */
PUSHW[ ]	/* 1 value pushed */
71 
MDAP[1]	/* MoveDirectAbsPt */
PUSHW[ ]	/* 1 value pushed */
22 
SRP0[ ]	/* SetRefPoint0 */
PUSHW[ ]	/* 1 value pushed */
73 
MDRP[10000]	/* MoveDirectRelPt */
PUSHW[ ]	/* 1 value pushed */
73 
MDAP[1]	/* MoveDirectAbsPt */
PUSHW[ ]	/* 1 value pushed */
36 
SRP0[ ]	/* SetRefPoint0 */
PUSHW[ ]	/* 1 value pushed */
77 
MDRP[10000]	/* MoveDirectRelPt */
PUSHW[ ]	/* 1 value pushed */
51 
SRP0[ ]	/* SetRefPoint0 */
PUSHW[ ]	/* 1 value pushed */
80 
MDRP[10000]	/* MoveDirectRelPt */
PUSHW[ ]	/* 1 value pushed */
80 
MDAP[1]	/* MoveDirectAbsPt */
PUSHW[ ]	/* 3 values pushed */
83 41 86 
SRP1[ ]	/* SetRefPoint1 */
SRP2[ ]	/* SetRefPoint2 */
IP[ ]	/* InterpolatePts */
PUSHW[ ]	/* 1 value pushed */
24 
SRP0[ ]	/* SetRefPoint0 */
PUSHW[ ]	/* 1 value pushed */
84 
MDRP[10000]	/* MoveDirectRelPt */
PUSHW[ ]	/* 1 value pushed */
84 
MDAP[1]	/* MoveDirectAbsPt */
PUSHW[ ]	/* 1 value pushed */
24 
SRP0[ ]	/* SetRefPoint0 */
PUSHW[ ]	/* 1 value pushed */
94 
MDRP[10000]	/* MoveDirectRelPt */
PUSHW[ ]	/* 1 value pushed */
94 
MDAP[1]	/* MoveDirectAbsPt */
PUSHW[ ]	/* 1 value pushed */
86 
SRP0[ ]	/* SetRefPoint0 */
PUSHW[ ]	/* 1 value pushed */
101 
MDRP[10000]	/* MoveDirectRelPt */
NPUSHW[ ]	/* 5 values pushed */
106 106 122 106 2 
DELTAP1[ ]	/* DeltaExceptionP1 */
NPUSHW[ ]	/* 13 values pushed */
9 106 25 106 41 106 57 106 73 106 89 106 6 
DELTAP1[ ]	/* DeltaExceptionP1 */
PUSHW[ ]	/* 1 value pushed */
22 
SRP0[ ]	/* SetRefPoint0 */
PUSHW[ ]	/* 1 value pushed */
109 
MDRP[10000]	/* MoveDirectRelPt */
PUSHW[ ]	/* 3 values pushed */
110 24 19 
SRP1[ ]	/* SetRefPoint1 */
SRP2[ ]	/* SetRefPoint2 */
IP[ ]	/* InterpolatePts */
SVTCA[0]	/* SetFreedomAndProjectionVectorToAxis */
PUSHW[ ]	/* 1 value pushed */
23 
MDAP[1]	/* MoveDirectAbsPt */
PUSHW[ ]	/* 1 value pushed */
34 
MDAP[1]	/* MoveDirectAbsPt */
PUSHW[ ]	/* 1 value pushed */
64 
MDAP[1]	/* MoveDirectAbsPt */
PUSHW[ ]	/* 1 value pushed */
72 
MDAP[1]	/* MoveDirectAbsPt */
PUSHW[ ]	/* 3 values pushed */
7 64 23 
SRP1[ ]	/* SetRefPoint1 */
SRP2[ ]	/* SetRefPoint2 */
IP[ ]	/* InterpolatePts */
PUSHW[ ]	/* 3 values pushed */
77 64 23 
SRP1[ ]	/* SetRefPoint1 */
SRP2[ ]	/* SetRefPoint2 */
IP[ ]	/* InterpolatePts */
PUSHW[ ]	/* 3 values pushed */
83 64 23 
SRP1[ ]	/* SetRefPoint1 */
SRP2[ ]	/* SetRefPoint2 */
IP[ ]	/* InterpolatePts */
PUSHW[ ]	/* 3 values pushed */
84 64 23 
SRP1[ ]	/* SetRefPoint1 */
SRP2[ ]	/* SetRefPoint2 */
IP[ ]	/* InterpolatePts */
PUSHW[ ]	/* 3 values pushed */
109 64 23 
SRP1[ ]	/* SetRefPoint1 */
SRP2[ ]	/* SetRefPoint2 */
IP[ ]	/* InterpolatePts */
PUSHW[ ]	/* 3 values pushed */
110 64 23 
SRP1[ ]	/* SetRefPoint1 */
SRP2[ ]	/* SetRefPoint2 */
IP[ ]	/* InterpolatePts */
IUP[0]	/* InterpolateUntPts */
IUP[1]	/* InterpolateUntPts */";
};
width = 482;
}
);
note = dollar;
unicode = 0024;
},
{
glyphname = percent;
lastChange = "2019-03-14 18:39:42 +0000";
layers = (
{
layerId = "6873DD1C-7BCD-4DE2-A211-237E2294755D";
paths = (
{
closed = 1;
nodes = (
"308 448.545 OFFCURVE",
"249.931 390 OFFCURVE",
"181 390 CURVE SMOOTH",
"115.899 390 OFFCURVE",
"50 439.316 OFFCURVE",
"50 528 CURVE SMOOTH",
"50 598.949 OFFCURVE",
"107.981 658 OFFCURVE",
"182 658 CURVE SMOOTH",
"249.099 658 OFFCURVE",
"308 605.607 OFFCURVE",
"308 526 CURVE SMOOTH"
);
},
{
closed = 1;
nodes = (
"125 7 LINE",
"101 22 LINE",
"526 640 LINE",
"550 624 LINE"
);
},
{
closed = 1;
nodes = (
"607 52.496 OFFCURVE",
"549.363 -2 OFFCURVE",
"480 -2 CURVE SMOOTH",
"414.239 -2 OFFCURVE",
"349 43.073 OFFCURVE",
"349 134 CURVE SMOOTH",
"349 204.949 OFFCURVE",
"406.981 264 OFFCURVE",
"481 264 CURVE SMOOTH",
"548.099 264 OFFCURVE",
"607 211.607 OFFCURVE",
"607 132 CURVE SMOOTH"
);
},
{
closed = 1;
nodes = (
"274 579.509 OFFCURVE",
"236.652 631 OFFCURVE",
"180 631 CURVE SMOOTH",
"124.46 631 OFFCURVE",
"85 579.509 OFFCURVE",
"85 523 CURVE SMOOTH",
"85 467.564 OFFCURVE",
"125.061 417 OFFCURVE",
"181 417 CURVE SMOOTH",
"237.304 417 OFFCURVE",
"274 467.15 OFFCURVE",
"274 523 CURVE SMOOTH"
);
},
{
closed = 1;
nodes = (
"573 185.509 OFFCURVE",
"535.652 237 OFFCURVE",
"479 237 CURVE SMOOTH",
"423.46 237 OFFCURVE",
"384 185.509 OFFCURVE",
"384 129 CURVE SMOOTH",
"384 73.564 OFFCURVE",
"424.061 23 OFFCURVE",
"480 23 CURVE SMOOTH",
"536.304 23 OFFCURVE",
"573 73.15 OFFCURVE",
"573 129 CURVE SMOOTH"
);
}
);
userData = {
assembly = "PUSHW[ ]	/* 3 values pushed */
54 10 3 
CALL[ ]	/* CallFunction */
PUSHW[ ]	/* 1 value pushed */
54 
SRP0[ ]	/* SetRefPoint0 */
PUSHW[ ]	/* 3 values pushed */
0 44 3 
CALL[ ]	/* CallFunction */
PUSHW[ ]	/* 1 value pushed */
0 
SRP0[ ]	/* SetRefPoint0 */
PUSHW[ ]	/* 3 values pushed */
74 34 3 
CALL[ ]	/* CallFunction */
PUSHW[ ]	/* 1 value pushed */
74 
SRP0[ ]	/* SetRefPoint0 */
PUSHW[ ]	/* 3 values pushed */
24 64 3 
CALL[ ]	/* CallFunction */
PUSHW[ ]	/* 1 value pushed */
24 
SRP0[ ]	/* SetRefPoint0 */
NPUSHW[ ]	/* 27 values pushed */
6 0 22 0 38 0 54 0 70 0 86 0 102 0 118 0 134 0 150 0 166 0 182 0 198 0 13 
DELTAP1[ ]	/* DeltaExceptionP1 */
NPUSHW[ ]	/* 5 values pushed */
213 0 229 0 2 
DELTAP1[ ]	/* DeltaExceptionP1 */
NPUSHW[ ]	/* 5 values pushed */
218 34 234 34 2 
DELTAP1[ ]	/* DeltaExceptionP1 */
NPUSHW[ ]	/* 27 values pushed */
9 34 25 34 41 34 57 34 73 34 89 34 105 34 121 34 137 34 153 34 169 34 185 34 201 34 13 
DELTAP1[ ]	/* DeltaExceptionP1 */
NPUSHW[ ]	/* 27 values pushed */
6 54 22 54 38 54 54 54 70 54 86 54 102 54 118 54 134 54 150 54 166 54 182 54 198 54 13 
DELTAP1[ ]	/* DeltaExceptionP1 */
NPUSHW[ ]	/* 5 values pushed */
213 54 229 54 2 
DELTAP1[ ]	/* DeltaExceptionP1 */
NPUSHW[ ]	/* 5 values pushed */
218 64 234 64 2 
DELTAP1[ ]	/* DeltaExceptionP1 */
NPUSHW[ ]	/* 27 values pushed */
9 64 25 64 41 64 57 64 73 64 89 64 105 64 121 64 137 64 153 64 169 64 185 64 201 64 13 
DELTAP1[ ]	/* DeltaExceptionP1 */
PUSHW[ ]	/* 1 value pushed */
85 
MDRP[11100]	/* MoveDirectRelPt */
SVTCA[0]	/* SetFreedomAndProjectionVectorToAxis */
PUSHW[ ]	/* 1 value pushed */
0 
RCVT[ ]	/* ReadCVT */
IF[ ]	/* If */
PUSHW[ ]	/* 1 value pushed */
39 
MDAP[1]	/* MoveDirectAbsPt */
ELSE[ ]	/* Else */
PUSHW[ ]	/* 2 values pushed */
39 8 
MIAP[0]	/* MoveIndirectAbsPt */
EIF[ ]	/* EndIf */
PUSHW[ ]	/* 4 values pushed */
5 2 59 4 
CALL[ ]	/* CallFunction */
PUSHW[ ]	/* 1 value pushed */
5 
SRP0[ ]	/* SetRefPoint0 */
PUSHW[ ]	/* 4 values pushed */
29 2 79 4 
CALL[ ]	/* CallFunction */
PUSHW[ ]	/* 1 value pushed */
29 
SRP0[ ]	/* SetRefPoint0 */
PUSHW[ ]	/* 4 values pushed */
49 2 15 4 
CALL[ ]	/* CallFunction */
PUSHW[ ]	/* 1 value pushed */
49 
SRP0[ ]	/* SetRefPoint0 */
PUSHW[ ]	/* 1 value pushed */
39 
SRP0[ ]	/* SetRefPoint0 */
PUSHW[ ]	/* 2 values pushed */
69 2 
MIRP[11100]	/* MoveIndirectRelPt */
NPUSHW[ ]	/* 33 values pushed */
7 69 23 69 39 69 55 69 71 69 87 69 103 69 119 69 135 69 151 69 167 69 183 69 199 69 215 69 231 69 247 69 16 
DELTAP1[ ]	/* DeltaExceptionP1 */
NPUSHW[ ]	/* 33 values pushed */
7 69 23 69 39 69 55 69 71 69 87 69 103 69 119 69 135 69 151 69 167 69 183 69 199 69 215 69 231 69 247 69 16 
DELTAP2[ ]	/* DeltaExceptionP2 */
NPUSHW[ ]	/* 33 values pushed */
7 69 23 69 39 69 55 69 71 69 87 69 103 69 119 69 135 69 151 69 167 69 183 69 199 69 215 69 231 69 247 69 16 
DELTAP3[ ]	/* DeltaExceptionP3 */
IUP[0]	/* InterpolateUntPts */
IUP[1]	/* InterpolateUntPts */";
};
width = 647;
}
);
note = percent;
unicode = 0025;
},
{
glyphname = ampersand;
lastChange = "2019-03-14 18:39:42 +0000";
layers = (
{
layerId = "6873DD1C-7BCD-4DE2-A211-237E2294755D";
paths = (
{
closed = 1;
nodes = (
"805.667 474.667 OFFCURVE",
"751.5 436.833 OFFCURVE",
"701.5 385.5 CURVE SMOOTH",
"659.888 342.778 OFFCURVE",
"594.569 256.955 OFFCURVE",
"552 208 CURVE",
"561.333 196 OFFCURVE",
"572 182.167 OFFCURVE",
"584 166.5 CURVE SMOOTH",
"596 150.833 OFFCURVE",
"611 133.667 OFFCURVE",
"629 115 CURVE SMOOTH",
"663.667 79 OFFCURVE",
"695 54 OFFCURVE",
"747 54 CURVE SMOOTH",
"795.082 54 OFFCURVE",
"842.664 99.139 OFFCURVE",
"863 134 CURVE",
"872 130 LINE",
"849.55 65.858 OFFCURVE",
"764.827 -13 OFFCURVE",
"676 -13 CURVE SMOOTH",
"590.75 -13 OFFCURVE",
"525.943 53.443 OFFCURVE",
"479 128 CURVE",
"436.493 65.874 OFFCURVE",
"347.086 -8 OFFCURVE",
"244 -8 CURVE SMOOTH",
"124.776 -8 OFFCURVE",
"47 65.804 OFFCURVE",
"47 170 CURVE SMOOTH",
"47 280.881 OFFCURVE",
"146.499 353.75 OFFCURVE",
"243 402 CURVE",
"183.288 464.426 OFFCURVE",
"138 497.229 OFFCURVE",
"138 583 CURVE SMOOTH",
"138 668.967 OFFCURVE",
"226.129 732 OFFCURVE",
"310 732 CURVE SMOOTH",
"384.863 732 OFFCURVE",
"456 686.634 OFFCURVE",
"456 605 CURVE SMOOTH",
"456 526.59 OFFCURVE",
"382.261 473.557 OFFCURVE",
"343 450 CURVE",
"384.333 418 OFFCURVE",
"417.667 382.333 OFFCURVE",
"451 345 CURVE SMOOTH",
"488.333 302.333 OFFCURVE",
"520.333 256.333 OFFCURVE",
"543 219 CURVE",
"593.386 282.531 OFFCURVE",
"656 375.481 OFFCURVE",
"656 414 CURVE SMOOTH",
"656 471.758 OFFCURVE",
"590.248 473.207 OFFCURVE",
"526 476 CURVE",
"526 488 LINE",
"875 496 LINE",
"875 484 LINE"
);
},
{
closed = 1;
nodes = (
"383 645.724 OFFCURVE",
"346.87 710 OFFCURVE",
"292 710 CURVE SMOOTH",
"247.627 710 OFFCURVE",
"224 666.421 OFFCURVE",
"224 630 CURVE SMOOTH",
"224 587.333 OFFCURVE",
"231 569 OFFCURVE",
"251 541 CURVE SMOOTH",
"273.667 509 OFFCURVE",
"298 490 OFFCURVE",
"334 458 CURVE",
"368.667 494 OFFCURVE",
"383 529 OFFCURVE",
"383 585 CURVE SMOOTH"
);
},
{
closed = 1;
nodes = (
"443.511 189.403 OFFCURVE",
"405.082 235.567 OFFCURVE",
"363 287 CURVE SMOOTH",
"339.501 315.198 OFFCURVE",
"286.57 363.687 OFFCURVE",
"254 393 CURVE",
"204.663 352.37 OFFCURVE",
"152 287.07 OFFCURVE",
"152 210 CURVE SMOOTH",
"152 128.046 OFFCURVE",
"209.781 62 OFFCURVE",
"293 62 CURVE SMOOTH",
"373.261 62 OFFCURVE",
"415.735 88.093 OFFCURVE",
"472 139 CURVE"
);
}
);
userData = {
assembly = "PUSHW[ ]	/* 4 values pushed */
110 7 44 4 
CALL[ ]	/* CallFunction */
PUSHW[ ]	/* 1 value pushed */
110 
SRP0[ ]	/* SetRefPoint0 */
PUSHW[ ]	/* 4 values pushed */
24 5 81 4 
CALL[ ]	/* CallFunction */
PUSHW[ ]	/* 1 value pushed */
24 
SRP0[ ]	/* SetRefPoint0 */
NPUSHW[ ]	/* 13 values pushed */
6 24 22 24 38 24 54 24 70 24 86 24 6 
DELTAP1[ ]	/* DeltaExceptionP1 */
NPUSHW[ ]	/* 5 values pushed */
101 24 117 24 2 
DELTAP1[ ]	/* DeltaExceptionP1 */
PUSHW[ ]	/* 3 values pushed */
19 44 24 
SRP1[ ]	/* SetRefPoint1 */
SRP2[ ]	/* SetRefPoint2 */
IP[ ]	/* InterpolatePts */
NPUSHW[ ]	/* 13 values pushed */
6 110 22 110 38 110 54 110 70 110 86 110 6 
DELTAP1[ ]	/* DeltaExceptionP1 */
NPUSHW[ ]	/* 5 values pushed */
101 110 117 110 2 
DELTAP1[ ]	/* DeltaExceptionP1 */
PUSHW[ ]	/* 3 values pushed */
34 44 110 
SRP1[ ]	/* SetRefPoint1 */
SRP2[ ]	/* SetRefPoint2 */
IP[ ]	/* InterpolatePts */
PUSHW[ ]	/* 1 value pushed */
34 
MDAP[1]	/* MoveDirectAbsPt */
PUSHW[ ]	/* 3 values pushed */
39 44 24 
SRP1[ ]	/* SetRefPoint1 */
SRP2[ ]	/* SetRefPoint2 */
IP[ ]	/* InterpolatePts */
PUSHW[ ]	/* 2 values pushed */
90 5 
MIRP[11100]	/* MoveIndirectRelPt */
SVTCA[0]	/* SetFreedomAndProjectionVectorToAxis */
PUSHW[ ]	/* 1 value pushed */
49 
MDAP[1]	/* MoveDirectAbsPt */
PUSHW[ ]	/* 1 value pushed */
59 
MDAP[1]	/* MoveDirectAbsPt */
PUSHW[ ]	/* 1 value pushed */
0 
RCVT[ ]	/* ReadCVT */
IF[ ]	/* If */
PUSHW[ ]	/* 1 value pushed */
29 
MDAP[1]	/* MoveDirectAbsPt */
ELSE[ ]	/* Else */
PUSHW[ ]	/* 2 values pushed */
29 14 
MIAP[0]	/* MoveIndirectAbsPt */
EIF[ ]	/* EndIf */
PUSHW[ ]	/* 3 values pushed */
13 59 29 
SRP1[ ]	/* SetRefPoint1 */
SRP2[ ]	/* SetRefPoint2 */
IP[ ]	/* InterpolatePts */
PUSHW[ ]	/* 3 values pushed */
19 59 29 
SRP1[ ]	/* SetRefPoint1 */
SRP2[ ]	/* SetRefPoint2 */
IP[ ]	/* InterpolatePts */
PUSHW[ ]	/* 3 values pushed */
39 59 29 
SRP1[ ]	/* SetRefPoint1 */
SRP2[ ]	/* SetRefPoint2 */
IP[ ]	/* InterpolatePts */
PUSHW[ ]	/* 3 values pushed */
54 59 29 
SRP1[ ]	/* SetRefPoint1 */
SRP2[ ]	/* SetRefPoint2 */
IP[ ]	/* InterpolatePts */
PUSHW[ ]	/* 1 value pushed */
49 
SRP0[ ]	/* SetRefPoint0 */
PUSHW[ ]	/* 2 values pushed */
70 3 
MIRP[11100]	/* MoveIndirectRelPt */
NPUSHW[ ]	/* 33 values pushed */
7 70 23 70 39 70 55 70 71 70 87 70 103 70 119 70 135 70 151 70 167 70 183 70 199 70 215 70 231 70 247 70 16 
DELTAP1[ ]	/* DeltaExceptionP1 */
NPUSHW[ ]	/* 13 values pushed */
7 70 23 70 39 70 55 70 71 70 87 70 6 
DELTAP2[ ]	/* DeltaExceptionP2 */
NPUSHW[ ]	/* 5 values pushed */
102 70 118 70 2 
DELTAP2[ ]	/* DeltaExceptionP2 */
PUSHW[ ]	/* 1 value pushed */
29 
SRP0[ ]	/* SetRefPoint0 */
PUSHW[ ]	/* 2 values pushed */
95 1 
MIRP[11100]	/* MoveIndirectRelPt */
NPUSHW[ ]	/* 33 values pushed */
8 95 24 95 40 95 56 95 72 95 88 95 104 95 120 95 136 95 152 95 168 95 184 95 200 95 216 95 232 95 248 95 16 
DELTAP1[ ]	/* DeltaExceptionP1 */
NPUSHW[ ]	/* 33 values pushed */
8 95 24 95 40 95 56 95 72 95 88 95 104 95 120 95 136 95 152 95 168 95 184 95 200 95 216 95 232 95 248 95 16 
DELTAP2[ ]	/* DeltaExceptionP2 */
NPUSHW[ ]	/* 33 values pushed */
8 95 24 95 40 95 56 95 72 95 88 95 104 95 120 95 136 95 152 95 168 95 184 95 200 95 216 95 232 95 248 95 16 
DELTAP3[ ]	/* DeltaExceptionP3 */
PUSHW[ ]	/* 1 value pushed */
49 
SRP0[ ]	/* SetRefPoint0 */
PUSHW[ ]	/* 2 values pushed */
105 4 
MIRP[11100]	/* MoveIndirectRelPt */
NPUSHW[ ]	/* 13 values pushed */
7 105 23 105 39 105 55 105 71 105 87 105 6 
DELTAP1[ ]	/* DeltaExceptionP1 */
NPUSHW[ ]	/* 5 values pushed */
102 105 118 105 2 
DELTAP1[ ]	/* DeltaExceptionP1 */
IUP[0]	/* InterpolateUntPts */
IUP[1]	/* InterpolateUntPts */";
};
width = 854;
}
);
note = ampersand;
unicode = 0026;
},
{
glyphname = quotesingle;
lastChange = "2019-03-14 18:39:42 +0000";
layers = (
{
layerId = "6873DD1C-7BCD-4DE2-A211-237E2294755D";
paths = (
{
closed = 1;
nodes = (
"155 664.946 OFFCURVE",
"147.343 626.829 OFFCURVE",
"141 593 CURVE SMOOTH",
"133 550.333 OFFCURVE",
"124 492 OFFCURVE",
"116 424 CURVE",
"104 424 LINE",
"96.667 492.667 OFFCURVE",
"88.5 548.5 OFFCURVE",
"79.5 591.5 CURVE SMOOTH",
"70.5 634.5 OFFCURVE",
"66 662.333 OFFCURVE",
"66 675 CURVE SMOOTH",
"66 704.333 OFFCURVE",
"90 726 OFFCURVE",
"110 726 CURVE SMOOTH",
"130 726 OFFCURVE",
"155 704 OFFCURVE",
"155 676 CURVE SMOOTH"
);
}
);
userData = {
assembly = "SVTCA[0]	/* SetFreedomAndProjectionVectorToAxis */
PUSHW[ ]	/* 1 value pushed */
9 
MDAP[1]	/* MoveDirectAbsPt */
PUSHW[ ]	/* 1 value pushed */
0 
RCVT[ ]	/* ReadCVT */
IF[ ]	/* If */
PUSHW[ ]	/* 1 value pushed */
3 
MDAP[1]	/* MoveDirectAbsPt */
ELSE[ ]	/* Else */
PUSHW[ ]	/* 2 values pushed */
3 14 
MIAP[0]	/* MoveIndirectAbsPt */
EIF[ ]	/* EndIf */
IUP[0]	/* InterpolateUntPts */
IUP[1]	/* InterpolateUntPts */";
};
width = 222;
}
);
note = quotesingle;
unicode = 0027;
},
{
glyphname = parenleft;
lastChange = "2019-03-14 18:39:42 +0000";
layers = (
{
layerId = "6873DD1C-7BCD-4DE2-A211-237E2294755D";
paths = (
{
closed = 1;
nodes = (
"280 -141 LINE",
"222.667 -98.333 OFFCURVE",
"160.5 -46.167 OFFCURVE",
"114.5 22.5 CURVE SMOOTH",
"68.5 91.167 OFFCURVE",
"36 179 OFFCURVE",
"36 295 CURVE SMOOTH",
"36 407 OFFCURVE",
"66.667 492.5 OFFCURVE",
"112 562.5 CURVE SMOOTH",
"157.333 632.5 OFFCURVE",
"217.667 685.667 OFFCURVE",
"279 731 CURVE",
"293 718 LINE",
"237 676.667 OFFCURVE",
"181.167 623.167 OFFCURVE",
"140.5 554.5 CURVE SMOOTH",
"99.833 485.833 OFFCURVE",
"73 401.667 OFFCURVE",
"73 295 CURVE SMOOTH",
"73 187 OFFCURVE",
"101.5 98.167 OFFCURVE",
"143.5 29.5 CURVE SMOOTH",
"185.5 -39.167 OFFCURVE",
"239.667 -90.667 OFFCURVE",
"293 -128 CURVE"
);
}
);
userData = {
assembly = "PUSHW[ ]	/* 3 values pushed */
5 16 3 
CALL[ ]	/* CallFunction */
PUSHW[ ]	/* 1 value pushed */
5 
SRP0[ ]	/* SetRefPoint0 */
NPUSHW[ ]	/* 27 values pushed */
6 5 22 5 38 5 54 5 70 5 86 5 102 5 118 5 134 5 150 5 166 5 182 5 198 5 13 
DELTAP1[ ]	/* DeltaExceptionP1 */
NPUSHW[ ]	/* 5 values pushed */
213 5 229 5 2 
DELTAP1[ ]	/* DeltaExceptionP1 */
SVTCA[0]	/* SetFreedomAndProjectionVectorToAxis */
PUSHW[ ]	/* 1 value pushed */
21 
MDAP[1]	/* MoveDirectAbsPt */
PUSHW[ ]	/* 1 value pushed */
0 
RCVT[ ]	/* ReadCVT */
IF[ ]	/* If */
PUSHW[ ]	/* 1 value pushed */
11 
MDAP[1]	/* MoveDirectAbsPt */
ELSE[ ]	/* Else */
PUSHW[ ]	/* 2 values pushed */
11 14 
MIAP[0]	/* MoveIndirectAbsPt */
EIF[ ]	/* EndIf */
IUP[0]	/* InterpolateUntPts */
IUP[1]	/* InterpolateUntPts */";
};
width = 313;
}
);
note = parenleft;
unicode = 0028;
},
{
glyphname = parenright;
lastChange = "2019-03-14 18:39:42 +0000";
layers = (
{
layerId = "6873DD1C-7BCD-4DE2-A211-237E2294755D";
paths = (
{
closed = 1;
nodes = (
"277 179 OFFCURVE",
"244.5 91.167 OFFCURVE",
"198.5 22.5 CURVE SMOOTH",
"152.5 -46.167 OFFCURVE",
"91.667 -98.333 OFFCURVE",
"33 -141 CURVE",
"20 -128 LINE",
"73.333 -90.667 OFFCURVE",
"127.5 -39.167 OFFCURVE",
"169.5 29.5 CURVE SMOOTH",
"211.5 98.167 OFFCURVE",
"240 187 OFFCURVE",
"240 295 CURVE SMOOTH",
"240 401.667 OFFCURVE",
"213.167 485.833 OFFCURVE",
"172.5 554.5 CURVE SMOOTH",
"131.833 623.167 OFFCURVE",
"76 676.667 OFFCURVE",
"20 718 CURVE",
"34 731 LINE",
"95.333 685.667 OFFCURVE",
"155.667 632.5 OFFCURVE",
"201 562.5 CURVE SMOOTH",
"246.333 492.5 OFFCURVE",
"277 407 OFFCURVE",
"277 295 CURVE SMOOTH"
);
}
);
userData = {
assembly = "PUSHW[ ]	/* 3 values pushed */
0 11 3 
CALL[ ]	/* CallFunction */
NPUSHW[ ]	/* 5 values pushed */
218 11 234 11 2 
DELTAP1[ ]	/* DeltaExceptionP1 */
NPUSHW[ ]	/* 27 values pushed */
9 11 25 11 41 11 57 11 73 11 89 11 105 11 121 11 137 11 153 11 169 11 185 11 201 11 13 
DELTAP1[ ]	/* DeltaExceptionP1 */
SVTCA[0]	/* SetFreedomAndProjectionVectorToAxis */
PUSHW[ ]	/* 1 value pushed */
17 
MDAP[1]	/* MoveDirectAbsPt */
PUSHW[ ]	/* 1 value pushed */
0 
RCVT[ ]	/* ReadCVT */
IF[ ]	/* If */
PUSHW[ ]	/* 1 value pushed */
5 
MDAP[1]	/* MoveDirectAbsPt */
ELSE[ ]	/* Else */
PUSHW[ ]	/* 2 values pushed */
5 14 
MIAP[0]	/* MoveIndirectAbsPt */
EIF[ ]	/* EndIf */
IUP[0]	/* InterpolateUntPts */
IUP[1]	/* InterpolateUntPts */";
};
width = 313;
}
);
note = parenright;
unicode = 0029;
},
{
glyphname = asterisk;
lastChange = "2019-03-14 18:39:42 +0000";
layers = (
{
layerId = "6873DD1C-7BCD-4DE2-A211-237E2294755D";
paths = (
{
closed = 1;
nodes = (
"344 464 LINE",
"316 465.333 OFFCURVE",
"297.667 470.333 OFFCURVE",
"275 485 CURVE",
"262.333 492.333 OFFCURVE",
"250.833 500.833 OFFCURVE",
"240.5 510.5 CURVE SMOOTH",
"230.167 520.167 OFFCURVE",
"219 530.333 OFFCURVE",
"207 541 CURVE",
"197 536 LINE",
"200.333 520 OFFCURVE",
"204.167 505.5 OFFCURVE",
"208.5 492.5 CURVE SMOOTH",
"212.833 479.5 OFFCURVE",
"215 465.667 OFFCURVE",
"215 451 CURVE SMOOTH",
"215 423 OFFCURVE",
"209 403.333 OFFCURVE",
"197 378 CURVE",
"189 378 LINE",
"177 403.333 OFFCURVE",
"172 423 OFFCURVE",
"172 451 CURVE SMOOTH",
"172 467.667 OFFCURVE",
"174 481.833 OFFCURVE",
"178 493.5 CURVE SMOOTH",
"182 505.167 OFFCURVE",
"185.667 519.333 OFFCURVE",
"189 536 CURVE",
"180 540 LINE",
"166.667 530 OFFCURVE",
"155.333 520.167 OFFCURVE",
"146 510.5 CURVE SMOOTH",
"136.667 500.833 OFFCURVE",
"125.667 492.333 OFFCURVE",
"113 485 CURVE",
"90.333 470.333 OFFCURVE",
"72.333 466.333 OFFCURVE",
"43 465 CURVE",
"39 471 LINE",
"55 496.333 OFFCURVE",
"68 506.667 OFFCURVE",
"92 520 CURVE SMOOTH",
"106.667 528.667 OFFCURVE",
"120.167 534.167 OFFCURVE",
"132.5 536.5 CURVE SMOOTH",
"144.833 538.833 OFFCURVE",
"159 542.333 OFFCURVE",
"175 547 CURVE",
"175 560 LINE",
"159.667 565.333 OFFCURVE",
"145.167 569.5 OFFCURVE",
"131.5 572.5 CURVE SMOOTH",
"117.833 575.5 OFFCURVE",
"104.667 581 OFFCURVE",
"92 589 CURVE SMOOTH",
"68 603.667 OFFCURVE",
"54.667 615 OFFCURVE",
"40 639 CURVE",
"43 646 LINE",
"72.333 644.667 OFFCURVE",
"89 638.667 OFFCURVE",
"113 624 CURVE SMOOTH",
"141.774 606.293 OFFCURVE",
"154.406 587.675 OFFCURVE",
"179 568 CURVE",
"189 574 LINE",
"185.667 589.333 OFFCURVE",
"182 603.333 OFFCURVE",
"178 616 CURVE SMOOTH",
"174 628.667 OFFCURVE",
"172 643 OFFCURVE",
"172 659 CURVE SMOOTH",
"172 687 OFFCURVE",
"177 705.667 OFFCURVE",
"189 731 CURVE",
"197 731 LINE",
"209 705.667 OFFCURVE",
"215 687 OFFCURVE",
"215 659 CURVE SMOOTH",
"215 645 OFFCURVE",
"213 631.333 OFFCURVE",
"209 618 CURVE SMOOTH",
"205 604.667 OFFCURVE",
"201.333 590 OFFCURVE",
"198 574 CURVE",
"209 568 LINE",
"233.361 589.654 OFFCURVE",
"247.527 607.974 OFFCURVE",
"275 624 CURVE SMOOTH",
"300.773 638.058 OFFCURVE",
"318.253 646 OFFCURVE",
"344 646 CURVE",
"348 639 LINE",
"333.333 615 OFFCURVE",
"321.667 605 OFFCURVE",
"295 589 CURVE SMOOTH",
"280.333 580.333 OFFCURVE",
"266.833 574.667 OFFCURVE",
"254.5 572 CURVE SMOOTH",
"242.167 569.333 OFFCURVE",
"228.333 565.333 OFFCURVE",
"213 560 CURVE",
"213 547 LINE",
"283.866 526.331 OFFCURVE",
"323.738 518.525 OFFCURVE",
"348 470 CURVE"
);
}
);
userData = {
assembly = "PUSHW[ ]	/* 4 values pushed */
27 5 34 4 
CALL[ ]	/* CallFunction */
PUSHW[ ]	/* 1 value pushed */
27 
SRP0[ ]	/* SetRefPoint0 */
PUSHW[ ]	/* 1 value pushed */
5 
MDRP[10000]	/* MoveDirectRelPt */
PUSHW[ ]	/* 1 value pushed */
5 
MDAP[1]	/* MoveDirectAbsPt */
NPUSHW[ ]	/* 5 values pushed */
106 34 122 34 2 
DELTAP1[ ]	/* DeltaExceptionP1 */
NPUSHW[ ]	/* 13 values pushed */
9 34 25 34 41 34 57 34 73 34 89 34 6 
DELTAP1[ ]	/* DeltaExceptionP1 */
PUSHW[ ]	/* 1 value pushed */
34 
SRP0[ ]	/* SetRefPoint0 */
PUSHW[ ]	/* 1 value pushed */
53 
MDRP[10000]	/* MoveDirectRelPt */
PUSHW[ ]	/* 1 value pushed */
53 
MDAP[1]	/* MoveDirectAbsPt */
PUSHW[ ]	/* 1 value pushed */
34 
SRP0[ ]	/* SetRefPoint0 */
PUSHW[ ]	/* 1 value pushed */
71 
MDRP[10000]	/* MoveDirectRelPt */
PUSHW[ ]	/* 1 value pushed */
27 
SRP0[ ]	/* SetRefPoint0 */
PUSHW[ ]	/* 1 value pushed */
78 
MDRP[10000]	/* MoveDirectRelPt */
SVTCA[0]	/* SetFreedomAndProjectionVectorToAxis */
PUSHW[ ]	/* 1 value pushed */
74 
MDAP[1]	/* MoveDirectAbsPt */
PUSHW[ ]	/* 1 value pushed */
0 
RCVT[ ]	/* ReadCVT */
IF[ ]	/* If */
PUSHW[ ]	/* 1 value pushed */
30 
MDAP[1]	/* MoveDirectAbsPt */
ELSE[ ]	/* Else */
PUSHW[ ]	/* 2 values pushed */
30 14 
MIAP[0]	/* MoveIndirectAbsPt */
EIF[ ]	/* EndIf */
PUSHW[ ]	/* 4 values pushed */
46 4 61 4 
CALL[ ]	/* CallFunction */
PUSHW[ ]	/* 1 value pushed */
46 
SRP0[ ]	/* SetRefPoint0 */
PUSHW[ ]	/* 1 value pushed */
13 
MDRP[10000]	/* MoveDirectRelPt */
PUSHW[ ]	/* 1 value pushed */
61 
SRP0[ ]	/* SetRefPoint0 */
PUSHW[ ]	/* 1 value pushed */
88 
MDRP[10000]	/* MoveDirectRelPt */
PUSHW[ ]	/* 1 value pushed */
88 
MDAP[1]	/* MoveDirectAbsPt */
IUP[0]	/* InterpolateUntPts */
IUP[1]	/* InterpolateUntPts */";
};
width = 388;
}
);
note = asterisk;
unicode = 002A;
},
{
glyphname = plus;
lastChange = "2019-03-14 18:39:42 +0000";
layers = (
{
layerId = "6873DD1C-7BCD-4DE2-A211-237E2294755D";
paths = (
{
closed = 1;
nodes = (
"370 241 LINE",
"370 35 LINE",
"330 35 LINE",
"330 241 LINE",
"125 241 LINE",
"125 280 LINE",
"330 280 LINE",
"330 485 LINE",
"370 485 LINE",
"370 280 LINE",
"575 280 LINE",
"575 241 LINE"
);
}
);
userData = {
assembly = "PUSHW[ ]	/* 3 values pushed */
3 4 3 
CALL[ ]	/* CallFunction */
PUSHW[ ]	/* 1 value pushed */
3 
SRP0[ ]	/* SetRefPoint0 */
PUSHW[ ]	/* 1 value pushed */
4 
SRP0[ ]	/* SetRefPoint0 */
PUSHW[ ]	/* 1 value pushed */
8 
MDRP[10000]	/* MoveDirectRelPt */
PUSHW[ ]	/* 1 value pushed */
3 
SRP0[ ]	/* SetRefPoint0 */
PUSHW[ ]	/* 1 value pushed */
10 
MDRP[10000]	/* MoveDirectRelPt */
SVTCA[0]	/* SetFreedomAndProjectionVectorToAxis */
PUSHW[ ]	/* 1 value pushed */
9 
MDAP[1]	/* MoveDirectAbsPt */
PUSHW[ ]	/* 1 value pushed */
0 
RCVT[ ]	/* ReadCVT */
IF[ ]	/* If */
PUSHW[ ]	/* 1 value pushed */
3 
MDAP[1]	/* MoveDirectAbsPt */
ELSE[ ]	/* Else */
PUSHW[ ]	/* 2 values pushed */
3 12 
MIAP[0]	/* MoveIndirectAbsPt */
EIF[ ]	/* EndIf */
PUSHW[ ]	/* 4 values pushed */
1 3 0 4 
CALL[ ]	/* CallFunction */
PUSHW[ ]	/* 1 value pushed */
1 
SRP0[ ]	/* SetRefPoint0 */
PUSHW[ ]	/* 1 value pushed */
5 
MDRP[10000]	/* MoveDirectRelPt */
PUSHW[ ]	/* 1 value pushed */
0 
SRP0[ ]	/* SetRefPoint0 */
PUSHW[ ]	/* 1 value pushed */
7 
MDRP[10000]	/* MoveDirectRelPt */
IUP[0]	/* InterpolateUntPts */
IUP[1]	/* InterpolateUntPts */";
};
width = 700;
}
);
note = plus;
unicode = 002B;
},
{
glyphname = comma;
lastChange = "2019-03-14 18:39:42 +0000";
layers = (
{
layerId = "6873DD1C-7BCD-4DE2-A211-237E2294755D";
paths = (
{
closed = 1;
nodes = (
"206 -59.497 OFFCURVE",
"162.696 -107.744 OFFCURVE",
"117 -140 CURVE",
"110 -133 LINE",
"148.667 -98.333 OFFCURVE",
"174 -62.667 OFFCURVE",
"174 -8 CURVE SMOOTH",
"174 13.333 OFFCURVE",
"163.667 40.333 OFFCURVE",
"149 43 CURVE",
"146.333 16.333 OFFCURVE",
"129.667 0 OFFCURVE",
"99 0 CURVE SMOOTH",
"71 0 OFFCURVE",
"51 19.333 OFFCURVE",
"51 50 CURVE SMOOTH",
"51 88.667 OFFCURVE",
"80.333 110 OFFCURVE",
"115 110 CURVE SMOOTH",
"169.42 110 OFFCURVE",
"206 54.82 OFFCURVE",
"206 0 CURVE SMOOTH"
);
}
);
userData = {
assembly = "PUSHW[ ]	/* 4 values pushed */
0 7 8 4 
CALL[ ]	/* CallFunction */
NPUSHW[ ]	/* 5 values pushed */
106 8 122 8 2 
DELTAP1[ ]	/* DeltaExceptionP1 */
NPUSHW[ ]	/* 13 values pushed */
9 8 25 8 41 8 57 8 73 8 89 8 6 
DELTAP1[ ]	/* DeltaExceptionP1 */
PUSHW[ ]	/* 1 value pushed */
17 
MDRP[11100]	/* MoveDirectRelPt */
SVTCA[0]	/* SetFreedomAndProjectionVectorToAxis */
PUSHW[ ]	/* 1 value pushed */
21 
MDAP[1]	/* MoveDirectAbsPt */
PUSHW[ ]	/* 1 value pushed */
0 
RCVT[ ]	/* ReadCVT */
IF[ ]	/* If */
PUSHW[ ]	/* 1 value pushed */
0 
MDAP[1]	/* MoveDirectAbsPt */
ELSE[ ]	/* Else */
PUSHW[ ]	/* 2 values pushed */
0 8 
MIAP[0]	/* MoveIndirectAbsPt */
EIF[ ]	/* EndIf */
PUSHW[ ]	/* 1 value pushed */
0 
RCVT[ ]	/* ReadCVT */
IF[ ]	/* If */
PUSHW[ ]	/* 1 value pushed */
11 
MDAP[1]	/* MoveDirectAbsPt */
ELSE[ ]	/* Else */
PUSHW[ ]	/* 2 values pushed */
11 8 
MIAP[0]	/* MoveIndirectAbsPt */
EIF[ ]	/* EndIf */
PUSHW[ ]	/* 2 values pushed */
5 4 
MIRP[11100]	/* MoveIndirectRelPt */
NPUSHW[ ]	/* 13 values pushed */
7 5 23 5 39 5 55 5 71 5 87 5 6 
DELTAP1[ ]	/* DeltaExceptionP1 */
NPUSHW[ ]	/* 5 values pushed */
102 5 118 5 2 
DELTAP1[ ]	/* DeltaExceptionP1 */
IUP[0]	/* InterpolateUntPts */
IUP[1]	/* InterpolateUntPts */";
};
width = 243;
}
);
note = comma;
unicode = 002C;
},
{
glyphname = hyphen;
lastChange = "2019-03-14 18:39:42 +0000";
layers = (
{
layerId = "6873DD1C-7BCD-4DE2-A211-237E2294755D";
paths = (
{
closed = 1;
nodes = (
"12 225 LINE",
"12 295 LINE",
"243 295 LINE",
"243 225 LINE"
);
}
);
userData = {
assembly = "SVTCA[0]	/* SetFreedomAndProjectionVectorToAxis */
PUSHW[ ]	/* 4 values pushed */
1 4 0 4 
CALL[ ]	/* CallFunction */
PUSHW[ ]	/* 1 value pushed */
1 
SRP0[ ]	/* SetRefPoint0 */
IUP[0]	/* InterpolateUntPts */
IUP[1]	/* InterpolateUntPts */";
};
width = 256;
}
);
note = hyphen;
unicode = 002D;
},
{
glyphname = period;
lastChange = "2019-03-14 18:39:42 +0000";
layers = (
{
layerId = "6873DD1C-7BCD-4DE2-A211-237E2294755D";
paths = (
{
closed = 1;
nodes = (
"182 19.333 OFFCURVE",
"158.667 -1 OFFCURVE",
"124 -1 CURVE SMOOTH",
"89.333 -1 OFFCURVE",
"64 21.333 OFFCURVE",
"64 56 CURVE SMOOTH",
"64 90.667 OFFCURVE",
"89.333 117 OFFCURVE",
"124 117 CURVE SMOOTH",
"158.667 117 OFFCURVE",
"182 88.667 OFFCURVE",
"182 54 CURVE SMOOTH"
);
}
);
userData = {
assembly = "PUSHW[ ]	/* 4 values pushed */
0 7 6 4 
CALL[ ]	/* CallFunction */
NPUSHW[ ]	/* 13 values pushed */
6 0 22 0 38 0 54 0 70 0 86 0 6 
DELTAP1[ ]	/* DeltaExceptionP1 */
NPUSHW[ ]	/* 5 values pushed */
101 0 117 0 2 
DELTAP1[ ]	/* DeltaExceptionP1 */
SVTCA[0]	/* SetFreedomAndProjectionVectorToAxis */
PUSHW[ ]	/* 1 value pushed */
0 
RCVT[ ]	/* ReadCVT */
IF[ ]	/* If */
PUSHW[ ]	/* 1 value pushed */
9 
MDAP[1]	/* MoveDirectAbsPt */
ELSE[ ]	/* Else */
PUSHW[ ]	/* 2 values pushed */
9 8 
MIAP[0]	/* MoveIndirectAbsPt */
EIF[ ]	/* EndIf */
PUSHW[ ]	/* 2 values pushed */
3 4 
MIRP[11100]	/* MoveIndirectRelPt */
NPUSHW[ ]	/* 13 values pushed */
7 3 23 3 39 3 55 3 71 3 87 3 6 
DELTAP1[ ]	/* DeltaExceptionP1 */
NPUSHW[ ]	/* 5 values pushed */
102 3 118 3 2 
DELTAP1[ ]	/* DeltaExceptionP1 */
IUP[0]	/* InterpolateUntPts */
IUP[1]	/* InterpolateUntPts */";
};
width = 243;
}
);
note = period;
unicode = 002E;
},
{
glyphname = slash;
lastChange = "2019-03-14 18:39:42 +0000";
layers = (
{
layerId = "6873DD1C-7BCD-4DE2-A211-237E2294755D";
paths = (
{
closed = 1;
nodes = (
"-17 -143 LINE",
"-50 -131 LINE",
"320 760 LINE",
"353 747 LINE"
);
}
);
userData = {
assembly = "SVTCA[0]	/* SetFreedomAndProjectionVectorToAxis */
PUSHW[ ]	/* 1 value pushed */
1 
MDAP[1]	/* MoveDirectAbsPt */
PUSHW[ ]	/* 1 value pushed */
3 
MDAP[1]	/* MoveDirectAbsPt */
IUP[0]	/* InterpolateUntPts */
IUP[1]	/* InterpolateUntPts */";
};
width = 311;
}
);
note = slash;
unicode = 002F;
},
{
glyphname = zero;
lastChange = "2019-03-14 18:39:42 +0000";
layers = (
{
layerId = "6873DD1C-7BCD-4DE2-A211-237E2294755D";
paths = (
{
closed = 1;
nodes = (
"506 100.121 OFFCURVE",
"397.551 -3 OFFCURVE",
"269 -3 CURVE SMOOTH",
"148.774 -3 OFFCURVE",
"27 82.024 OFFCURVE",
"27 246 CURVE SMOOTH",
"27 373.669 OFFCURVE",
"131.938 482 OFFCURVE",
"272 482 CURVE SMOOTH",
"396.826 482 OFFCURVE",
"506 387.909 OFFCURVE",
"506 243 CURVE SMOOTH"
);
},
{
closed = 1;
nodes = (
"458 346.722 OFFCURVE",
"378.541 440 OFFCURVE",
"267 440 CURVE SMOOTH",
"157.477 440 OFFCURVE",
"75 346.043 OFFCURVE",
"75 238 CURVE SMOOTH",
"75 130.706 OFFCURVE",
"158.289 37 OFFCURVE",
"269 37 CURVE SMOOTH",
"380.853 37 OFFCURVE",
"458 129.819 OFFCURVE",
"458 238 CURVE SMOOTH"
);
}
);
userData = {
assembly = "PUSHW[ ]	/* 1 value pushed */
40 
MDAP[1]	/* MoveDirectAbsPt */
PUSHW[ ]	/* 1 value pushed */
41 
MDAP[1]	/* MoveDirectAbsPt */
PUSHW[ ]	/* 1 value pushed */
0 
MDRP[11100]	/* MoveDirectRelPt */
PUSHW[ ]	/* 1 value pushed */
40 
SRP0[ ]	/* SetRefPoint0 */
PUSHW[ ]	/* 1 value pushed */
10 
MDRP[10000]	/* MoveDirectRelPt */
PUSHW[ ]	/* 1 value pushed */
10 
MDAP[1]	/* MoveDirectAbsPt */
PUSHW[ ]	/* 1 value pushed */
0 
SRP0[ ]	/* SetRefPoint0 */
PUSHW[ ]	/* 2 values pushed */
20 5 
MIRP[11100]	/* MoveIndirectRelPt */
NPUSHW[ ]	/* 5 values pushed */
106 20 122 20 2 
DELTAP1[ ]	/* DeltaExceptionP1 */
NPUSHW[ ]	/* 13 values pushed */
9 20 25 20 41 20 57 20 73 20 89 20 6 
DELTAP1[ ]	/* DeltaExceptionP1 */
PUSHW[ ]	/* 1 value pushed */
10 
SRP0[ ]	/* SetRefPoint0 */
PUSHW[ ]	/* 2 values pushed */
30 5 
MIRP[11100]	/* MoveIndirectRelPt */
NPUSHW[ ]	/* 13 values pushed */
6 30 22 30 38 30 54 30 70 30 86 30 6 
DELTAP1[ ]	/* DeltaExceptionP1 */
NPUSHW[ ]	/* 5 values pushed */
101 30 117 30 2 
DELTAP1[ ]	/* DeltaExceptionP1 */
SVTCA[0]	/* SetFreedomAndProjectionVectorToAxis */
PUSHW[ ]	/* 1 value pushed */
0 
RCVT[ ]	/* ReadCVT */
IF[ ]	/* If */
PUSHW[ ]	/* 1 value pushed */
5 
MDAP[1]	/* MoveDirectAbsPt */
ELSE[ ]	/* Else */
PUSHW[ ]	/* 2 values pushed */
5 12 
MIAP[0]	/* MoveIndirectAbsPt */
EIF[ ]	/* EndIf */
PUSHW[ ]	/* 1 value pushed */
0 
RCVT[ ]	/* ReadCVT */
IF[ ]	/* If */
PUSHW[ ]	/* 1 value pushed */
15 
MDAP[1]	/* MoveDirectAbsPt */
ELSE[ ]	/* Else */
PUSHW[ ]	/* 2 values pushed */
15 8 
MIAP[0]	/* MoveIndirectAbsPt */
EIF[ ]	/* EndIf */
PUSHW[ ]	/* 2 values pushed */
25 3 
MIRP[11100]	/* MoveIndirectRelPt */
NPUSHW[ ]	/* 33 values pushed */
7 25 23 25 39 25 55 25 71 25 87 25 103 25 119 25 135 25 151 25 167 25 183 25 199 25 215 25 231 25 247 25 16 
DELTAP1[ ]	/* DeltaExceptionP1 */
NPUSHW[ ]	/* 13 values pushed */
7 25 23 25 39 25 55 25 71 25 87 25 6 
DELTAP2[ ]	/* DeltaExceptionP2 */
NPUSHW[ ]	/* 5 values pushed */
102 25 118 25 2 
DELTAP2[ ]	/* DeltaExceptionP2 */
PUSHW[ ]	/* 1 value pushed */
5 
SRP0[ ]	/* SetRefPoint0 */
PUSHW[ ]	/* 2 values pushed */
35 3 
MIRP[11100]	/* MoveIndirectRelPt */
NPUSHW[ ]	/* 5 values pushed */
105 35 121 35 2 
DELTAP2[ ]	/* DeltaExceptionP2 */
NPUSHW[ ]	/* 33 values pushed */
8 35 24 35 40 35 56 35 72 35 88 35 104 35 120 35 136 35 152 35 168 35 184 35 200 35 216 35 232 35 248 35 16 
DELTAP1[ ]	/* DeltaExceptionP1 */
NPUSHW[ ]	/* 13 values pushed */
8 35 24 35 40 35 56 35 72 35 88 35 6 
DELTAP2[ ]	/* DeltaExceptionP2 */
IUP[0]	/* InterpolateUntPts */
IUP[1]	/* InterpolateUntPts */";
};
width = 533;
}
);
note = zero;
unicode = 0030;
},
{
glyphname = one;
lastChange = "2019-03-14 18:39:42 +0000";
layers = (
{
layerId = "6873DD1C-7BCD-4DE2-A211-237E2294755D";
paths = (
{
closed = 1;
nodes = (
"42 0 LINE",
"42 11 LINE",
"77.676 11 OFFCURVE",
"118 26 OFFCURVE",
"118 55 CURVE SMOOTH",
"118 419 LINE SMOOTH",
"118 449.686 OFFCURVE",
"73.95 462 OFFCURVE",
"38 462 CURVE",
"38 473 LINE",
"281 473 LINE",
"281 462 LINE",
"246.347 462 OFFCURVE",
"201 448.445 OFFCURVE",
"201 418 CURVE SMOOTH",
"201 54 LINE SMOOTH",
"201 21.172 OFFCURVE",
"247.36 11 OFFCURVE",
"281 11 CURVE",
"281 0 LINE"
);
}
);
userData = {
assembly = "PUSHW[ ]	/* 4 values pushed */
7 5 20 4 
CALL[ ]	/* CallFunction */
PUSHW[ ]	/* 1 value pushed */
7 
SRP0[ ]	/* SetRefPoint0 */
SVTCA[0]	/* SetFreedomAndProjectionVectorToAxis */
PUSHW[ ]	/* 1 value pushed */
0 
RCVT[ ]	/* ReadCVT */
IF[ ]	/* If */
PUSHW[ ]	/* 1 value pushed */
13 
MDAP[1]	/* MoveDirectAbsPt */
ELSE[ ]	/* Else */
PUSHW[ ]	/* 2 values pushed */
13 12 
MIAP[0]	/* MoveIndirectAbsPt */
EIF[ ]	/* EndIf */
PUSHW[ ]	/* 1 value pushed */
0 
RCVT[ ]	/* ReadCVT */
IF[ ]	/* If */
PUSHW[ ]	/* 1 value pushed */
0 
MDAP[1]	/* MoveDirectAbsPt */
ELSE[ ]	/* Else */
PUSHW[ ]	/* 2 values pushed */
0 8 
MIAP[0]	/* MoveIndirectAbsPt */
EIF[ ]	/* EndIf */
IUP[0]	/* InterpolateUntPts */
IUP[1]	/* InterpolateUntPts */";
};
width = 316;
}
);
note = one;
unicode = 0031;
},
{
glyphname = two;
lastChange = "2019-03-14 18:39:42 +0000";
layers = (
{
layerId = "6873DD1C-7BCD-4DE2-A211-237E2294755D";
paths = (
{
closed = 1;
nodes = (
"387 0 LINE",
"46 0 LINE",
"43 8 LINE",
"129.732 81.977 OFFCURVE",
"274 204.536 OFFCURVE",
"274 304 CURVE SMOOTH",
"274 361.524 OFFCURVE",
"240.437 411 OFFCURVE",
"179 411 CURVE SMOOTH",
"111 411 OFFCURVE",
"65 369 OFFCURVE",
"33 317 CURVE",
"23 323 LINE",
"57.086 384.975 OFFCURVE",
"138.824 483 OFFCURVE",
"232 483 CURVE SMOOTH",
"298.667 483 OFFCURVE",
"349 439 OFFCURVE",
"349 367 CURVE SMOOTH",
"349 311 OFFCURVE",
"321.5 260.5 OFFCURVE",
"283.5 214.5 CURVE SMOOTH",
"251.532 175.802 OFFCURVE",
"190.153 119.893 OFFCURVE",
"154 86 CURVE",
"154 84 LINE",
"334 84 LINE SMOOTH",
"395.905 84 OFFCURVE",
"410.474 100.642 OFFCURVE",
"427 137 CURVE",
"437 134 LINE"
);
}
);
userData = {
assembly = "PUSHW[ ]	/* 4 values pushed */
13 5 30 4 
CALL[ ]	/* CallFunction */
PUSHW[ ]	/* 1 value pushed */
13 
SRP0[ ]	/* SetRefPoint0 */
NPUSHW[ ]	/* 5 values pushed */
106 30 122 30 2 
DELTAP1[ ]	/* DeltaExceptionP1 */
NPUSHW[ ]	/* 13 values pushed */
9 30 25 30 41 30 57 30 73 30 89 30 6 
DELTAP1[ ]	/* DeltaExceptionP1 */
PUSHW[ ]	/* 1 value pushed */
39 
MDRP[11100]	/* MoveDirectRelPt */
SVTCA[0]	/* SetFreedomAndProjectionVectorToAxis */
PUSHW[ ]	/* 1 value pushed */
0 
RCVT[ ]	/* ReadCVT */
IF[ ]	/* If */
PUSHW[ ]	/* 1 value pushed */
16 
MDAP[1]	/* MoveDirectAbsPt */
ELSE[ ]	/* Else */
PUSHW[ ]	/* 2 values pushed */
16 12 
MIAP[0]	/* MoveIndirectAbsPt */
EIF[ ]	/* EndIf */
PUSHW[ ]	/* 1 value pushed */
0 
RCVT[ ]	/* ReadCVT */
IF[ ]	/* If */
PUSHW[ ]	/* 1 value pushed */
36 
MDAP[1]	/* MoveDirectAbsPt */
ELSE[ ]	/* Else */
PUSHW[ ]	/* 2 values pushed */
36 8 
MIAP[0]	/* MoveIndirectAbsPt */
EIF[ ]	/* EndIf */
PUSHW[ ]	/* 2 values pushed */
6 4 
MIRP[11100]	/* MoveIndirectRelPt */
PUSHW[ ]	/* 3 values pushed */
8 36 16 
SRP1[ ]	/* SetRefPoint1 */
SRP2[ ]	/* SetRefPoint2 */
IP[ ]	/* InterpolatePts */
PUSHW[ ]	/* 1 value pushed */
16 
SRP0[ ]	/* SetRefPoint0 */
PUSHW[ ]	/* 2 values pushed */
25 4 
MIRP[11100]	/* MoveIndirectRelPt */
NPUSHW[ ]	/* 5 values pushed */
105 25 121 25 2 
DELTAP1[ ]	/* DeltaExceptionP1 */
NPUSHW[ ]	/* 13 values pushed */
8 25 24 25 40 25 56 25 72 25 88 25 6 
DELTAP1[ ]	/* DeltaExceptionP1 */
IUP[0]	/* InterpolateUntPts */
IUP[1]	/* InterpolateUntPts */";
};
width = 436;
}
);
note = two;
unicode = 0032;
},
{
glyphname = three;
lastChange = "2019-03-14 18:39:42 +0000";
layers = (
{
layerId = "6873DD1C-7BCD-4DE2-A211-237E2294755D";
paths = (
{
closed = 1;
nodes = (
"370 -149.483 OFFCURVE",
"231.686 -250 OFFCURVE",
"75 -250 CURVE SMOOTH",
"32.873 -250 OFFCURVE",
"-9 -229.211 OFFCURVE",
"-9 -188 CURVE SMOOTH",
"-9 -166.667 OFFCURVE",
"-0.667 -150 OFFCURVE",
"26 -150 CURVE SMOOTH",
"71.421 -150 OFFCURVE",
"86.826 -224 OFFCURVE",
"142 -224 CURVE SMOOTH",
"190.473 -224 OFFCURVE",
"287 -175.835 OFFCURVE",
"287 -57 CURVE SMOOTH",
"287 36.621 OFFCURVE",
"203.467 98 OFFCURVE",
"108 98 CURVE SMOOTH",
"95 98 LINE",
"92 104 LINE",
"166.019 160.937 OFFCURVE",
"258 226.507 OFFCURVE",
"258 323 CURVE SMOOTH",
"258 377.667 OFFCURVE",
"211.667 412 OFFCURVE",
"153 412 CURVE SMOOTH",
"95.667 412 OFFCURVE",
"59.333 396.333 OFFCURVE",
"30 351 CURVE",
"21 356 LINE",
"51.577 422.713 OFFCURVE",
"105.464 483 OFFCURVE",
"186 483 CURVE SMOOTH",
"276.667 483 OFFCURVE",
"340 431 OFFCURVE",
"340 355 CURVE SMOOTH",
"340 283.597 OFFCURVE",
"277.202 229.995 OFFCURVE",
"201 171 CURVE",
"289.558 152.215 OFFCURVE",
"370 87.219 OFFCURVE",
"370 -1 CURVE SMOOTH"
);
}
);
userData = {
assembly = "PUSHW[ ]	/* 4 values pushed */
10 5 25 4 
CALL[ ]	/* CallFunction */
PUSHW[ ]	/* 1 value pushed */
10 
SRP0[ ]	/* SetRefPoint0 */
NPUSHW[ ]	/* 5 values pushed */
106 25 122 25 2 
DELTAP1[ ]	/* DeltaExceptionP1 */
NPUSHW[ ]	/* 13 values pushed */
9 25 25 25 41 25 57 25 73 25 89 25 6 
DELTAP1[ ]	/* DeltaExceptionP1 */
PUSHW[ ]	/* 3 values pushed */
37 25 10 
SRP1[ ]	/* SetRefPoint1 */
SRP2[ ]	/* SetRefPoint2 */
IP[ ]	/* InterpolatePts */
PUSHW[ ]	/* 1 value pushed */
37 
MDAP[1]	/* MoveDirectAbsPt */
NPUSHW[ ]	/* 5 values pushed */
106 37 122 37 2 
DELTAP1[ ]	/* DeltaExceptionP1 */
NPUSHW[ ]	/* 13 values pushed */
9 37 25 37 41 37 57 37 73 37 89 37 6 
DELTAP1[ ]	/* DeltaExceptionP1 */
PUSHW[ ]	/* 2 values pushed */
0 5 
MIRP[11100]	/* MoveIndirectRelPt */
SVTCA[0]	/* SetFreedomAndProjectionVectorToAxis */
PUSHW[ ]	/* 1 value pushed */
0 
RCVT[ ]	/* ReadCVT */
IF[ ]	/* If */
PUSHW[ ]	/* 1 value pushed */
13 
MDAP[1]	/* MoveDirectAbsPt */
ELSE[ ]	/* Else */
PUSHW[ ]	/* 2 values pushed */
13 12 
MIAP[0]	/* MoveIndirectAbsPt */
EIF[ ]	/* EndIf */
PUSHW[ ]	/* 1 value pushed */
0 
RCVT[ ]	/* ReadCVT */
IF[ ]	/* If */
PUSHW[ ]	/* 1 value pushed */
55 
MDAP[1]	/* MoveDirectAbsPt */
ELSE[ ]	/* Else */
PUSHW[ ]	/* 2 values pushed */
55 10 
MIAP[0]	/* MoveIndirectAbsPt */
EIF[ ]	/* EndIf */
PUSHW[ ]	/* 3 values pushed */
5 55 13 
SRP1[ ]	/* SetRefPoint1 */
SRP2[ ]	/* SetRefPoint2 */
IP[ ]	/* InterpolatePts */
PUSHW[ ]	/* 1 value pushed */
13 
SRP0[ ]	/* SetRefPoint0 */
PUSHW[ ]	/* 2 values pushed */
22 4 
MIRP[11100]	/* MoveIndirectRelPt */
NPUSHW[ ]	/* 5 values pushed */
105 22 121 22 2 
DELTAP1[ ]	/* DeltaExceptionP1 */
NPUSHW[ ]	/* 13 values pushed */
8 22 24 22 40 22 56 22 72 22 88 22 6 
DELTAP1[ ]	/* DeltaExceptionP1 */
PUSHW[ ]	/* 1 value pushed */
55 
SRP0[ ]	/* SetRefPoint0 */
PUSHW[ ]	/* 2 values pushed */
42 2 
MIRP[11100]	/* MoveIndirectRelPt */
NPUSHW[ ]	/* 33 values pushed */
7 42 23 42 39 42 55 42 71 42 87 42 103 42 119 42 135 42 151 42 167 42 183 42 199 42 215 42 231 42 247 42 16 
DELTAP1[ ]	/* DeltaExceptionP1 */
NPUSHW[ ]	/* 33 values pushed */
7 42 23 42 39 42 55 42 71 42 87 42 103 42 119 42 135 42 151 42 167 42 183 42 199 42 215 42 231 42 247 42 16 
DELTAP2[ ]	/* DeltaExceptionP2 */
NPUSHW[ ]	/* 33 values pushed */
7 42 23 42 39 42 55 42 71 42 87 42 103 42 119 42 135 42 151 42 167 42 183 42 199 42 215 42 231 42 247 42 16 
DELTAP3[ ]	/* DeltaExceptionP3 */
PUSHW[ ]	/* 1 value pushed */
55 
SRP0[ ]	/* SetRefPoint0 */
PUSHW[ ]	/* 2 values pushed */
47 4 
MIRP[11100]	/* MoveIndirectRelPt */
NPUSHW[ ]	/* 13 values pushed */
7 47 23 47 39 47 55 47 71 47 87 47 6 
DELTAP1[ ]	/* DeltaExceptionP1 */
NPUSHW[ ]	/* 5 values pushed */
102 47 118 47 2 
DELTAP1[ ]	/* DeltaExceptionP1 */
IUP[0]	/* InterpolateUntPts */
IUP[1]	/* InterpolateUntPts */";
};
width = 396;
}
);
note = three;
unicode = 0033;
},
{
glyphname = four;
lastChange = "2019-03-14 18:39:42 +0000";
layers = (
{
layerId = "6873DD1C-7BCD-4DE2-A211-237E2294755D";
paths = (
{
closed = 1;
nodes = (
"389 5 LINE",
"389 -226 LINE",
"301 -226 LINE",
"301 5 LINE",
"7 5 LINE SMOOTH",
"-2.333 5 OFFCURVE",
"-6.667 6.333 OFFCURVE",
"0 17 CURVE",
"46 84 LINE",
"358 483 LINE",
"387 483 LINE",
"387 82 LINE",
"525 82 LINE",
"525 5 LINE"
);
},
{
closed = 1;
nodes = (
"301 379 LINE",
"66 82 LINE",
"301 82 LINE"
);
}
);
userData = {
assembly = "PUSHW[ ]	/* 4 values pushed */
2 5 14 4 
CALL[ ]	/* CallFunction */
PUSHW[ ]	/* 1 value pushed */
2 
SRP0[ ]	/* SetRefPoint0 */
PUSHW[ ]	/* 1 value pushed */
14 
SRP0[ ]	/* SetRefPoint0 */
PUSHW[ ]	/* 1 value pushed */
10 
MDRP[10000]	/* MoveDirectRelPt */
PUSHW[ ]	/* 1 value pushed */
2 
SRP0[ ]	/* SetRefPoint0 */
PUSHW[ ]	/* 1 value pushed */
12 
MDRP[10000]	/* MoveDirectRelPt */
PUSHW[ ]	/* 1 value pushed */
12 
MDAP[1]	/* MoveDirectAbsPt */
SVTCA[0]	/* SetFreedomAndProjectionVectorToAxis */
PUSHW[ ]	/* 1 value pushed */
11 
MDAP[1]	/* MoveDirectAbsPt */
PUSHW[ ]	/* 1 value pushed */
0 
RCVT[ ]	/* ReadCVT */
IF[ ]	/* If */
PUSHW[ ]	/* 1 value pushed */
3 
MDAP[1]	/* MoveDirectAbsPt */
ELSE[ ]	/* Else */
PUSHW[ ]	/* 2 values pushed */
3 12 
MIAP[0]	/* MoveIndirectAbsPt */
EIF[ ]	/* EndIf */
PUSHW[ ]	/* 4 values pushed */
1 4 0 4 
CALL[ ]	/* CallFunction */
PUSHW[ ]	/* 1 value pushed */
1 
SRP0[ ]	/* SetRefPoint0 */
PUSHW[ ]	/* 1 value pushed */
0 
SRP0[ ]	/* SetRefPoint0 */
PUSHW[ ]	/* 1 value pushed */
9 
MDRP[10000]	/* MoveDirectRelPt */
PUSHW[ ]	/* 1 value pushed */
1 
SRP0[ ]	/* SetRefPoint0 */
PUSHW[ ]	/* 1 value pushed */
14 
MDRP[10000]	/* MoveDirectRelPt */
PUSHW[ ]	/* 3 values pushed */
15 11 3 
SRP1[ ]	/* SetRefPoint1 */
SRP2[ ]	/* SetRefPoint2 */
IP[ ]	/* InterpolatePts */
PUSHW[ ]	/* 3 values pushed */
16 11 3 
SRP1[ ]	/* SetRefPoint1 */
SRP2[ ]	/* SetRefPoint2 */
IP[ ]	/* InterpolatePts */
IUP[0]	/* InterpolateUntPts */
IUP[1]	/* InterpolateUntPts */";
};
width = 551;
}
);
note = four;
unicode = 0034;
},
{
glyphname = five;
lastChange = "2019-03-14 18:39:42 +0000";
layers = (
{
layerId = "6873DD1C-7BCD-4DE2-A211-237E2294755D";
paths = (
{
closed = 1;
nodes = (
"375.667 487 OFFCURVE",
"360.667 439.667 OFFCURVE",
"342 377 CURVE",
"103 377 LINE",
"86 191 LINE",
"110 195 OFFCURVE",
"128.333 197 OFFCURVE",
"155 197 CURVE SMOOTH",
"292.001 197 OFFCURVE",
"373 112.362 OFFCURVE",
"373 -5 CURVE SMOOTH",
"373 -142.209 OFFCURVE",
"252.453 -250 OFFCURVE",
"138 -250 CURVE SMOOTH",
"72.397 -250 OFFCURVE",
"0 -226.92 OFFCURVE",
"0 -167 CURVE SMOOTH",
"0 -145.667 OFFCURVE",
"14.667 -128 OFFCURVE",
"36 -128 CURVE SMOOTH",
"100.764 -128 OFFCURVE",
"86.314 -227 OFFCURVE",
"167 -227 CURVE SMOOTH",
"253.552 -227 OFFCURVE",
"292 -134.954 OFFCURVE",
"292 -47 CURVE SMOOTH",
"292 58.366 OFFCURVE",
"231.606 108 OFFCURVE",
"162 108 CURVE SMOOTH",
"104.923 108 OFFCURVE",
"78.433 86.56 OFFCURVE",
"62 40 CURVE",
"52 42 LINE",
"96 473 LINE",
"309 473 LINE SMOOTH",
"353 473 OFFCURVE",
"361 487 OFFCURVE",
"373 515 CURVE",
"385 511 LINE"
);
}
);
userData = {
assembly = "PUSHW[ ]	/* 4 values pushed */
40 5 17 4 
CALL[ ]	/* CallFunction */
PUSHW[ ]	/* 1 value pushed */
40 
SRP0[ ]	/* SetRefPoint0 */
NPUSHW[ ]	/* 5 values pushed */
106 17 122 17 2 
DELTAP1[ ]	/* DeltaExceptionP1 */
NPUSHW[ ]	/* 13 values pushed */
9 17 25 17 41 17 57 17 73 17 89 17 6 
DELTAP1[ ]	/* DeltaExceptionP1 */
PUSHW[ ]	/* 1 value pushed */
54 
MDRP[11100]	/* MoveDirectRelPt */
SVTCA[0]	/* SetFreedomAndProjectionVectorToAxis */
PUSHW[ ]	/* 1 value pushed */
1 
MDAP[1]	/* MoveDirectAbsPt */
PUSHW[ ]	/* 1 value pushed */
0 
RCVT[ ]	/* ReadCVT */
IF[ ]	/* If */
PUSHW[ ]	/* 1 value pushed */
4 
MDAP[1]	/* MoveDirectAbsPt */
ELSE[ ]	/* Else */
PUSHW[ ]	/* 2 values pushed */
4 12 
MIAP[0]	/* MoveIndirectAbsPt */
EIF[ ]	/* EndIf */
PUSHW[ ]	/* 1 value pushed */
0 
RCVT[ ]	/* ReadCVT */
IF[ ]	/* If */
PUSHW[ ]	/* 1 value pushed */
35 
MDAP[1]	/* MoveDirectAbsPt */
ELSE[ ]	/* Else */
PUSHW[ ]	/* 2 values pushed */
35 10 
MIAP[0]	/* MoveIndirectAbsPt */
EIF[ ]	/* EndIf */
PUSHW[ ]	/* 4 values pushed */
45 4 12 4 
CALL[ ]	/* CallFunction */
PUSHW[ ]	/* 1 value pushed */
45 
SRP0[ ]	/* SetRefPoint0 */
PUSHW[ ]	/* 1 value pushed */
35 
SRP0[ ]	/* SetRefPoint0 */
PUSHW[ ]	/* 2 values pushed */
22 1 
MIRP[11100]	/* MoveIndirectRelPt */
NPUSHW[ ]	/* 33 values pushed */
7 22 23 22 39 22 55 22 71 22 87 22 103 22 119 22 135 22 151 22 167 22 183 22 199 22 215 22 231 22 247 22 16 
DELTAP1[ ]	/* DeltaExceptionP1 */
NPUSHW[ ]	/* 33 values pushed */
7 22 23 22 39 22 55 22 71 22 87 22 103 22 119 22 135 22 151 22 167 22 183 22 199 22 215 22 231 22 247 22 16 
DELTAP2[ ]	/* DeltaExceptionP2 */
NPUSHW[ ]	/* 33 values pushed */
7 22 23 22 39 22 55 22 71 22 87 22 103 22 119 22 135 22 151 22 167 22 183 22 199 22 215 22 231 22 247 22 16 
DELTAP3[ ]	/* DeltaExceptionP3 */
PUSHW[ ]	/* 1 value pushed */
35 
SRP0[ ]	/* SetRefPoint0 */
PUSHW[ ]	/* 2 values pushed */
27 4 
MIRP[11100]	/* MoveIndirectRelPt */
NPUSHW[ ]	/* 13 values pushed */
7 27 23 27 39 27 55 27 71 27 87 27 6 
DELTAP1[ ]	/* DeltaExceptionP1 */
NPUSHW[ ]	/* 5 values pushed */
102 27 118 27 2 
DELTAP1[ ]	/* DeltaExceptionP1 */
PUSHW[ ]	/* 1 value pushed */
45 
SRP0[ ]	/* SetRefPoint0 */
PUSHW[ ]	/* 1 value pushed */
48 
MDRP[10000]	/* MoveDirectRelPt */
PUSHW[ ]	/* 1 value pushed */
48 
MDAP[1]	/* MoveDirectAbsPt */
PUSHW[ ]	/* 1 value pushed */
4 
SRP0[ ]	/* SetRefPoint0 */
PUSHW[ ]	/* 2 values pushed */
49 4 
MIRP[11100]	/* MoveIndirectRelPt */
IUP[0]	/* InterpolateUntPts */
IUP[1]	/* InterpolateUntPts */";
};
width = 393;
}
);
note = five;
unicode = 0035;
},
{
glyphname = six;
lastChange = "2019-03-14 18:39:42 +0000";
layers = (
{
layerId = "6873DD1C-7BCD-4DE2-A211-237E2294755D";
paths = (
{
closed = 1;
nodes = (
"487 104.918 OFFCURVE",
"390.19 0 OFFCURVE",
"254 0 CURVE SMOOTH",
"128.913 0 OFFCURVE",
"27 114.619 OFFCURVE",
"27 248 CURVE SMOOTH",
"27 328 OFFCURVE",
"55.5 401.667 OFFCURVE",
"101.5 467 CURVE SMOOTH",
"124.5 499.667 OFFCURVE",
"151 530.167 OFFCURVE",
"181 558.5 CURVE SMOOTH",
"241 615.167 OFFCURVE",
"309 659 OFFCURVE",
"377 691 CURVE SMOOTH",
"411 707 OFFCURVE",
"443.667 719.333 OFFCURVE",
"475 728 CURVE",
"483 716 LINE",
"372.145 667.679 OFFCURVE",
"262.953 572.39 OFFCURVE",
"195 439 CURVE",
"217.667 445.667 OFFCURVE",
"235.333 449 OFFCURVE",
"266 449 CURVE SMOOTH",
"395.16 449 OFFCURVE",
"487 357.429 OFFCURVE",
"487 237 CURVE SMOOTH"
);
},
{
closed = 1;
nodes = (
"396 307.681 OFFCURVE",
"348.011 430 OFFCURVE",
"241 430 CURVE SMOOTH",
"218.333 430 OFFCURVE",
"199.667 425 OFFCURVE",
"185 409 CURVE SMOOTH",
"133 351.667 OFFCURVE",
"118 275 OFFCURVE",
"118 203 CURVE SMOOTH",
"118 83 OFFCURVE",
"171.667 14 OFFCURVE",
"257 14 CURVE SMOOTH",
"338.333 14 OFFCURVE",
"396 74.667 OFFCURVE",
"396 196 CURVE SMOOTH"
);
}
);
userData = {
assembly = "PUSHW[ ]	/* 1 value pushed */
48 
MDAP[1]	/* MoveDirectAbsPt */
PUSHW[ ]	/* 1 value pushed */
49 
MDAP[1]	/* MoveDirectAbsPt */
PUSHW[ ]	/* 1 value pushed */
0 
MDRP[11100]	/* MoveDirectRelPt */
PUSHW[ ]	/* 1 value pushed */
48 
SRP0[ ]	/* SetRefPoint0 */
PUSHW[ ]	/* 1 value pushed */
21 
MDRP[10000]	/* MoveDirectRelPt */
PUSHW[ ]	/* 1 value pushed */
21 
MDAP[1]	/* MoveDirectAbsPt */
PUSHW[ ]	/* 3 values pushed */
8 21 0 
SRP1[ ]	/* SetRefPoint1 */
SRP2[ ]	/* SetRefPoint2 */
IP[ ]	/* InterpolatePts */
PUSHW[ ]	/* 1 value pushed */
0 
SRP0[ ]	/* SetRefPoint0 */
PUSHW[ ]	/* 1 value pushed */
13 
MDRP[10000]	/* MoveDirectRelPt */
PUSHW[ ]	/* 1 value pushed */
13 
MDAP[1]	/* MoveDirectAbsPt */
PUSHW[ ]	/* 1 value pushed */
0 
SRP0[ ]	/* SetRefPoint0 */
PUSHW[ ]	/* 2 values pushed */
31 6 
MIRP[11100]	/* MoveIndirectRelPt */
NPUSHW[ ]	/* 5 values pushed */
106 31 122 31 2 
DELTAP1[ ]	/* DeltaExceptionP1 */
NPUSHW[ ]	/* 13 values pushed */
9 31 25 31 41 31 57 31 73 31 89 31 6 
DELTAP1[ ]	/* DeltaExceptionP1 */
PUSHW[ ]	/* 1 value pushed */
21 
SRP0[ ]	/* SetRefPoint0 */
PUSHW[ ]	/* 2 values pushed */
37 6 
MIRP[11100]	/* MoveIndirectRelPt */
NPUSHW[ ]	/* 13 values pushed */
6 37 22 37 38 37 54 37 70 37 86 37 6 
DELTAP1[ ]	/* DeltaExceptionP1 */
NPUSHW[ ]	/* 5 values pushed */
101 37 117 37 2 
DELTAP1[ ]	/* DeltaExceptionP1 */
SVTCA[0]	/* SetFreedomAndProjectionVectorToAxis */
PUSHW[ ]	/* 1 value pushed */
0 
RCVT[ ]	/* ReadCVT */
IF[ ]	/* If */
PUSHW[ ]	/* 1 value pushed */
14 
MDAP[1]	/* MoveDirectAbsPt */
ELSE[ ]	/* Else */
PUSHW[ ]	/* 2 values pushed */
14 14 
MIAP[0]	/* MoveIndirectAbsPt */
EIF[ ]	/* EndIf */
PUSHW[ ]	/* 1 value pushed */
0 
RCVT[ ]	/* ReadCVT */
IF[ ]	/* If */
PUSHW[ ]	/* 1 value pushed */
26 
MDAP[1]	/* MoveDirectAbsPt */
ELSE[ ]	/* Else */
PUSHW[ ]	/* 2 values pushed */
26 8 
MIAP[0]	/* MoveIndirectAbsPt */
EIF[ ]	/* EndIf */
PUSHW[ ]	/* 3 values pushed */
8 26 14 
SRP1[ ]	/* SetRefPoint1 */
SRP2[ ]	/* SetRefPoint2 */
IP[ ]	/* InterpolatePts */
IUP[0]	/* InterpolateUntPts */
IUP[1]	/* InterpolateUntPts */";
};
width = 512;
}
);
note = six;
unicode = 0036;
},
{
glyphname = seven;
lastChange = "2019-03-14 18:39:42 +0000";
layers = (
{
layerId = "6873DD1C-7BCD-4DE2-A211-237E2294755D";
paths = (
{
closed = 1;
nodes = (
"445.248 440.913 OFFCURVE",
"382.311 286.278 OFFCURVE",
"355 218 CURVE SMOOTH",
"324.599 141.999 OFFCURVE",
"266.351 0.024 OFFCURVE",
"232 -88 CURVE SMOOTH",
"210.667 -142.667 OFFCURVE",
"190 -196 OFFCURVE",
"170 -248 CURVE",
"103 -245 LINE",
"121.902 -207.196 OFFCURVE",
"198.072 -53.855 OFFCURVE",
"230 10.5 CURVE SMOOTH",
"272.667 96.5 OFFCURVE",
"316.167 187.667 OFFCURVE",
"355.5 273 CURVE SMOOTH",
"375.167 315.667 OFFCURVE",
"392 354 OFFCURVE",
"406 388 CURVE",
"135 388 LINE SMOOTH",
"58.886 388 OFFCURVE",
"34.345 345.027 OFFCURVE",
"16 301 CURVE",
"4 305 LINE",
"69 473 LINE",
"459 473 LINE"
);
}
);
userData = {
assembly = "SVTCA[0]	/* SetFreedomAndProjectionVectorToAxis */
PUSHW[ ]	/* 1 value pushed */
0 
RCVT[ ]	/* ReadCVT */
IF[ ]	/* If */
PUSHW[ ]	/* 1 value pushed */
0 
MDAP[1]	/* MoveDirectAbsPt */
ELSE[ ]	/* Else */
PUSHW[ ]	/* 2 values pushed */
0 12 
MIAP[0]	/* MoveIndirectAbsPt */
EIF[ ]	/* EndIf */
PUSHW[ ]	/* 1 value pushed */
0 
RCVT[ ]	/* ReadCVT */
IF[ ]	/* If */
PUSHW[ ]	/* 1 value pushed */
17 
MDAP[1]	/* MoveDirectAbsPt */
ELSE[ ]	/* Else */
PUSHW[ ]	/* 2 values pushed */
17 10 
MIAP[0]	/* MoveIndirectAbsPt */
EIF[ ]	/* EndIf */
PUSHW[ ]	/* 1 value pushed */
0 
SRP0[ ]	/* SetRefPoint0 */
PUSHW[ ]	/* 2 values pushed */
8 4 
MIRP[11100]	/* MoveIndirectRelPt */
PUSHW[ ]	/* 3 values pushed */
16 17 0 
SRP1[ ]	/* SetRefPoint1 */
SRP2[ ]	/* SetRefPoint2 */
IP[ ]	/* InterpolatePts */
IUP[0]	/* InterpolateUntPts */
IUP[1]	/* InterpolateUntPts */";
};
width = 444;
}
);
note = seven;
unicode = 0037;
},
{
glyphname = eight;
lastChange = "2019-03-14 18:39:42 +0000";
layers = (
{
layerId = "6873DD1C-7BCD-4DE2-A211-237E2294755D";
paths = (
{
closed = 1;
nodes = (
"453 75.514 OFFCURVE",
"353.685 -4 OFFCURVE",
"234 -4 CURVE SMOOTH",
"136.514 -4 OFFCURVE",
"36 57.629 OFFCURVE",
"36 158 CURVE SMOOTH",
"36 239.262 OFFCURVE",
"111.762 294.598 OFFCURVE",
"180 341 CURVE",
"107.758 391.014 OFFCURVE",
"44 446.974 OFFCURVE",
"44 540 CURVE SMOOTH",
"44 643.876 OFFCURVE",
"141.572 727 OFFCURVE",
"243 727 CURVE SMOOTH",
"359.513 727 OFFCURVE",
"443 662.17 OFFCURVE",
"443 571 CURVE SMOOTH",
"443 490.475 OFFCURVE",
"368.714 435.616 OFFCURVE",
"292 388 CURVE",
"358.621 349.931 OFFCURVE",
"453 296.109 OFFCURVE",
"453 193 CURVE SMOOTH"
);
},
{
closed = 1;
nodes = (
"375 649.045 OFFCURVE",
"326.858 710 OFFCURVE",
"245 710 CURVE SMOOTH",
"175.62 710 OFFCURVE",
"117 664.604 OFFCURVE",
"117 591 CURVE SMOOTH",
"117 490.018 OFFCURVE",
"202.289 439.415 OFFCURVE",
"275 397 CURVE",
"343 435.667 OFFCURVE",
"375 491 OFFCURVE",
"375 571 CURVE SMOOTH"
);
},
{
closed = 1;
nodes = (
"371 230.225 OFFCURVE",
"297.042 285.48 OFFCURVE",
"197 333 CURVE",
"139.424 300.457 OFFCURVE",
"108 220.014 OFFCURVE",
"108 163 CURVE SMOOTH",
"108 67 OFFCURVE",
"167.333 11 OFFCURVE",
"250 11 CURVE SMOOTH",
"332.84 11 OFFCURVE",
"371 70.423 OFFCURVE",
"371 138 CURVE SMOOTH"
);
}
);
userData = {
assembly = "PUSHW[ ]	/* 4 values pushed */
66 5 30 4 
CALL[ ]	/* CallFunction */
PUSHW[ ]	/* 1 value pushed */
66 
SRP0[ ]	/* SetRefPoint0 */
PUSHW[ ]	/* 4 values pushed */
10 5 40 4 
CALL[ ]	/* CallFunction */
PUSHW[ ]	/* 1 value pushed */
10 
SRP0[ ]	/* SetRefPoint0 */
NPUSHW[ ]	/* 5 values pushed */
106 40 122 40 2 
DELTAP1[ ]	/* DeltaExceptionP1 */
NPUSHW[ ]	/* 13 values pushed */
9 40 25 40 41 40 57 40 73 40 89 40 6 
DELTAP1[ ]	/* DeltaExceptionP1 */
PUSHW[ ]	/* 1 value pushed */
40 
SRP0[ ]	/* SetRefPoint0 */
PUSHW[ ]	/* 2 values pushed */
0 5 
MIRP[11100]	/* MoveIndirectRelPt */
PUSHW[ ]	/* 3 values pushed */
5 30 0 
SRP1[ ]	/* SetRefPoint1 */
SRP2[ ]	/* SetRefPoint2 */
IP[ ]	/* InterpolatePts */
NPUSHW[ ]	/* 13 values pushed */
6 66 22 66 38 66 54 66 70 66 86 66 6 
DELTAP1[ ]	/* DeltaExceptionP1 */
NPUSHW[ ]	/* 5 values pushed */
101 66 117 66 2 
DELTAP1[ ]	/* DeltaExceptionP1 */
PUSHW[ ]	/* 3 values pushed */
20 30 66 
SRP1[ ]	/* SetRefPoint1 */
SRP2[ ]	/* SetRefPoint2 */
IP[ ]	/* InterpolatePts */
PUSHW[ ]	/* 1 value pushed */
20 
MDAP[1]	/* MoveDirectAbsPt */
PUSHW[ ]	/* 3 values pushed */
25 30 0 
SRP1[ ]	/* SetRefPoint1 */
SRP2[ ]	/* SetRefPoint2 */
IP[ ]	/* InterpolatePts */
PUSHW[ ]	/* 2 values pushed */
48 5 
MIRP[11100]	/* MoveIndirectRelPt */
PUSHW[ ]	/* 1 value pushed */
40 
SRP0[ ]	/* SetRefPoint0 */
PUSHW[ ]	/* 1 value pushed */
58 
MDRP[10000]	/* MoveDirectRelPt */
PUSHW[ ]	/* 1 value pushed */
58 
MDAP[1]	/* MoveDirectAbsPt */
PUSHW[ ]	/* 1 value pushed */
10 
SRP0[ ]	/* SetRefPoint0 */
PUSHW[ ]	/* 1 value pushed */
77 
MDRP[11100]	/* MoveDirectRelPt */
SVTCA[0]	/* SetFreedomAndProjectionVectorToAxis */
PUSHW[ ]	/* 1 value pushed */
0 
RCVT[ ]	/* ReadCVT */
IF[ ]	/* If */
PUSHW[ ]	/* 1 value pushed */
15 
MDAP[1]	/* MoveDirectAbsPt */
ELSE[ ]	/* Else */
PUSHW[ ]	/* 2 values pushed */
15 14 
MIAP[0]	/* MoveIndirectAbsPt */
EIF[ ]	/* EndIf */
PUSHW[ ]	/* 1 value pushed */
0 
RCVT[ ]	/* ReadCVT */
IF[ ]	/* If */
PUSHW[ ]	/* 1 value pushed */
35 
MDAP[1]	/* MoveDirectAbsPt */
ELSE[ ]	/* Else */
PUSHW[ ]	/* 2 values pushed */
35 8 
MIAP[0]	/* MoveIndirectAbsPt */
EIF[ ]	/* EndIf */
PUSHW[ ]	/* 3 values pushed */
5 35 15 
SRP1[ ]	/* SetRefPoint1 */
SRP2[ ]	/* SetRefPoint2 */
IP[ ]	/* InterpolatePts */
PUSHW[ ]	/* 3 values pushed */
25 35 15 
SRP1[ ]	/* SetRefPoint1 */
SRP2[ ]	/* SetRefPoint2 */
IP[ ]	/* InterpolatePts */
IUP[0]	/* InterpolateUntPts */
IUP[1]	/* InterpolateUntPts */";
};
width = 486;
}
);
note = eight;
unicode = 0038;
},
{
glyphname = nine;
lastChange = "2019-03-14 18:39:42 +0000";
layers = (
{
layerId = "6873DD1C-7BCD-4DE2-A211-237E2294755D";
paths = (
{
closed = 1;
nodes = (
"486 107 OFFCURVE",
"426.167 -1.833 OFFCURVE",
"341.5 -86.5 CURVE SMOOTH",
"256.833 -171.167 OFFCURVE",
"148.333 -231.667 OFFCURVE",
"51 -257 CURVE",
"45 -242 LINE",
"169.369 -188.699 OFFCURVE",
"263.51 -106.786 OFFCURVE",
"332 46 CURVE",
"302.667 34 OFFCURVE",
"276.667 31 OFFCURVE",
"246 31 CURVE SMOOTH",
"111.467 31 OFFCURVE",
"26 124.851 OFFCURVE",
"26 250 CURVE SMOOTH",
"26 375.293 OFFCURVE",
"126.7 483 OFFCURVE",
"254 483 CURVE SMOOTH",
"384.762 483 OFFCURVE",
"486 365.355 OFFCURVE",
"486 231 CURVE SMOOTH"
);
},
{
closed = 1;
nodes = (
"393 362.684 OFFCURVE",
"349.686 467 OFFCURVE",
"254 467 CURVE SMOOTH",
"168.667 467 OFFCURVE",
"113 404 OFFCURVE",
"113 296 CURVE SMOOTH",
"113 184.949 OFFCURVE",
"165.582 52 OFFCURVE",
"273 52 CURVE SMOOTH",
"301 52 OFFCURVE",
"324 57 OFFCURVE",
"340 77 CURVE SMOOTH",
"382.667 131.667 OFFCURVE",
"393 193 OFFCURVE",
"393 261 CURVE SMOOTH"
);
}
);
userData = {
assembly = "PUSHW[ ]	/* 1 value pushed */
48 
MDAP[1]	/* MoveDirectAbsPt */
PUSHW[ ]	/* 1 value pushed */
49 
MDAP[1]	/* MoveDirectAbsPt */
PUSHW[ ]	/* 1 value pushed */
0 
MDRP[11100]	/* MoveDirectRelPt */
PUSHW[ ]	/* 1 value pushed */
48 
SRP0[ ]	/* SetRefPoint0 */
PUSHW[ ]	/* 1 value pushed */
10 
MDRP[10000]	/* MoveDirectRelPt */
PUSHW[ ]	/* 1 value pushed */
10 
MDAP[1]	/* MoveDirectAbsPt */
PUSHW[ ]	/* 3 values pushed */
18 10 0 
SRP1[ ]	/* SetRefPoint1 */
SRP2[ ]	/* SetRefPoint2 */
IP[ ]	/* InterpolatePts */
PUSHW[ ]	/* 1 value pushed */
0 
SRP0[ ]	/* SetRefPoint0 */
PUSHW[ ]	/* 2 values pushed */
29 6 
MIRP[11100]	/* MoveIndirectRelPt */
NPUSHW[ ]	/* 5 values pushed */
106 29 122 29 2 
DELTAP1[ ]	/* DeltaExceptionP1 */
NPUSHW[ ]	/* 13 values pushed */
9 29 25 29 41 29 57 29 73 29 89 29 6 
DELTAP1[ ]	/* DeltaExceptionP1 */
PUSHW[ ]	/* 1 value pushed */
10 
SRP0[ ]	/* SetRefPoint0 */
PUSHW[ ]	/* 2 values pushed */
40 6 
MIRP[11100]	/* MoveIndirectRelPt */
NPUSHW[ ]	/* 13 values pushed */
6 40 22 40 38 40 54 40 70 40 86 40 6 
DELTAP1[ ]	/* DeltaExceptionP1 */
NPUSHW[ ]	/* 5 values pushed */
101 40 117 40 2 
DELTAP1[ ]	/* DeltaExceptionP1 */
SVTCA[0]	/* SetFreedomAndProjectionVectorToAxis */
PUSHW[ ]	/* 1 value pushed */
24 
MDAP[1]	/* MoveDirectAbsPt */
PUSHW[ ]	/* 1 value pushed */
0 
RCVT[ ]	/* ReadCVT */
IF[ ]	/* If */
PUSHW[ ]	/* 1 value pushed */
5 
MDAP[1]	/* MoveDirectAbsPt */
ELSE[ ]	/* Else */
PUSHW[ ]	/* 2 values pushed */
5 12 
MIAP[0]	/* MoveIndirectAbsPt */
EIF[ ]	/* EndIf */
PUSHW[ ]	/* 4 values pushed */
35 1 15 4 
CALL[ ]	/* CallFunction */
PUSHW[ ]	/* 1 value pushed */
35 
SRP0[ ]	/* SetRefPoint0 */
PUSHW[ ]	/* 3 values pushed */
18 15 35 
SRP1[ ]	/* SetRefPoint1 */
SRP2[ ]	/* SetRefPoint2 */
IP[ ]	/* InterpolatePts */
IUP[0]	/* InterpolateUntPts */
IUP[1]	/* InterpolateUntPts */";
};
width = 512;
}
);
note = nine;
unicode = 0039;
},
{
glyphname = colon;
lastChange = "2019-03-14 18:39:42 +0000";
layers = (
{
layerId = "6873DD1C-7BCD-4DE2-A211-237E2294755D";
paths = (
{
closed = 1;
nodes = (
"192 330.667 OFFCURVE",
"164.667 307 OFFCURVE",
"134 307 CURVE SMOOTH",
"103.333 307 OFFCURVE",
"75 329.333 OFFCURVE",
"75 364 CURVE SMOOTH",
"75 398.667 OFFCURVE",
"103.333 421 OFFCURVE",
"134 421 CURVE SMOOTH",
"164.667 421 OFFCURVE",
"192 394.667 OFFCURVE",
"192 364 CURVE SMOOTH"
);
},
{
closed = 1;
nodes = (
"192 20.667 OFFCURVE",
"164.667 -1 OFFCURVE",
"134 -1 CURVE SMOOTH",
"103.333 -1 OFFCURVE",
"75 18 OFFCURVE",
"75 54 CURVE SMOOTH",
"75 88.667 OFFCURVE",
"103.333 111 OFFCURVE",
"134 111 CURVE SMOOTH",
"164.667 111 OFFCURVE",
"192 84.667 OFFCURVE",
"192 54 CURVE SMOOTH"
);
}
);
userData = {
assembly = "PUSHW[ ]	/* 4 values pushed */
0 7 6 4 
CALL[ ]	/* CallFunction */
NPUSHW[ ]	/* 5 values pushed */
106 6 122 6 2 
DELTAP1[ ]	/* DeltaExceptionP1 */
NPUSHW[ ]	/* 13 values pushed */
9 6 25 6 41 6 57 6 73 6 89 6 6 
DELTAP1[ ]	/* DeltaExceptionP1 */
PUSHW[ ]	/* 1 value pushed */
12 
MDRP[10000]	/* MoveDirectRelPt */
PUSHW[ ]	/* 1 value pushed */
6 
SRP0[ ]	/* SetRefPoint0 */
PUSHW[ ]	/* 1 value pushed */
18 
MDRP[10000]	/* MoveDirectRelPt */
SVTCA[0]	/* SetFreedomAndProjectionVectorToAxis */
PUSHW[ ]	/* 1 value pushed */
0 
RCVT[ ]	/* ReadCVT */
IF[ ]	/* If */
PUSHW[ ]	/* 1 value pushed */
21 
MDAP[1]	/* MoveDirectAbsPt */
ELSE[ ]	/* Else */
PUSHW[ ]	/* 2 values pushed */
21 8 
MIAP[0]	/* MoveIndirectAbsPt */
EIF[ ]	/* EndIf */
PUSHW[ ]	/* 4 values pushed */
3 4 9 4 
CALL[ ]	/* CallFunction */
PUSHW[ ]	/* 1 value pushed */
3 
SRP0[ ]	/* SetRefPoint0 */
PUSHW[ ]	/* 1 value pushed */
21 
SRP0[ ]	/* SetRefPoint0 */
PUSHW[ ]	/* 2 values pushed */
15 4 
MIRP[11100]	/* MoveIndirectRelPt */
NPUSHW[ ]	/* 13 values pushed */
7 15 23 15 39 15 55 15 71 15 87 15 6 
DELTAP1[ ]	/* DeltaExceptionP1 */
NPUSHW[ ]	/* 5 values pushed */
102 15 118 15 2 
DELTAP1[ ]	/* DeltaExceptionP1 */
IUP[0]	/* InterpolateUntPts */
IUP[1]	/* InterpolateUntPts */";
};
width = 263;
}
);
note = colon;
unicode = 003A;
},
{
glyphname = semicolon;
lastChange = "2019-03-14 18:39:42 +0000";
layers = (
{
layerId = "6873DD1C-7BCD-4DE2-A211-237E2294755D";
paths = (
{
closed = 1;
nodes = (
"174 218 OFFCURVE",
"148.667 195 OFFCURVE",
"118 195 CURVE SMOOTH",
"87.333 195 OFFCURVE",
"61 215.333 OFFCURVE",
"61 250 CURVE SMOOTH",
"61 283.333 OFFCURVE",
"87.333 305 OFFCURVE",
"118 305 CURVE SMOOTH",
"148.667 305 OFFCURVE",
"174 280.667 OFFCURVE",
"174 250 CURVE SMOOTH"
);
},
{
closed = 1;
nodes = (
"201 -67.379 OFFCURVE",
"137.266 -135.412 OFFCURVE",
"73 -141 CURVE",
"70 -131 LINE",
"127.333 -120.333 OFFCURVE",
"168 -71.333 OFFCURVE",
"168 -14 CURVE SMOOTH",
"168 4.667 OFFCURVE",
"165.333 17.667 OFFCURVE",
"152 23 CURVE",
"144 3 OFFCURVE",
"125.333 -5 OFFCURVE",
"108 -5 CURVE SMOOTH",
"78.667 -5 OFFCURVE",
"60 17.333 OFFCURVE",
"60 44 CURVE SMOOTH",
"60 74.667 OFFCURVE",
"88.333 99 OFFCURVE",
"119 99 CURVE SMOOTH",
"162.244 99 OFFCURVE",
"201 57.695 OFFCURVE",
"201 8 CURVE SMOOTH"
);
}
);
userData = {
assembly = "PUSHW[ ]	/* 4 values pushed */
0 7 6 4 
CALL[ ]	/* CallFunction */
NPUSHW[ ]	/* 13 values pushed */
6 0 22 0 38 0 54 0 70 0 86 0 6 
DELTAP1[ ]	/* DeltaExceptionP1 */
NPUSHW[ ]	/* 5 values pushed */
101 0 117 0 2 
DELTAP1[ ]	/* DeltaExceptionP1 */
PUSHW[ ]	/* 1 value pushed */
12 
MDRP[11100]	/* MoveDirectRelPt */
PUSHW[ ]	/* 1 value pushed */
6 
SRP0[ ]	/* SetRefPoint0 */
PUSHW[ ]	/* 1 value pushed */
20 
MDRP[10000]	/* MoveDirectRelPt */
PUSHW[ ]	/* 1 value pushed */
20 
MDAP[1]	/* MoveDirectAbsPt */
PUSHW[ ]	/* 1 value pushed */
0 
SRP0[ ]	/* SetRefPoint0 */
PUSHW[ ]	/* 1 value pushed */
29 
MDRP[10000]	/* MoveDirectRelPt */
PUSHW[ ]	/* 1 value pushed */
29 
MDAP[1]	/* MoveDirectAbsPt */
SVTCA[0]	/* SetFreedomAndProjectionVectorToAxis */
PUSHW[ ]	/* 1 value pushed */
33 
MDAP[1]	/* MoveDirectAbsPt */
PUSHW[ ]	/* 4 values pushed */
3 4 9 4 
CALL[ ]	/* CallFunction */
PUSHW[ ]	/* 1 value pushed */
3 
SRP0[ ]	/* SetRefPoint0 */
IUP[0]	/* InterpolateUntPts */
IUP[1]	/* InterpolateUntPts */";
};
width = 263;
}
);
note = semicolon;
unicode = 003B;
},
{
glyphname = less;
lastChange = "2019-03-14 18:39:42 +0000";
layers = (
{
layerId = "6873DD1C-7BCD-4DE2-A211-237E2294755D";
paths = (
{
closed = 1;
nodes = (
"606 490 LINE",
"175 273 LINE",
"606 61 LINE",
"606 0 LINE",
"61 273 LINE",
"606 545 LINE"
);
}
);
userData = {
assembly = "SVTCA[0]	/* SetFreedomAndProjectionVectorToAxis */
PUSHW[ ]	/* 1 value pushed */
0 
MDAP[1]	/* MoveDirectAbsPt */
PUSHW[ ]	/* 1 value pushed */
0 
RCVT[ ]	/* ReadCVT */
IF[ ]	/* If */
PUSHW[ ]	/* 1 value pushed */
2 
MDAP[1]	/* MoveDirectAbsPt */
ELSE[ ]	/* Else */
PUSHW[ ]	/* 2 values pushed */
2 8 
MIAP[0]	/* MoveIndirectAbsPt */
EIF[ ]	/* EndIf */
PUSHW[ ]	/* 3 values pushed */
1 2 0 
SRP1[ ]	/* SetRefPoint1 */
SRP2[ ]	/* SetRefPoint2 */
IP[ ]	/* InterpolatePts */
PUSHW[ ]	/* 3 values pushed */
4 2 0 
SRP1[ ]	/* SetRefPoint1 */
SRP2[ ]	/* SetRefPoint2 */
IP[ ]	/* InterpolatePts */
IUP[0]	/* InterpolateUntPts */
IUP[1]	/* InterpolateUntPts */";
};
width = 667;
}
);
note = less;
unicode = 003C;
},
{
glyphname = equal;
lastChange = "2019-03-14 18:39:42 +0000";
layers = (
{
layerId = "6873DD1C-7BCD-4DE2-A211-237E2294755D";
paths = (
{
closed = 1;
nodes = (
"145 300 LINE",
"145 339 LINE",
"555 339 LINE",
"555 300 LINE"
);
},
{
closed = 1;
nodes = (
"145 186 LINE",
"145 225 LINE",
"555 225 LINE",
"555 186 LINE"
);
}
);
userData = {
assembly = "SVTCA[0]	/* SetFreedomAndProjectionVectorToAxis */
PUSHW[ ]	/* 4 values pushed */
5 3 4 4 
CALL[ ]	/* CallFunction */
PUSHW[ ]	/* 1 value pushed */
5 
SRP0[ ]	/* SetRefPoint0 */
PUSHW[ ]	/* 4 values pushed */
1 3 0 4 
CALL[ ]	/* CallFunction */
PUSHW[ ]	/* 1 value pushed */
1 
SRP0[ ]	/* SetRefPoint0 */
IUP[0]	/* InterpolateUntPts */
IUP[1]	/* InterpolateUntPts */";
};
width = 700;
}
);
note = equal;
unicode = 003D;
},
{
glyphname = greater;
lastChange = "2019-03-14 18:39:42 +0000";
layers = (
{
layerId = "6873DD1C-7BCD-4DE2-A211-237E2294755D";
paths = (
{
closed = 1;
nodes = (
"61 56 LINE",
"492 273 LINE",
"61 484 LINE",
"61 545 LINE",
"606 273 LINE",
"61 0 LINE"
);
}
);
userData = {
assembly = "SVTCA[0]	/* SetFreedomAndProjectionVectorToAxis */
PUSHW[ ]	/* 1 value pushed */
2 
MDAP[1]	/* MoveDirectAbsPt */
PUSHW[ ]	/* 1 value pushed */
0 
RCVT[ ]	/* ReadCVT */
IF[ ]	/* If */
PUSHW[ ]	/* 1 value pushed */
0 
MDAP[1]	/* MoveDirectAbsPt */
ELSE[ ]	/* Else */
PUSHW[ ]	/* 2 values pushed */
0 8 
MIAP[0]	/* MoveIndirectAbsPt */
EIF[ ]	/* EndIf */
PUSHW[ ]	/* 3 values pushed */
1 0 2 
SRP1[ ]	/* SetRefPoint1 */
SRP2[ ]	/* SetRefPoint2 */
IP[ ]	/* InterpolatePts */
PUSHW[ ]	/* 3 values pushed */
4 0 2 
SRP1[ ]	/* SetRefPoint1 */
SRP2[ ]	/* SetRefPoint2 */
IP[ ]	/* InterpolatePts */
IUP[0]	/* InterpolateUntPts */
IUP[1]	/* InterpolateUntPts */";
};
width = 667;
}
);
note = greater;
unicode = 003E;
},
{
glyphname = question;
lastChange = "2019-03-14 18:39:42 +0000";
layers = (
{
layerId = "6873DD1C-7BCD-4DE2-A211-237E2294755D";
paths = (
{
closed = 1;
nodes = (
"311 403.912 OFFCURVE",
"304.376 324.738 OFFCURVE",
"278 301 CURVE SMOOTH",
"251.333 275.667 OFFCURVE",
"209 264 OFFCURVE",
"129 248 CURVE",
"129 167 LINE",
"111 167 LINE",
"111 342 LINE",
"128.333 345.333 OFFCURVE",
"145.5 348.5 OFFCURVE",
"162.5 351.5 CURVE SMOOTH",
"179.5 354.5 OFFCURVE",
"196 358.667 OFFCURVE",
"212 364 CURVE SMOOTH",
"268.556 380.967 OFFCURVE",
"291 407.486 OFFCURVE",
"291 470 CURVE SMOOTH",
"291 551.428 OFFCURVE",
"233.997 571 OFFCURVE",
"166 571 CURVE SMOOTH",
"156.667 571 OFFCURVE",
"132.667 569.667 OFFCURVE",
"110 567 CURVE",
"110 723 LINE",
"127 723 LINE",
"127 674 LINE",
"187 674 OFFCURVE",
"222.333 666.333 OFFCURVE",
"257 633 CURVE",
"303.869 591.339 OFFCURVE",
"311 505.734 OFFCURVE",
"311 447 CURVE SMOOTH"
);
},
{
closed = 1;
nodes = (
"192 20.333 OFFCURVE",
"167.667 0 OFFCURVE",
"133 0 CURVE SMOOTH",
"98.333 0 OFFCURVE",
"73 22.333 OFFCURVE",
"73 57 CURVE SMOOTH",
"73 91.667 OFFCURVE",
"98.333 118 OFFCURVE",
"133 118 CURVE SMOOTH",
"167.667 118 OFFCURVE",
"192 89.667 OFFCURVE",
"192 55 CURVE SMOOTH"
);
}
);
userData = {
assembly = "PUSHW[ ]	/* 4 values pushed */
38 7 44 4 
CALL[ ]	/* CallFunction */
PUSHW[ ]	/* 1 value pushed */
38 
SRP0[ ]	/* SetRefPoint0 */
PUSHW[ ]	/* 3 values pushed */
0 19 3 
CALL[ ]	/* CallFunction */
PUSHW[ ]	/* 1 value pushed */
0 
SRP0[ ]	/* SetRefPoint0 */
NPUSHW[ ]	/* 5 values pushed */
218 19 234 19 2 
DELTAP1[ ]	/* DeltaExceptionP1 */
NPUSHW[ ]	/* 27 values pushed */
9 19 25 19 41 19 57 19 73 19 89 19 105 19 121 19 137 19 153 19 169 19 185 19 201 19 13 
DELTAP1[ ]	/* DeltaExceptionP1 */
NPUSHW[ ]	/* 13 values pushed */
6 38 22 38 38 38 54 38 70 38 86 38 6 
DELTAP1[ ]	/* DeltaExceptionP1 */
NPUSHW[ ]	/* 5 values pushed */
101 38 117 38 2 
DELTAP1[ ]	/* DeltaExceptionP1 */
SVTCA[0]	/* SetFreedomAndProjectionVectorToAxis */
PUSHW[ ]	/* 1 value pushed */
0 
RCVT[ ]	/* ReadCVT */
IF[ ]	/* If */
PUSHW[ ]	/* 1 value pushed */
9 
MDAP[1]	/* MoveDirectAbsPt */
ELSE[ ]	/* Else */
PUSHW[ ]	/* 2 values pushed */
9 14 
MIAP[0]	/* MoveIndirectAbsPt */
EIF[ ]	/* EndIf */
PUSHW[ ]	/* 1 value pushed */
0 
RCVT[ ]	/* ReadCVT */
IF[ ]	/* If */
PUSHW[ ]	/* 1 value pushed */
47 
MDAP[1]	/* MoveDirectAbsPt */
ELSE[ ]	/* Else */
PUSHW[ ]	/* 2 values pushed */
47 8 
MIAP[0]	/* MoveIndirectAbsPt */
EIF[ ]	/* EndIf */
PUSHW[ ]	/* 4 values pushed */
8 4 14 4 
CALL[ ]	/* CallFunction */
PUSHW[ ]	/* 1 value pushed */
8 
SRP0[ ]	/* SetRefPoint0 */
PUSHW[ ]	/* 1 value pushed */
47 
SRP0[ ]	/* SetRefPoint0 */
PUSHW[ ]	/* 2 values pushed */
41 4 
MIRP[11100]	/* MoveIndirectRelPt */
NPUSHW[ ]	/* 13 values pushed */
7 41 23 41 39 41 55 41 71 41 87 41 6 
DELTAP1[ ]	/* DeltaExceptionP1 */
NPUSHW[ ]	/* 5 values pushed */
102 41 118 41 2 
DELTAP1[ ]	/* DeltaExceptionP1 */
IUP[0]	/* InterpolateUntPts */
IUP[1]	/* InterpolateUntPts */";
};
width = 383;
}
);
note = question;
unicode = 003F;
},
{
glyphname = at;
lastChange = "2019-03-14 18:39:42 +0000";
layers = (
{
layerId = "6873DD1C-7BCD-4DE2-A211-237E2294755D";
paths = (
{
closed = 1;
nodes = (
"825 251.667 OFFCURVE",
"792.667 171.5 OFFCURVE",
"738 113.5 CURVE SMOOTH",
"683.333 55.5 OFFCURVE",
"606.667 18 OFFCURVE",
"516 18 CURVE SMOOTH",
"487.333 18 OFFCURVE",
"462.333 23.667 OFFCURVE",
"441 35 CURVE",
"512 199 LINE",
"506 201 LINE",
"441.151 123.181 OFFCURVE",
"337.695 20 OFFCURVE",
"251 20 CURVE SMOOTH",
"212.333 20 OFFCURVE",
"202 43.333 OFFCURVE",
"202 70 CURVE SMOOTH",
"202 116.667 OFFCURVE",
"227.333 176.5 OFFCURVE",
"266 234.5 CURVE SMOOTH",
"285.333 263.5 OFFCURVE",
"307.333 291.667 OFFCURVE",
"332 319 CURVE SMOOTH",
"381.333 373.667 OFFCURVE",
"433.667 417.667 OFFCURVE",
"483 443 CURVE SMOOTH",
"507.667 455.667 OFFCURVE",
"529.667 462 OFFCURVE",
"549 462 CURVE SMOOTH",
"571.667 462 OFFCURVE",
"589.667 448 OFFCURVE",
"603 432 CURVE",
"628 467 LINE",
"687 467 LINE",
"517 59 LINE",
"522.333 58.333 OFFCURVE",
"527.167 57.667 OFFCURVE",
"531.5 57 CURVE SMOOTH",
"535.833 56.333 OFFCURVE",
"540.667 56 OFFCURVE",
"546 56 CURVE SMOOTH",
"701.105 56 OFFCURVE",
"804 191.678 OFFCURVE",
"804 341 CURVE SMOOTH",
"804 496.155 OFFCURVE",
"681.174 599 OFFCURVE",
"521 599 CURVE SMOOTH",
"401 599 OFFCURVE",
"296.5 542 OFFCURVE",
"222.5 458 CURVE SMOOTH",
"148.5 374 OFFCURVE",
"104 261 OFFCURVE",
"104 149 CURVE SMOOTH",
"104 53 OFFCURVE",
"137.5 -22.667 OFFCURVE",
"195.5 -76 CURVE SMOOTH",
"253.5 -129.333 OFFCURVE",
"334.667 -159 OFFCURVE",
"428 -159 CURVE SMOOTH",
"544 -159 OFFCURVE",
"628.667 -118.667 OFFCURVE",
"714 -48 CURVE",
"722 -57 LINE",
"638.667 -137 OFFCURVE",
"535 -177 OFFCURVE",
"411 -177 CURVE SMOOTH",
"304.333 -177 OFFCURVE",
"214.667 -141.167 OFFCURVE",
"152 -80.5 CURVE SMOOTH",
"89.333 -19.833 OFFCURVE",
"54 64.667 OFFCURVE",
"54 166 CURVE SMOOTH",
"54 290 OFFCURVE",
"104.667 405.333 OFFCURVE",
"186 488 CURVE SMOOTH",
"267.333 570.667 OFFCURVE",
"379 623 OFFCURVE",
"503 623 CURVE SMOOTH",
"592.333 623 OFFCURVE",
"672.5 594.5 OFFCURVE",
"730.5 544.5 CURVE SMOOTH",
"788.5 494.5 OFFCURVE",
"825 422.333 OFFCURVE",
"825 337 CURVE SMOOTH"
);
},
{
closed = 1;
nodes = (
"570 414.333 OFFCURVE",
"555.333 442 OFFCURVE",
"526 442 CURVE SMOOTH",
"488.959 442 OFFCURVE",
"415.101 365.29 OFFCURVE",
"377.5 313.5 CURVE SMOOTH",
"339.903 261.715 OFFCURVE",
"283 154.349 OFFCURVE",
"283 104 CURVE SMOOTH",
"283 84 OFFCURVE",
"295 67 OFFCURVE",
"319 67 CURVE SMOOTH",
"354.322 67 OFFCURVE",
"430.104 134.98 OFFCURVE",
"470 182 CURVE SMOOTH",
"510.108 229.27 OFFCURVE",
"570 333.946 OFFCURVE",
"570 389 CURVE SMOOTH"
);
}
);
userData = {
assembly = "PUSHW[ ]	/* 4 values pushed */
26 5 10 4 
CALL[ ]	/* CallFunction */
PUSHW[ ]	/* 1 value pushed */
26 
SRP0[ ]	/* SetRefPoint0 */
PUSHW[ ]	/* 4 values pushed */
84 5 57 4 
CALL[ ]	/* CallFunction */
PUSHW[ ]	/* 1 value pushed */
84 
SRP0[ ]	/* SetRefPoint0 */
PUSHW[ ]	/* 3 values pushed */
0 36 3 
CALL[ ]	/* CallFunction */
PUSHW[ ]	/* 1 value pushed */
0 
SRP0[ ]	/* SetRefPoint0 */
NPUSHW[ ]	/* 13 values pushed */
6 26 22 26 38 26 54 26 70 26 86 26 6 
DELTAP1[ ]	/* DeltaExceptionP1 */
NPUSHW[ ]	/* 5 values pushed */
101 26 117 26 2 
DELTAP1[ ]	/* DeltaExceptionP1 */
NPUSHW[ ]	/* 5 values pushed */
218 36 234 36 2 
DELTAP1[ ]	/* DeltaExceptionP1 */
NPUSHW[ ]	/* 27 values pushed */
9 36 25 36 41 36 57 36 73 36 89 36 105 36 121 36 137 36 153 36 169 36 185 36 201 36 13 
DELTAP1[ ]	/* DeltaExceptionP1 */
PUSHW[ ]	/* 3 values pushed */
44 10 0 
SRP1[ ]	/* SetRefPoint1 */
SRP2[ ]	/* SetRefPoint2 */
IP[ ]	/* InterpolatePts */
PUSHW[ ]	/* 3 values pushed */
45 10 0 
SRP1[ ]	/* SetRefPoint1 */
SRP2[ ]	/* SetRefPoint2 */
IP[ ]	/* InterpolatePts */
PUSHW[ ]	/* 3 values pushed */
47 10 0 
SRP1[ ]	/* SetRefPoint1 */
SRP2[ ]	/* SetRefPoint2 */
IP[ ]	/* InterpolatePts */
NPUSHW[ ]	/* 13 values pushed */
6 84 22 84 38 84 54 84 70 84 86 84 6 
DELTAP1[ ]	/* DeltaExceptionP1 */
NPUSHW[ ]	/* 5 values pushed */
101 84 117 84 2 
DELTAP1[ ]	/* DeltaExceptionP1 */
SVTCA[0]	/* SetFreedomAndProjectionVectorToAxis */
PUSHW[ ]	/* 1 value pushed */
15 
MDAP[1]	/* MoveDirectAbsPt */
PUSHW[ ]	/* 1 value pushed */
91 
MDAP[1]	/* MoveDirectAbsPt */
PUSHW[ ]	/* 4 values pushed */
5 2 31 4 
CALL[ ]	/* CallFunction */
PUSHW[ ]	/* 1 value pushed */
5 
SRP0[ ]	/* SetRefPoint0 */
PUSHW[ ]	/* 4 values pushed */
81 3 69 4 
CALL[ ]	/* CallFunction */
PUSHW[ ]	/* 1 value pushed */
81 
SRP0[ ]	/* SetRefPoint0 */
PUSHW[ ]	/* 1 value pushed */
69 
SRP0[ ]	/* SetRefPoint0 */
PUSHW[ ]	/* 2 values pushed */
41 3 
MIRP[11100]	/* MoveIndirectRelPt */
PUSHW[ ]	/* 1 value pushed */
44 
MDRP[10000]	/* MoveDirectRelPt */
PUSHW[ ]	/* 1 value pushed */
44 
MDAP[1]	/* MoveDirectAbsPt */
PUSHW[ ]	/* 3 values pushed */
47 15 91 
SRP1[ ]	/* SetRefPoint1 */
SRP2[ ]	/* SetRefPoint2 */
IP[ ]	/* InterpolatePts */
PUSHW[ ]	/* 1 value pushed */
69 
SRP0[ ]	/* SetRefPoint0 */
PUSHW[ ]	/* 1 value pushed */
60 
MDRP[10000]	/* MoveDirectRelPt */
PUSHW[ ]	/* 1 value pushed */
60 
MDAP[1]	/* MoveDirectAbsPt */
IUP[0]	/* InterpolateUntPts */
IUP[1]	/* InterpolateUntPts */";
};
width = 868;
}
);
note = at;
unicode = 0040;
},
{
glyphname = A;
lastChange = "2019-03-14 18:39:42 +0000";
layers = (
{
layerId = "6873DD1C-7BCD-4DE2-A211-237E2294755D";
paths = (
{
closed = 1;
nodes = (
"736 0 LINE",
"736 12 LINE",
"683.262 14.293 OFFCURVE",
"651.008 51.985 OFFCURVE",
"640 74 CURVE SMOOTH",
"632 91.333 OFFCURVE",
"624.833 106.833 OFFCURVE",
"618.5 120.5 CURVE SMOOTH",
"612.167 134.167 OFFCURVE",
"605.333 151.333 OFFCURVE",
"598 172 CURVE SMOOTH",
"566 256 OFFCURVE",
"534.5 341 OFFCURVE",
"500.5 433 CURVE SMOOTH",
"472.98 507.467 OFFCURVE",
"420.03 648.241 OFFCURVE",
"388 734 CURVE",
"380 734 LINE",
"365.705 708.983 OFFCURVE",
"335.658 670.403 OFFCURVE",
"292 651 CURVE",
"302 629 LINE",
"275.074 566.173 OFFCURVE",
"227.134 451.237 OFFCURVE",
"196.5 380.5 CURVE SMOOTH",
"159.833 295.833 OFFCURVE",
"124 212.667 OFFCURVE",
"96 150 CURVE SMOOTH",
"80.667 116 OFFCURVE",
"67.667 90.333 OFFCURVE",
"57 73 CURVE SMOOTH",
"46.333 55.667 OFFCURVE",
"38.667 44.667 OFFCURVE",
"34 40 CURVE",
"32 37.333 OFFCURVE",
"24.833 32.333 OFFCURVE",
"12.5 25 CURVE SMOOTH",
"0.167 17.667 OFFCURVE",
"-14.667 13 OFFCURVE",
"-32 11 CURVE",
"-32 0 LINE",
"181 0 LINE",
"181 10 LINE",
"144.682 15.587 OFFCURVE",
"98 23.116 OFFCURVE",
"98 58 CURVE SMOOTH",
"98 72.667 OFFCURVE",
"105 98 OFFCURVE",
"119 134 CURVE SMOOTH",
"128.333 157.333 OFFCURVE",
"137.667 180.5 OFFCURVE",
"147 203.5 CURVE SMOOTH",
"156.333 226.5 OFFCURVE",
"166 250.667 OFFCURVE",
"176 276 CURVE",
"442 276 LINE",
"462 224 OFFCURVE",
"479.667 174.833 OFFCURVE",
"493 135.5 CURVE SMOOTH",
"503.554 104.366 OFFCURVE",
"514 68.972 OFFCURVE",
"514 56 CURVE SMOOTH",
"514 22.53 OFFCURVE",
"462.032 10 OFFCURVE",
"444 10 CURVE",
"444 0 LINE"
);
},
{
closed = 1;
nodes = (
"324.007 579.093 OFFCURVE",
"347.6 518.521 OFFCURVE",
"365.5 473.5 CURVE SMOOTH",
"387.5 418.167 OFFCURVE",
"411.333 357 OFFCURVE",
"434 297 CURVE",
"185 297 LINE",
"210.437 359.532 OFFCURVE",
"247.687 451.557 OFFCURVE",
"267 497 CURVE SMOOTH",
"284.789 538.856 OFFCURVE",
"305.439 589.618 OFFCURVE",
"313 606 CURVE"
);
}
);
userData = {
assembly = "SVTCA[0]	/* SetFreedomAndProjectionVectorToAxis */
PUSHW[ ]	/* 1 value pushed */
11 
MDAP[1]	/* MoveDirectAbsPt */
PUSHW[ ]	/* 1 value pushed */
0 
RCVT[ ]	/* ReadCVT */
IF[ ]	/* If */
PUSHW[ ]	/* 1 value pushed */
42 
MDAP[1]	/* MoveDirectAbsPt */
ELSE[ ]	/* Else */
PUSHW[ ]	/* 2 values pushed */
42 14 
MIAP[0]	/* MoveIndirectAbsPt */
EIF[ ]	/* EndIf */
PUSHW[ ]	/* 1 value pushed */
0 
RCVT[ ]	/* ReadCVT */
IF[ ]	/* If */
PUSHW[ ]	/* 1 value pushed */
0 
MDAP[1]	/* MoveDirectAbsPt */
ELSE[ ]	/* Else */
PUSHW[ ]	/* 2 values pushed */
0 8 
MIAP[0]	/* MoveIndirectAbsPt */
EIF[ ]	/* EndIf */
PUSHW[ ]	/* 1 value pushed */
0 
RCVT[ ]	/* ReadCVT */
IF[ ]	/* If */
PUSHW[ ]	/* 1 value pushed */
23 
MDAP[1]	/* MoveDirectAbsPt */
ELSE[ ]	/* Else */
PUSHW[ ]	/* 2 values pushed */
23 8 
MIAP[0]	/* MoveIndirectAbsPt */
EIF[ ]	/* EndIf */
PUSHW[ ]	/* 3 values pushed */
58 0 42 
SRP1[ ]	/* SetRefPoint1 */
SRP2[ ]	/* SetRefPoint2 */
IP[ ]	/* InterpolatePts */
PUSHW[ ]	/* 3 values pushed */
63 0 42 
SRP1[ ]	/* SetRefPoint1 */
SRP2[ ]	/* SetRefPoint2 */
IP[ ]	/* InterpolatePts */
PUSHW[ ]	/* 3 values pushed */
64 0 42 
SRP1[ ]	/* SetRefPoint1 */
SRP2[ ]	/* SetRefPoint2 */
IP[ ]	/* InterpolatePts */
IUP[0]	/* InterpolateUntPts */
IUP[1]	/* InterpolateUntPts */";
};
width = 704;
}
);
note = A;
unicode = 0041;
},
{
glyphname = B;
lastChange = "2019-03-14 18:39:42 +0000";
layers = (
{
layerId = "6873DD1C-7BCD-4DE2-A211-237E2294755D";
paths = (
{
closed = 1;
nodes = (
"684 108.749 OFFCURVE",
"625.249 43.727 OFFCURVE",
"560 20 CURVE SMOOTH",
"509.333 1.333 OFFCURVE",
"442.667 0 OFFCURVE",
"384 0 CURVE SMOOTH",
"39 0 LINE",
"39 10 LINE",
"72.333 15.333 OFFCURVE",
"104.333 26.667 OFFCURVE",
"123 48 CURVE SMOOTH",
"136.201 63.841 OFFCURVE",
"141 120.988 OFFCURVE",
"141 156 CURVE SMOOTH",
"141 181.48 OFFCURVE",
"143 269.869 OFFCURVE",
"143 305 CURVE SMOOTH",
"143 325.667 OFFCURVE",
"143 345 OFFCURVE",
"143 363 CURVE SMOOTH",
"143 383 OFFCURVE",
"143 400.667 OFFCURVE",
"143 416 CURVE SMOOTH",
"143 431.333 OFFCURVE",
"143 446 OFFCURVE",
"143 460 CURVE SMOOTH",
"143 474.667 OFFCURVE",
"142.833 489.667 OFFCURVE",
"142.5 505 CURVE SMOOTH",
"142.167 520.333 OFFCURVE",
"142 538 OFFCURVE",
"142 558 CURVE SMOOTH",
"142 595.759 OFFCURVE",
"137.854 664.146 OFFCURVE",
"122 680 CURVE SMOOTH",
"102 701.333 OFFCURVE",
"86 706 OFFCURVE",
"50 710 CURVE",
"50 720 LINE",
"387 720 LINE SMOOTH",
"437.667 720 OFFCURVE",
"483.333 715 OFFCURVE",
"526 699 CURVE SMOOTH",
"594 673.667 OFFCURVE",
"643 622 OFFCURVE",
"643 542 CURVE SMOOTH",
"643 454 OFFCURVE",
"580.667 399.667 OFFCURVE",
"490 381 CURVE",
"490 377 LINE",
"590.082 365.88 OFFCURVE",
"684 301.15 OFFCURVE",
"684 197 CURVE SMOOTH"
);
},
{
closed = 1;
nodes = (
"528 608.667 OFFCURVE",
"489.667 664.333 OFFCURVE",
"439 687 CURVE SMOOTH",
"409 700.333 OFFCURVE",
"370.667 707 OFFCURVE",
"324 707 CURVE SMOOTH",
"296 707 OFFCURVE",
"272 704 OFFCURVE",
"260 700 CURVE",
"256.284 677.702 OFFCURVE",
"255.394 654.098 OFFCURVE",
"254 629 CURVE SMOOTH",
"252.667 582.333 OFFCURVE",
"252 522.667 OFFCURVE",
"252 472 CURVE SMOOTH",
"252 447.333 OFFCURVE",
"252 426 OFFCURVE",
"252 408 CURVE SMOOTH",
"252 390 OFFCURVE",
"252 379.333 OFFCURVE",
"252 376 CURVE",
"274 376 OFFCURVE",
"292.667 376 OFFCURVE",
"308 376 CURVE SMOOTH",
"323.333 376 OFFCURVE",
"335.667 376.333 OFFCURVE",
"345 377 CURVE SMOOTH",
"465 383.667 OFFCURVE",
"528 451.333 OFFCURVE",
"528 542 CURVE SMOOTH"
);
},
{
closed = 1;
nodes = (
"567 262.469 OFFCURVE",
"513.809 325.397 OFFCURVE",
"443 349 CURVE SMOOTH",
"413.667 358.333 OFFCURVE",
"387.667 361 OFFCURVE",
"349 361 CURVE SMOOTH",
"252 361 LINE",
"252 339.667 OFFCURVE",
"252 318.333 OFFCURVE",
"252 297 CURVE SMOOTH",
"252 275.667 OFFCURVE",
"252 255.333 OFFCURVE",
"252 236 CURVE SMOOTH",
"252 217.333 OFFCURVE",
"252.167 200.167 OFFCURVE",
"252.5 184.5 CURVE SMOOTH",
"252.833 168.833 OFFCURVE",
"253 155.333 OFFCURVE",
"253 144 CURVE SMOOTH",
"254.333 93.333 OFFCURVE",
"255 62.333 OFFCURVE",
"271 41 CURVE",
"283 26.333 OFFCURVE",
"304.667 15 OFFCURVE",
"350 15 CURVE SMOOTH",
"388.667 15 OFFCURVE",
"436.333 17.333 OFFCURVE",
"479 40 CURVE SMOOTH",
"535 69.333 OFFCURVE",
"567 118 OFFCURVE",
"567 186 CURVE SMOOTH"
);
}
);
userData = {
assembly = "PUSHW[ ]	/* 4 values pushed */
67 7 25 4 
CALL[ ]	/* CallFunction */
PUSHW[ ]	/* 1 value pushed */
67 
SRP0[ ]	/* SetRefPoint0 */
PUSHW[ ]	/* 4 values pushed */
9 7 56 4 
CALL[ ]	/* CallFunction */
PUSHW[ ]	/* 1 value pushed */
9 
SRP0[ ]	/* SetRefPoint0 */
NPUSHW[ ]	/* 5 values pushed */
41 56 57 56 2 
DELTAP1[ ]	/* DeltaExceptionP1 */
NPUSHW[ ]	/* 5 values pushed */
106 56 122 56 2 
DELTAP1[ ]	/* DeltaExceptionP1 */
NPUSHW[ ]	/* 5 values pushed */
73 56 89 56 2 
DELTAP1[ ]	/* DeltaExceptionP1 */
NPUSHW[ ]	/* 5 values pushed */
9 56 25 56 2 
DELTAP1[ ]	/* DeltaExceptionP1 */
PUSHW[ ]	/* 3 values pushed */
83 56 9 
SRP1[ ]	/* SetRefPoint1 */
SRP2[ ]	/* SetRefPoint2 */
IP[ ]	/* InterpolatePts */
PUSHW[ ]	/* 1 value pushed */
83 
MDAP[1]	/* MoveDirectAbsPt */
NPUSHW[ ]	/* 5 values pushed */
106 83 122 83 2 
DELTAP1[ ]	/* DeltaExceptionP1 */
NPUSHW[ ]	/* 13 values pushed */
9 83 25 83 41 83 57 83 73 83 89 83 6 
DELTAP1[ ]	/* DeltaExceptionP1 */
PUSHW[ ]	/* 2 values pushed */
0 7 
MIRP[11100]	/* MoveIndirectRelPt */
PUSHW[ ]	/* 1 value pushed */
25 
SRP0[ ]	/* SetRefPoint0 */
PUSHW[ ]	/* 1 value pushed */
38 
MDRP[10000]	/* MoveDirectRelPt */
PUSHW[ ]	/* 1 value pushed */
38 
MDAP[1]	/* MoveDirectAbsPt */
PUSHW[ ]	/* 3 values pushed */
6 38 0 
SRP1[ ]	/* SetRefPoint1 */
SRP2[ ]	/* SetRefPoint2 */
IP[ ]	/* InterpolatePts */
PUSHW[ ]	/* 1 value pushed */
25 
SRP0[ ]	/* SetRefPoint0 */
PUSHW[ ]	/* 1 value pushed */
28 
MDRP[10000]	/* MoveDirectRelPt */
PUSHW[ ]	/* 1 value pushed */
28 
MDAP[1]	/* MoveDirectAbsPt */
PUSHW[ ]	/* 1 value pushed */
25 
SRP0[ ]	/* SetRefPoint0 */
PUSHW[ ]	/* 1 value pushed */
30 
MDRP[10000]	/* MoveDirectRelPt */
PUSHW[ ]	/* 1 value pushed */
30 
MDAP[1]	/* MoveDirectAbsPt */
PUSHW[ ]	/* 1 value pushed */
25 
SRP0[ ]	/* SetRefPoint0 */
PUSHW[ ]	/* 1 value pushed */
32 
MDRP[10000]	/* MoveDirectRelPt */
PUSHW[ ]	/* 1 value pushed */
32 
MDAP[1]	/* MoveDirectAbsPt */
PUSHW[ ]	/* 1 value pushed */
25 
SRP0[ ]	/* SetRefPoint0 */
PUSHW[ ]	/* 1 value pushed */
34 
MDRP[10000]	/* MoveDirectRelPt */
PUSHW[ ]	/* 1 value pushed */
34 
MDAP[1]	/* MoveDirectAbsPt */
NPUSHW[ ]	/* 13 values pushed */
6 67 22 67 38 67 54 67 70 67 86 67 6 
DELTAP1[ ]	/* DeltaExceptionP1 */
NPUSHW[ ]	/* 5 values pushed */
101 67 117 67 2 
DELTAP1[ ]	/* DeltaExceptionP1 */
PUSHW[ ]	/* 1 value pushed */
67 
SRP0[ ]	/* SetRefPoint0 */
PUSHW[ ]	/* 1 value pushed */
63 
MDRP[10000]	/* MoveDirectRelPt */
PUSHW[ ]	/* 1 value pushed */
67 
SRP0[ ]	/* SetRefPoint0 */
PUSHW[ ]	/* 1 value pushed */
65 
MDRP[10000]	/* MoveDirectRelPt */
PUSHW[ ]	/* 1 value pushed */
67 
SRP0[ ]	/* SetRefPoint0 */
PUSHW[ ]	/* 1 value pushed */
70 
MDRP[10000]	/* MoveDirectRelPt */
PUSHW[ ]	/* 1 value pushed */
70 
MDAP[1]	/* MoveDirectAbsPt */
PUSHW[ ]	/* 1 value pushed */
67 
SRP0[ ]	/* SetRefPoint0 */
PUSHW[ ]	/* 1 value pushed */
95 
MDRP[10000]	/* MoveDirectRelPt */
PUSHW[ ]	/* 1 value pushed */
95 
MDAP[1]	/* MoveDirectAbsPt */
PUSHW[ ]	/* 1 value pushed */
67 
SRP0[ ]	/* SetRefPoint0 */
PUSHW[ ]	/* 1 value pushed */
98 
MDRP[10000]	/* MoveDirectRelPt */
PUSHW[ ]	/* 1 value pushed */
67 
SRP0[ ]	/* SetRefPoint0 */
PUSHW[ ]	/* 1 value pushed */
100 
MDRP[10000]	/* MoveDirectRelPt */
PUSHW[ ]	/* 1 value pushed */
67 
SRP0[ ]	/* SetRefPoint0 */
PUSHW[ ]	/* 1 value pushed */
102 
MDRP[10000]	/* MoveDirectRelPt */
SVTCA[0]	/* SetFreedomAndProjectionVectorToAxis */
PUSHW[ ]	/* 1 value pushed */
0 
RCVT[ ]	/* ReadCVT */
IF[ ]	/* If */
PUSHW[ ]	/* 1 value pushed */
15 
MDAP[1]	/* MoveDirectAbsPt */
ELSE[ ]	/* Else */
PUSHW[ ]	/* 2 values pushed */
15 14 
MIAP[0]	/* MoveIndirectAbsPt */
EIF[ ]	/* EndIf */
PUSHW[ ]	/* 1 value pushed */
0 
RCVT[ ]	/* ReadCVT */
IF[ ]	/* If */
PUSHW[ ]	/* 1 value pushed */
47 
MDAP[1]	/* MoveDirectAbsPt */
ELSE[ ]	/* Else */
PUSHW[ ]	/* 2 values pushed */
47 8 
MIAP[0]	/* MoveIndirectAbsPt */
EIF[ ]	/* EndIf */
PUSHW[ ]	/* 3 values pushed */
6 47 15 
SRP1[ ]	/* SetRefPoint1 */
SRP2[ ]	/* SetRefPoint2 */
IP[ ]	/* InterpolatePts */
IUP[0]	/* InterpolateUntPts */
IUP[1]	/* InterpolateUntPts */";
};
width = 745;
}
);
note = B;
unicode = 0042;
},
{
glyphname = C;
lastChange = "2019-03-14 18:39:42 +0000";
layers = (
{
layerId = "6873DD1C-7BCD-4DE2-A211-237E2294755D";
paths = (
{
closed = 1;
nodes = (
"715 488 LINE",
"680.185 616.549 OFFCURVE",
"572.161 718 OFFCURVE",
"440 718 CURVE SMOOTH",
"348 718 OFFCURVE",
"275.167 673 OFFCURVE",
"226.5 605 CURVE SMOOTH",
"177.833 537 OFFCURVE",
"151 447.667 OFFCURVE",
"151 357 CURVE SMOOTH",
"151 261 OFFCURVE",
"179.333 174.5 OFFCURVE",
"230 112.5 CURVE SMOOTH",
"280.667 50.5 OFFCURVE",
"354 12 OFFCURVE",
"442 12 CURVE SMOOTH",
"575.337 12 OFFCURVE",
"689.144 117.243 OFFCURVE",
"714 236 CURVE",
"726 236 LINE",
"723 16 LINE",
"711 16 LINE",
"703 27.333 OFFCURVE",
"694.667 37.667 OFFCURVE",
"686 47 CURVE SMOOTH",
"677.333 56.333 OFFCURVE",
"671.333 61 OFFCURVE",
"668 61 CURVE SMOOTH",
"665.937 61 OFFCURVE",
"630.905 38.71 OFFCURVE",
"604 27.5 CURVE SMOOTH",
"564 10.833 OFFCURVE",
"506.667 -4 OFFCURVE",
"432 -4 CURVE SMOOTH",
"308 -4 OFFCURVE",
"206.5 32.833 OFFCURVE",
"136.5 97.5 CURVE SMOOTH",
"66.5 162.167 OFFCURVE",
"28 254 OFFCURVE",
"28 362 CURVE SMOOTH",
"28 416.502 OFFCURVE",
"43.568 494.026 OFFCURVE",
"87 564 CURVE SMOOTH",
"149.145 664.615 OFFCURVE",
"264.307 735 OFFCURVE",
"426 735 CURVE SMOOTH",
"506 735 OFFCURVE",
"566 717.333 OFFCURVE",
"606 700 CURVE SMOOTH",
"632.261 688.62 OFFCURVE",
"668.216 665 OFFCURVE",
"670 665 CURVE SMOOTH",
"678.317 665 OFFCURVE",
"707.59 700.385 OFFCURVE",
"716 713 CURVE",
"727 713 LINE",
"727 489 LINE"
);
}
);
userData = {
assembly = "PUSHW[ ]	/* 4 values pushed */
48 7 22 4 
CALL[ ]	/* CallFunction */
PUSHW[ ]	/* 1 value pushed */
48 
SRP0[ ]	/* SetRefPoint0 */
NPUSHW[ ]	/* 13 values pushed */
6 48 22 48 38 48 54 48 70 48 86 48 6 
DELTAP1[ ]	/* DeltaExceptionP1 */
NPUSHW[ ]	/* 5 values pushed */
101 48 117 48 2 
DELTAP1[ ]	/* DeltaExceptionP1 */
SVTCA[0]	/* SetFreedomAndProjectionVectorToAxis */
PUSHW[ ]	/* 1 value pushed */
0 
RCVT[ ]	/* ReadCVT */
IF[ ]	/* If */
PUSHW[ ]	/* 1 value pushed */
12 
MDAP[1]	/* MoveDirectAbsPt */
ELSE[ ]	/* Else */
PUSHW[ ]	/* 2 values pushed */
12 14 
MIAP[0]	/* MoveIndirectAbsPt */
EIF[ ]	/* EndIf */
PUSHW[ ]	/* 1 value pushed */
0 
RCVT[ ]	/* ReadCVT */
IF[ ]	/* If */
PUSHW[ ]	/* 1 value pushed */
27 
MDAP[1]	/* MoveDirectAbsPt */
ELSE[ ]	/* Else */
PUSHW[ ]	/* 2 values pushed */
27 8 
MIAP[0]	/* MoveIndirectAbsPt */
EIF[ ]	/* EndIf */
IUP[0]	/* InterpolateUntPts */
IUP[1]	/* InterpolateUntPts */";
};
width = 776;
}
);
note = C;
unicode = 0043;
},
{
glyphname = D;
lastChange = "2019-03-14 18:39:42 +0000";
layers = (
{
layerId = "6873DD1C-7BCD-4DE2-A211-237E2294755D";
paths = (
{
closed = 1;
nodes = (
"822 270 OFFCURVE",
"796.333 194.667 OFFCURVE",
"755 140 CURVE SMOOTH",
"734.333 112.667 OFFCURVE",
"710.333 90 OFFCURVE",
"683 72 CURVE SMOOTH",
"628.333 36 OFFCURVE",
"566.333 15.167 OFFCURVE",
"501 6.5 CURVE SMOOTH",
"468.333 2.167 OFFCURVE",
"436.667 0 OFFCURVE",
"406 0 CURVE SMOOTH",
"41 0 LINE",
"41 10 LINE",
"74.333 14 OFFCURVE",
"109 28.333 OFFCURVE",
"125 47 CURVE",
"137.315 59.315 OFFCURVE",
"141 122.912 OFFCURVE",
"141 156 CURVE SMOOTH",
"141 181.48 OFFCURVE",
"143 269.869 OFFCURVE",
"143 305 CURVE SMOOTH",
"143 325.667 OFFCURVE",
"143 345 OFFCURVE",
"143 363 CURVE SMOOTH",
"143 558 LINE SMOOTH",
"143 570 OFFCURVE",
"143 582 OFFCURVE",
"143 594 CURVE SMOOTH",
"143 622.204 OFFCURVE",
"139.257 661.866 OFFCURVE",
"128 675 CURVE SMOOTH",
"108 699 OFFCURVE",
"79.667 706 OFFCURVE",
"45 710 CURVE",
"45 720 LINE",
"73 720 OFFCURVE",
"113.333 720.167 OFFCURVE",
"166 720.5 CURVE SMOOTH",
"218.667 720.833 OFFCURVE",
"282.333 721 OFFCURVE",
"357 721 CURVE SMOOTH",
"378.333 721 OFFCURVE",
"399.667 721 OFFCURVE",
"421 721 CURVE SMOOTH",
"482.002 721 OFFCURVE",
"559.624 712.54 OFFCURVE",
"618 687 CURVE SMOOTH",
"737.547 635.766 OFFCURVE",
"822 530.72 OFFCURVE",
"822 370 CURVE SMOOTH"
);
},
{
closed = 1;
nodes = (
"699 519.139 OFFCURVE",
"598.851 671.795 OFFCURVE",
"459 696 CURVE SMOOTH",
"432.333 701.333 OFFCURVE",
"402.667 705 OFFCURVE",
"356 705 CURVE SMOOTH",
"336.055 705 OFFCURVE",
"276.565 702.019 OFFCURVE",
"259 697 CURVE",
"252.333 631.667 OFFCURVE",
"252 515.667 OFFCURVE",
"252 357 CURVE SMOOTH",
"252 314.333 OFFCURVE",
"252 275.333 OFFCURVE",
"252 240 CURVE SMOOTH",
"252 205.333 OFFCURVE",
"252.333 177 OFFCURVE",
"253 155 CURVE SMOOTH",
"253 120.839 OFFCURVE",
"258.7 62.3 OFFCURVE",
"275 46 CURVE SMOOTH",
"301.667 19.333 OFFCURVE",
"347 15 OFFCURVE",
"383 15 CURVE SMOOTH",
"416.333 15 OFFCURVE",
"453.333 17.667 OFFCURVE",
"484 27 CURVE SMOOTH",
"628 68.333 OFFCURVE",
"699 193.333 OFFCURVE",
"699 368 CURVE SMOOTH"
);
}
);
userData = {
assembly = "PUSHW[ ]	/* 1 value pushed */
82 
MDAP[1]	/* MoveDirectAbsPt */
PUSHW[ ]	/* 1 value pushed */
83 
MDAP[1]	/* MoveDirectAbsPt */
PUSHW[ ]	/* 1 value pushed */
0 
MDRP[11100]	/* MoveDirectRelPt */
PUSHW[ ]	/* 1 value pushed */
82 
SRP0[ ]	/* SetRefPoint0 */
PUSHW[ ]	/* 1 value pushed */
27 
MDRP[10000]	/* MoveDirectRelPt */
PUSHW[ ]	/* 1 value pushed */
27 
MDAP[1]	/* MoveDirectAbsPt */
PUSHW[ ]	/* 1 value pushed */
22 
MDRP[10000]	/* MoveDirectRelPt */
PUSHW[ ]	/* 1 value pushed */
27 
SRP0[ ]	/* SetRefPoint0 */
PUSHW[ ]	/* 1 value pushed */
24 
MDRP[10000]	/* MoveDirectRelPt */
PUSHW[ ]	/* 1 value pushed */
27 
SRP0[ ]	/* SetRefPoint0 */
PUSHW[ ]	/* 1 value pushed */
31 
MDRP[10000]	/* MoveDirectRelPt */
PUSHW[ ]	/* 1 value pushed */
31 
MDAP[1]	/* MoveDirectAbsPt */
PUSHW[ ]	/* 1 value pushed */
0 
SRP0[ ]	/* SetRefPoint0 */
PUSHW[ ]	/* 2 values pushed */
48 7 
MIRP[11100]	/* MoveIndirectRelPt */
NPUSHW[ ]	/* 5 values pushed */
106 48 122 48 2 
DELTAP1[ ]	/* DeltaExceptionP1 */
NPUSHW[ ]	/* 13 values pushed */
9 48 25 48 41 48 57 48 73 48 89 48 6 
DELTAP1[ ]	/* DeltaExceptionP1 */
PUSHW[ ]	/* 1 value pushed */
27 
SRP0[ ]	/* SetRefPoint0 */
PUSHW[ ]	/* 2 values pushed */
62 7 
MIRP[11100]	/* MoveIndirectRelPt */
NPUSHW[ ]	/* 13 values pushed */
6 62 22 62 38 62 54 62 70 62 86 62 6 
DELTAP1[ ]	/* DeltaExceptionP1 */
NPUSHW[ ]	/* 5 values pushed */
101 62 117 62 2 
DELTAP1[ ]	/* DeltaExceptionP1 */
PUSHW[ ]	/* 1 value pushed */
64 
MDRP[10000]	/* MoveDirectRelPt */
PUSHW[ ]	/* 1 value pushed */
64 
MDAP[1]	/* MoveDirectAbsPt */
PUSHW[ ]	/* 1 value pushed */
62 
SRP0[ ]	/* SetRefPoint0 */
PUSHW[ ]	/* 1 value pushed */
66 
MDRP[10000]	/* MoveDirectRelPt */
PUSHW[ ]	/* 1 value pushed */
66 
MDAP[1]	/* MoveDirectAbsPt */
PUSHW[ ]	/* 1 value pushed */
62 
SRP0[ ]	/* SetRefPoint0 */
PUSHW[ ]	/* 1 value pushed */
69 
MDRP[10000]	/* MoveDirectRelPt */
PUSHW[ ]	/* 1 value pushed */
69 
MDAP[1]	/* MoveDirectAbsPt */
SVTCA[0]	/* SetFreedomAndProjectionVectorToAxis */
PUSHW[ ]	/* 1 value pushed */
0 
RCVT[ ]	/* ReadCVT */
IF[ ]	/* If */
PUSHW[ ]	/* 1 value pushed */
9 
MDAP[1]	/* MoveDirectAbsPt */
ELSE[ ]	/* Else */
PUSHW[ ]	/* 2 values pushed */
9 14 
MIAP[0]	/* MoveIndirectAbsPt */
EIF[ ]	/* EndIf */
PUSHW[ ]	/* 1 value pushed */
0 
RCVT[ ]	/* ReadCVT */
IF[ ]	/* If */
PUSHW[ ]	/* 1 value pushed */
11 
MDAP[1]	/* MoveDirectAbsPt */
ELSE[ ]	/* Else */
PUSHW[ ]	/* 2 values pushed */
11 14 
MIAP[0]	/* MoveIndirectAbsPt */
EIF[ ]	/* EndIf */
PUSHW[ ]	/* 1 value pushed */
0 
RCVT[ ]	/* ReadCVT */
IF[ ]	/* If */
PUSHW[ ]	/* 1 value pushed */
14 
MDAP[1]	/* MoveDirectAbsPt */
ELSE[ ]	/* Else */
PUSHW[ ]	/* 2 values pushed */
14 14 
MIAP[0]	/* MoveIndirectAbsPt */
EIF[ ]	/* EndIf */
PUSHW[ ]	/* 1 value pushed */
0 
RCVT[ ]	/* ReadCVT */
IF[ ]	/* If */
PUSHW[ ]	/* 1 value pushed */
40 
MDAP[1]	/* MoveDirectAbsPt */
ELSE[ ]	/* Else */
PUSHW[ ]	/* 2 values pushed */
40 8 
MIAP[0]	/* MoveIndirectAbsPt */
EIF[ ]	/* EndIf */
IUP[0]	/* InterpolateUntPts */
IUP[1]	/* InterpolateUntPts */";
};
width = 852;
}
);
note = D;
unicode = 0044;
},
{
glyphname = E;
lastChange = "2019-03-14 18:39:42 +0000";
layers = (
{
layerId = "6873DD1C-7BCD-4DE2-A211-237E2294755D";
paths = (
{
closed = 1;
nodes = (
"653 0 LINE",
"41 0 LINE",
"41 10 LINE",
"74.333 15.333 OFFCURVE",
"104.333 26.667 OFFCURVE",
"123 48 CURVE SMOOTH",
"136.201 63.841 OFFCURVE",
"141 120.988 OFFCURVE",
"141 156 CURVE SMOOTH",
"141 181.48 OFFCURVE",
"143 269.869 OFFCURVE",
"143 305 CURVE SMOOTH",
"143 325.667 OFFCURVE",
"143 345 OFFCURVE",
"143 363 CURVE SMOOTH",
"143 558 LINE SMOOTH",
"143 597.599 OFFCURVE",
"142.15 664.85 OFFCURVE",
"126 681 CURVE SMOOTH",
"106 702.333 OFFCURVE",
"86 704.667 OFFCURVE",
"50 710 CURVE",
"50 720 LINE",
"602 720 LINE",
"670 555 LINE",
"660 550 LINE",
"606 617.333 OFFCURVE",
"555.333 662.667 OFFCURVE",
"508 686 CURVE SMOOTH",
"496.667 691.333 OFFCURVE",
"475.667 696 OFFCURVE",
"445 700 CURVE SMOOTH",
"414.333 704 OFFCURVE",
"377 706 OFFCURVE",
"333 706 CURVE SMOOTH",
"305 706 OFFCURVE",
"270.333 703.667 OFFCURVE",
"257 701 CURVE",
"255.667 690.333 OFFCURVE",
"254.5 668.333 OFFCURVE",
"253.5 635 CURVE SMOOTH",
"252.5 601.667 OFFCURVE",
"252 563 OFFCURVE",
"252 519 CURVE SMOOTH",
"252 493.667 OFFCURVE",
"252 472.333 OFFCURVE",
"252 455 CURVE SMOOTH",
"252 437.667 OFFCURVE",
"252.167 423.5 OFFCURVE",
"252.5 412.5 CURVE SMOOTH",
"252.833 401.5 OFFCURVE",
"253 393 OFFCURVE",
"253 387 CURVE SMOOTH",
"253 381.667 OFFCURVE",
"253 378 OFFCURVE",
"253 376 CURVE",
"256.333 376 OFFCURVE",
"263 376 OFFCURVE",
"273 376 CURVE SMOOTH",
"296.982 376 OFFCURVE",
"355.413 378.557 OFFCURVE",
"379 384 CURVE SMOOTH",
"458.234 402.488 OFFCURVE",
"478.527 445.128 OFFCURVE",
"495 522 CURVE",
"507 522 LINE",
"507 207 LINE",
"495 207 LINE",
"484.333 249.667 OFFCURVE",
"460 301.333 OFFCURVE",
"436 324 CURVE",
"414.667 342.667 OFFCURVE",
"385 355.333 OFFCURVE",
"345 358 CURVE SMOOTH",
"325 359.333 OFFCURVE",
"313.333 360 OFFCURVE",
"300 360 CURVE SMOOTH",
"294 360 OFFCURVE",
"287.333 360 OFFCURVE",
"280 360 CURVE SMOOTH",
"273.333 360 OFFCURVE",
"264.667 360 OFFCURVE",
"254 360 CURVE",
"252.667 350.667 OFFCURVE",
"252 337 OFFCURVE",
"252 319 CURVE SMOOTH",
"252 301 OFFCURVE",
"252 282.333 OFFCURVE",
"252 263 CURVE SMOOTH",
"252 254.333 OFFCURVE",
"252 244.333 OFFCURVE",
"252 233 CURVE SMOOTH",
"252 221.667 OFFCURVE",
"252 210.333 OFFCURVE",
"252 199 CURVE SMOOTH",
"252 188.333 OFFCURVE",
"252.167 178.167 OFFCURVE",
"252.5 168.5 CURVE SMOOTH",
"252.833 158.833 OFFCURVE",
"253 150.667 OFFCURVE",
"253 144 CURVE SMOOTH",
"256.834 21.296 OFFCURVE",
"265.674 15 OFFCURVE",
"385 15 CURVE SMOOTH",
"407.667 15 OFFCURVE",
"445.333 15.667 OFFCURVE",
"484 21 CURVE SMOOTH",
"573.718 32.215 OFFCURVE",
"631.211 89.444 OFFCURVE",
"692 194 CURVE",
"703 191 LINE"
);
}
);
userData = {
assembly = "PUSHW[ ]	/* 4 values pushed */
54 7 83 4 
CALL[ ]	/* CallFunction */
PUSHW[ ]	/* 1 value pushed */
54 
SRP0[ ]	/* SetRefPoint0 */
PUSHW[ ]	/* 1 value pushed */
14 
MDRP[10000]	/* MoveDirectRelPt */
PUSHW[ ]	/* 1 value pushed */
54 
SRP0[ ]	/* SetRefPoint0 */
PUSHW[ ]	/* 1 value pushed */
17 
MDRP[10000]	/* MoveDirectRelPt */
PUSHW[ ]	/* 1 value pushed */
17 
MDAP[1]	/* MoveDirectAbsPt */
PUSHW[ ]	/* 1 value pushed */
54 
SRP0[ ]	/* SetRefPoint0 */
PUSHW[ ]	/* 1 value pushed */
19 
MDRP[10000]	/* MoveDirectRelPt */
PUSHW[ ]	/* 1 value pushed */
19 
MDAP[1]	/* MoveDirectAbsPt */
PUSHW[ ]	/* 1 value pushed */
54 
SRP0[ ]	/* SetRefPoint0 */
PUSHW[ ]	/* 1 value pushed */
21 
MDRP[10000]	/* MoveDirectRelPt */
PUSHW[ ]	/* 1 value pushed */
21 
MDAP[1]	/* MoveDirectAbsPt */
PUSHW[ ]	/* 1 value pushed */
54 
SRP0[ ]	/* SetRefPoint0 */
PUSHW[ ]	/* 1 value pushed */
23 
MDRP[10000]	/* MoveDirectRelPt */
PUSHW[ ]	/* 1 value pushed */
23 
MDAP[1]	/* MoveDirectAbsPt */
PUSHW[ ]	/* 1 value pushed */
54 
SRP0[ ]	/* SetRefPoint0 */
PUSHW[ ]	/* 1 value pushed */
25 
MDRP[10000]	/* MoveDirectRelPt */
PUSHW[ ]	/* 1 value pushed */
25 
MDAP[1]	/* MoveDirectAbsPt */
PUSHW[ ]	/* 1 value pushed */
54 
SRP0[ ]	/* SetRefPoint0 */
PUSHW[ ]	/* 1 value pushed */
57 
MDRP[10000]	/* MoveDirectRelPt */
PUSHW[ ]	/* 1 value pushed */
57 
MDAP[1]	/* MoveDirectAbsPt */
PUSHW[ ]	/* 1 value pushed */
54 
SRP0[ ]	/* SetRefPoint0 */
PUSHW[ ]	/* 1 value pushed */
59 
MDRP[10000]	/* MoveDirectRelPt */
PUSHW[ ]	/* 1 value pushed */
59 
MDAP[1]	/* MoveDirectAbsPt */
PUSHW[ ]	/* 1 value pushed */
54 
SRP0[ ]	/* SetRefPoint0 */
PUSHW[ ]	/* 1 value pushed */
62 
MDRP[10000]	/* MoveDirectRelPt */
PUSHW[ ]	/* 1 value pushed */
62 
MDAP[1]	/* MoveDirectAbsPt */
PUSHW[ ]	/* 1 value pushed */
83 
SRP0[ ]	/* SetRefPoint0 */
PUSHW[ ]	/* 1 value pushed */
85 
MDRP[10000]	/* MoveDirectRelPt */
PUSHW[ ]	/* 1 value pushed */
83 
SRP0[ ]	/* SetRefPoint0 */
PUSHW[ ]	/* 1 value pushed */
89 
MDRP[10000]	/* MoveDirectRelPt */
PUSHW[ ]	/* 1 value pushed */
89 
MDAP[1]	/* MoveDirectAbsPt */
SVTCA[0]	/* SetFreedomAndProjectionVectorToAxis */
PUSHW[ ]	/* 1 value pushed */
0 
RCVT[ ]	/* ReadCVT */
IF[ ]	/* If */
PUSHW[ ]	/* 1 value pushed */
72 
MDAP[1]	/* MoveDirectAbsPt */
ELSE[ ]	/* Else */
PUSHW[ ]	/* 2 values pushed */
72 14 
MIAP[0]	/* MoveIndirectAbsPt */
EIF[ ]	/* EndIf */
PUSHW[ ]	/* 1 value pushed */
0 
RCVT[ ]	/* ReadCVT */
IF[ ]	/* If */
PUSHW[ ]	/* 1 value pushed */
98 
MDAP[1]	/* MoveDirectAbsPt */
ELSE[ ]	/* Else */
PUSHW[ ]	/* 2 values pushed */
98 8 
MIAP[0]	/* MoveIndirectAbsPt */
EIF[ ]	/* EndIf */
IUP[0]	/* InterpolateUntPts */
IUP[1]	/* InterpolateUntPts */";
};
width = 711;
}
);
note = E;
unicode = 0045;
},
{
glyphname = F;
lastChange = "2019-03-14 18:39:42 +0000";
layers = (
{
layerId = "6873DD1C-7BCD-4DE2-A211-237E2294755D";
paths = (
{
closed = 1;
nodes = (
"664 547 LINE",
"609.333 615 OFFCURVE",
"560.667 664.333 OFFCURVE",
"514 687 CURVE SMOOTH",
"491.333 697.667 OFFCURVE",
"427.667 706 OFFCURVE",
"349 706 CURVE SMOOTH",
"331.734 706 OFFCURVE",
"275.065 703 OFFCURVE",
"263 703 CURVE",
"255.929 660.572 OFFCURVE",
"256.447 670.049 OFFCURVE",
"254 626 CURVE SMOOTH",
"252.667 579.333 OFFCURVE",
"252 520.333 OFFCURVE",
"252 471 CURVE SMOOTH",
"252 446.333 OFFCURVE",
"252 425 OFFCURVE",
"252 407 CURVE SMOOTH",
"252 389.667 OFFCURVE",
"252 379.333 OFFCURVE",
"252 376 CURVE",
"254 376 OFFCURVE",
"260 376 OFFCURVE",
"270 376 CURVE SMOOTH",
"293.763 376 OFFCURVE",
"356.123 378.669 OFFCURVE",
"381 384 CURVE SMOOTH",
"471.748 404.166 OFFCURVE",
"485.065 447.405 OFFCURVE",
"497 522 CURVE",
"509 522 LINE",
"509 200 LINE",
"497 200 LINE",
"486.333 242.667 OFFCURVE",
"466 296.667 OFFCURVE",
"438 322 CURVE SMOOTH",
"412.667 344.667 OFFCURVE",
"385.667 355.333 OFFCURVE",
"347 358 CURVE SMOOTH",
"327 359.333 OFFCURVE",
"313.333 360 OFFCURVE",
"300 360 CURVE SMOOTH",
"293.333 360 OFFCURVE",
"286.333 360 OFFCURVE",
"279 360 CURVE SMOOTH",
"271.667 360 OFFCURVE",
"262.667 360 OFFCURVE",
"252 360 CURVE",
"252 338.667 OFFCURVE",
"252 317.333 OFFCURVE",
"252 296 CURVE SMOOTH",
"252 275.333 OFFCURVE",
"252 255.333 OFFCURVE",
"252 236 CURVE SMOOTH",
"252 217.333 OFFCURVE",
"252.167 200.167 OFFCURVE",
"252.5 184.5 CURVE SMOOTH",
"252.833 168.833 OFFCURVE",
"253 155.333 OFFCURVE",
"253 144 CURVE SMOOTH",
"256.063 45.977 OFFCURVE",
"252.87 15.275 OFFCURVE",
"361 10 CURVE",
"361 0 LINE",
"41 0 LINE",
"41 10 LINE",
"74.333 15.333 OFFCURVE",
"104.333 26.667 OFFCURVE",
"123 48 CURVE SMOOTH",
"136.201 63.841 OFFCURVE",
"141 120.988 OFFCURVE",
"141 156 CURVE SMOOTH",
"141 181.48 OFFCURVE",
"143 269.869 OFFCURVE",
"143 305 CURVE SMOOTH",
"143 325.667 OFFCURVE",
"143 345 OFFCURVE",
"143 363 CURVE SMOOTH",
"143 558 LINE SMOOTH",
"143 597.599 OFFCURVE",
"142.15 664.85 OFFCURVE",
"126 681 CURVE SMOOTH",
"106 702.333 OFFCURVE",
"86 704.667 OFFCURVE",
"50 710 CURVE",
"50 720 LINE",
"606 720 LINE",
"674 552 LINE"
);
}
);
userData = {
assembly = "PUSHW[ ]	/* 4 values pushed */
34 7 14 4 
CALL[ ]	/* CallFunction */
PUSHW[ ]	/* 1 value pushed */
34 
SRP0[ ]	/* SetRefPoint0 */
PUSHW[ ]	/* 1 value pushed */
14 
SRP0[ ]	/* SetRefPoint0 */
PUSHW[ ]	/* 1 value pushed */
11 
MDRP[10000]	/* MoveDirectRelPt */
PUSHW[ ]	/* 1 value pushed */
14 
SRP0[ ]	/* SetRefPoint0 */
PUSHW[ ]	/* 1 value pushed */
18 
MDRP[10000]	/* MoveDirectRelPt */
PUSHW[ ]	/* 1 value pushed */
18 
MDAP[1]	/* MoveDirectAbsPt */
NPUSHW[ ]	/* 13 values pushed */
6 34 22 34 38 34 54 34 70 34 86 34 6 
DELTAP1[ ]	/* DeltaExceptionP1 */
NPUSHW[ ]	/* 5 values pushed */
101 34 117 34 2 
DELTAP1[ ]	/* DeltaExceptionP1 */
PUSHW[ ]	/* 1 value pushed */
34 
SRP0[ ]	/* SetRefPoint0 */
PUSHW[ ]	/* 1 value pushed */
37 
MDRP[10000]	/* MoveDirectRelPt */
PUSHW[ ]	/* 1 value pushed */
37 
MDAP[1]	/* MoveDirectAbsPt */
PUSHW[ ]	/* 1 value pushed */
34 
SRP0[ ]	/* SetRefPoint0 */
PUSHW[ ]	/* 1 value pushed */
39 
MDRP[10000]	/* MoveDirectRelPt */
PUSHW[ ]	/* 1 value pushed */
39 
MDAP[1]	/* MoveDirectAbsPt */
PUSHW[ ]	/* 1 value pushed */
34 
SRP0[ ]	/* SetRefPoint0 */
PUSHW[ ]	/* 1 value pushed */
41 
MDRP[10000]	/* MoveDirectRelPt */
PUSHW[ ]	/* 1 value pushed */
41 
MDAP[1]	/* MoveDirectAbsPt */
PUSHW[ ]	/* 1 value pushed */
34 
SRP0[ ]	/* SetRefPoint0 */
PUSHW[ ]	/* 1 value pushed */
68 
MDRP[10000]	/* MoveDirectRelPt */
PUSHW[ ]	/* 1 value pushed */
68 
MDAP[1]	/* MoveDirectAbsPt */
PUSHW[ ]	/* 1 value pushed */
34 
SRP0[ ]	/* SetRefPoint0 */
PUSHW[ ]	/* 1 value pushed */
70 
MDRP[10000]	/* MoveDirectRelPt */
PUSHW[ ]	/* 1 value pushed */
70 
MDAP[1]	/* MoveDirectAbsPt */
PUSHW[ ]	/* 1 value pushed */
34 
SRP0[ ]	/* SetRefPoint0 */
PUSHW[ ]	/* 1 value pushed */
72 
MDRP[10000]	/* MoveDirectRelPt */
PUSHW[ ]	/* 1 value pushed */
72 
MDAP[1]	/* MoveDirectAbsPt */
PUSHW[ ]	/* 1 value pushed */
34 
SRP0[ ]	/* SetRefPoint0 */
PUSHW[ ]	/* 1 value pushed */
75 
MDRP[10000]	/* MoveDirectRelPt */
PUSHW[ ]	/* 1 value pushed */
75 
MDAP[1]	/* MoveDirectAbsPt */
SVTCA[0]	/* SetFreedomAndProjectionVectorToAxis */
PUSHW[ ]	/* 1 value pushed */
0 
RCVT[ ]	/* ReadCVT */
IF[ ]	/* If */
PUSHW[ ]	/* 1 value pushed */
1 
MDAP[1]	/* MoveDirectAbsPt */
ELSE[ ]	/* Else */
PUSHW[ ]	/* 2 values pushed */
1 14 
MIAP[0]	/* MoveIndirectAbsPt */
EIF[ ]	/* EndIf */
PUSHW[ ]	/* 1 value pushed */
0 
RCVT[ ]	/* ReadCVT */
IF[ ]	/* If */
PUSHW[ ]	/* 1 value pushed */
27 
MDAP[1]	/* MoveDirectAbsPt */
ELSE[ ]	/* Else */
PUSHW[ ]	/* 2 values pushed */
27 8 
MIAP[0]	/* MoveIndirectAbsPt */
EIF[ ]	/* EndIf */
IUP[0]	/* InterpolateUntPts */
IUP[1]	/* InterpolateUntPts */";
};
width = 656;
}
);
note = F;
unicode = 0046;
},
{
glyphname = G;
lastChange = "2019-03-14 18:39:42 +0000";
layers = (
{
layerId = "6873DD1C-7BCD-4DE2-A211-237E2294755D";
paths = (
{
closed = 1;
nodes = (
"768.333 330.333 OFFCURVE",
"737 322.667 OFFCURVE",
"725 304 CURVE SMOOTH",
"715.667 289.333 OFFCURVE",
"716 254.667 OFFCURVE",
"716 224 CURVE SMOOTH",
"716 78 LINE",
"703.586 67.36 OFFCURVE",
"657.41 45.252 OFFCURVE",
"614.5 29.5 CURVE SMOOTH",
"561.833 10.167 OFFCURVE",
"495 -5 OFFCURVE",
"431 -5 CURVE SMOOTH",
"304.333 -5 OFFCURVE",
"203.167 28.167 OFFCURVE",
"134.5 91.5 CURVE SMOOTH",
"65.833 154.833 OFFCURVE",
"28 247.667 OFFCURVE",
"28 361 CURVE SMOOTH",
"28 439.496 OFFCURVE",
"57.92 548.393 OFFCURVE",
"142 630 CURVE SMOOTH",
"206 692.667 OFFCURVE",
"296.667 734 OFFCURVE",
"430 734 CURVE SMOOTH",
"510 734 OFFCURVE",
"571.5 717.167 OFFCURVE",
"613.5 700.5 CURVE SMOOTH",
"641.932 689.217 OFFCURVE",
"678.781 667 OFFCURVE",
"681 667 CURVE SMOOTH",
"682.333 667 OFFCURVE",
"686 671 OFFCURVE",
"692 679 CURVE SMOOTH",
"698 687 OFFCURVE",
"705.333 696.667 OFFCURVE",
"714 708 CURVE",
"723 708 LINE",
"723 490 LINE",
"711 490 LINE",
"696.333 550 OFFCURVE",
"664.333 606.333 OFFCURVE",
"631 641 CURVE SMOOTH",
"588.333 686.333 OFFCURVE",
"519.667 717 OFFCURVE",
"437 717 CURVE SMOOTH",
"349 717 OFFCURVE",
"277.333 674.5 OFFCURVE",
"228 608.5 CURVE SMOOTH",
"178.667 542.5 OFFCURVE",
"151 453.667 OFFCURVE",
"151 359 CURVE SMOOTH",
"151 255 OFFCURVE",
"177 167.333 OFFCURVE",
"225 106 CURVE SMOOTH",
"273 44.667 OFFCURVE",
"342.667 9 OFFCURVE",
"432 9 CURVE SMOOTH",
"496 9 OFFCURVE",
"555 29.667 OFFCURVE",
"587 79 CURVE SMOOTH",
"597.667 96.333 OFFCURVE",
"603 146.333 OFFCURVE",
"603 193 CURVE SMOOTH",
"603 239.667 OFFCURVE",
"601.667 278 OFFCURVE",
"579 302 CURVE SMOOTH",
"563.667 319.333 OFFCURVE",
"536.667 329.667 OFFCURVE",
"498 333 CURVE",
"498 343 LINE",
"791 343 LINE",
"791 333 LINE"
);
}
);
userData = {
assembly = "PUSHW[ ]	/* 1 value pushed */
66 
MDAP[1]	/* MoveDirectAbsPt */
PUSHW[ ]	/* 4 values pushed */
60 7 8 4 
CALL[ ]	/* CallFunction */
PUSHW[ ]	/* 1 value pushed */
60 
SRP0[ ]	/* SetRefPoint0 */
PUSHW[ ]	/* 1 value pushed */
66 
SRP0[ ]	/* SetRefPoint0 */
PUSHW[ ]	/* 1 value pushed */
49 
MDRP[10000]	/* MoveDirectRelPt */
PUSHW[ ]	/* 1 value pushed */
49 
MDAP[1]	/* MoveDirectAbsPt */
PUSHW[ ]	/* 2 values pushed */
19 7 
MIRP[11100]	/* MoveIndirectRelPt */
NPUSHW[ ]	/* 13 values pushed */
6 19 22 19 38 19 54 19 70 19 86 19 6 
DELTAP1[ ]	/* DeltaExceptionP1 */
NPUSHW[ ]	/* 5 values pushed */
101 19 117 19 2 
DELTAP1[ ]	/* DeltaExceptionP1 */
PUSHW[ ]	/* 1 value pushed */
60 
SRP0[ ]	/* SetRefPoint0 */
PUSHW[ ]	/* 1 value pushed */
30 
MDRP[10000]	/* MoveDirectRelPt */
PUSHW[ ]	/* 1 value pushed */
30 
MDAP[1]	/* MoveDirectAbsPt */
PUSHW[ ]	/* 1 value pushed */
60 
SRP0[ ]	/* SetRefPoint0 */
PUSHW[ ]	/* 1 value pushed */
31 
MDRP[10000]	/* MoveDirectRelPt */
PUSHW[ ]	/* 1 value pushed */
31 
MDAP[1]	/* MoveDirectAbsPt */
PUSHW[ ]	/* 1 value pushed */
60 
SRP0[ ]	/* SetRefPoint0 */
PUSHW[ ]	/* 1 value pushed */
33 
MDRP[10000]	/* MoveDirectRelPt */
PUSHW[ ]	/* 1 value pushed */
33 
MDAP[1]	/* MoveDirectAbsPt */
SVTCA[0]	/* SetFreedomAndProjectionVectorToAxis */
PUSHW[ ]	/* 1 value pushed */
0 
RCVT[ ]	/* ReadCVT */
IF[ ]	/* If */
PUSHW[ ]	/* 1 value pushed */
41 
MDAP[1]	/* MoveDirectAbsPt */
ELSE[ ]	/* Else */
PUSHW[ ]	/* 2 values pushed */
41 14 
MIAP[0]	/* MoveIndirectAbsPt */
EIF[ ]	/* EndIf */
PUSHW[ ]	/* 1 value pushed */
0 
RCVT[ ]	/* ReadCVT */
IF[ ]	/* If */
PUSHW[ ]	/* 1 value pushed */
54 
MDAP[1]	/* MoveDirectAbsPt */
ELSE[ ]	/* Else */
PUSHW[ ]	/* 2 values pushed */
54 8 
MIAP[0]	/* MoveIndirectAbsPt */
EIF[ ]	/* EndIf */
IUP[0]	/* InterpolateUntPts */
IUP[1]	/* InterpolateUntPts */";
};
width = 825;
}
);
note = G;
unicode = 0047;
},
{
glyphname = H;
lastChange = "2019-03-14 18:39:42 +0000";
layers = (
{
layerId = "6873DD1C-7BCD-4DE2-A211-237E2294755D";
paths = (
{
closed = 1;
nodes = (
"543 0 LINE",
"543 10 LINE",
"592.333 14 OFFCURVE",
"627.333 29.667 OFFCURVE",
"638 47 CURVE",
"644.577 56.865 OFFCURVE",
"646 104.133 OFFCURVE",
"646 130 CURVE SMOOTH",
"646.667 152 OFFCURVE",
"647 174.667 OFFCURVE",
"647 198 CURVE SMOOTH",
"647 222 OFFCURVE",
"647 244.333 OFFCURVE",
"647 265 CURVE SMOOTH",
"647 286.333 OFFCURVE",
"647 305 OFFCURVE",
"647 321 CURVE SMOOTH",
"647 337.667 OFFCURVE",
"647 349.333 OFFCURVE",
"647 356 CURVE",
"252 356 LINE",
"252 141 LINE SMOOTH",
"252 102.333 OFFCURVE",
"251.333 61.667 OFFCURVE",
"262 47 CURVE SMOOTH",
"278 24.333 OFFCURVE",
"311 12.667 OFFCURVE",
"339 10 CURVE",
"339 0 LINE",
"44 0 LINE",
"44 10 LINE",
"77.333 15.333 OFFCURVE",
"111 28.333 OFFCURVE",
"127 47 CURVE SMOOTH",
"137.224 59.78 OFFCURVE",
"141 120.613 OFFCURVE",
"141 156 CURVE SMOOTH",
"141 181.48 OFFCURVE",
"143 269.869 OFFCURVE",
"143 305 CURVE SMOOTH",
"143 325.667 OFFCURVE",
"143 345 OFFCURVE",
"143 363 CURVE SMOOTH",
"143 558 LINE SMOOTH",
"143 570 OFFCURVE",
"143 582 OFFCURVE",
"143 594 CURVE SMOOTH",
"143 622.204 OFFCURVE",
"139.257 661.866 OFFCURVE",
"128 675 CURVE SMOOTH",
"109.333 697.667 OFFCURVE",
"81.667 706 OFFCURVE",
"47 710 CURVE",
"47 720 LINE",
"345 720 LINE",
"345 710 LINE",
"299.66 703.523 OFFCURVE",
"256.529 688.173 OFFCURVE",
"254 630 CURVE SMOOTH",
"252.667 583.333 OFFCURVE",
"252 526.333 OFFCURVE",
"252 477 CURVE SMOOTH",
"252 453 OFFCURVE",
"252 431.667 OFFCURVE",
"252 413 CURVE SMOOTH",
"252 395 OFFCURVE",
"252 382.667 OFFCURVE",
"252 376 CURVE",
"647 376 LINE",
"647 397.333 OFFCURVE",
"647 416.667 OFFCURVE",
"647 434 CURVE SMOOTH",
"647 452 OFFCURVE",
"647 469.333 OFFCURVE",
"647 486 CURVE SMOOTH",
"647 502.667 OFFCURVE",
"647 519.667 OFFCURVE",
"647 537 CURVE SMOOTH",
"647 554.333 OFFCURVE",
"646.667 574 OFFCURVE",
"646 596 CURVE SMOOTH",
"644.667 621.333 OFFCURVE",
"644.667 651.667 OFFCURVE",
"634 669 CURVE",
"610 705 OFFCURVE",
"577.667 708.667 OFFCURVE",
"547 710 CURVE",
"547 720 LINE",
"848 720 LINE",
"848 710 LINE",
"816 706 OFFCURVE",
"781.667 692.667 OFFCURVE",
"767 666 CURVE SMOOTH",
"759.703 653.23 OFFCURVE",
"757 612.286 OFFCURVE",
"757 587 CURVE SMOOTH",
"757 576.333 OFFCURVE",
"757 566 OFFCURVE",
"757 556 CURVE SMOOTH",
"757 385 LINE SMOOTH",
"757 360.333 OFFCURVE",
"757 338 OFFCURVE",
"757 318 CURVE SMOOTH",
"757 298.667 OFFCURVE",
"757 279.333 OFFCURVE",
"757 260 CURVE SMOOTH",
"757 241.333 OFFCURVE",
"757.167 222 OFFCURVE",
"757.5 202 CURVE SMOOTH",
"757.833 182 OFFCURVE",
"758 160 OFFCURVE",
"758 136 CURVE SMOOTH",
"758 97.333 OFFCURVE",
"759 61 OFFCURVE",
"767 49 CURVE SMOOTH",
"784.333 22.333 OFFCURVE",
"815.333 14 OFFCURVE",
"850 10 CURVE",
"850 0 LINE"
);
}
);
userData = {
assembly = "PUSHW[ ]	/* 1 value pushed */
111 
MDAP[1]	/* MoveDirectAbsPt */
PUSHW[ ]	/* 4 values pushed */
46 7 66 4 
CALL[ ]	/* CallFunction */
PUSHW[ ]	/* 1 value pushed */
46 
SRP0[ ]	/* SetRefPoint0 */
PUSHW[ ]	/* 1 value pushed */
111 
SRP0[ ]	/* SetRefPoint0 */
PUSHW[ ]	/* 1 value pushed */
7 
MDRP[11100]	/* MoveDirectRelPt */
PUSHW[ ]	/* 1 value pushed */
10 
MDRP[10000]	/* MoveDirectRelPt */
PUSHW[ ]	/* 1 value pushed */
10 
MDAP[1]	/* MoveDirectAbsPt */
PUSHW[ ]	/* 1 value pushed */
7 
SRP0[ ]	/* SetRefPoint0 */
PUSHW[ ]	/* 1 value pushed */
12 
MDRP[10000]	/* MoveDirectRelPt */
PUSHW[ ]	/* 1 value pushed */
12 
MDAP[1]	/* MoveDirectAbsPt */
PUSHW[ ]	/* 1 value pushed */
7 
SRP0[ ]	/* SetRefPoint0 */
PUSHW[ ]	/* 1 value pushed */
14 
MDRP[10000]	/* MoveDirectRelPt */
PUSHW[ ]	/* 1 value pushed */
14 
MDAP[1]	/* MoveDirectAbsPt */
PUSHW[ ]	/* 1 value pushed */
7 
SRP0[ ]	/* SetRefPoint0 */
PUSHW[ ]	/* 1 value pushed */
17 
MDRP[10000]	/* MoveDirectRelPt */
PUSHW[ ]	/* 1 value pushed */
17 
MDAP[1]	/* MoveDirectAbsPt */
PUSHW[ ]	/* 1 value pushed */
7 
SRP0[ ]	/* SetRefPoint0 */
PUSHW[ ]	/* 2 values pushed */
100 7 
MIRP[11100]	/* MoveIndirectRelPt */
NPUSHW[ ]	/* 5 values pushed */
106 100 122 100 2 
DELTAP1[ ]	/* DeltaExceptionP1 */
NPUSHW[ ]	/* 13 values pushed */
9 100 25 100 41 100 57 100 73 100 89 100 6 
DELTAP1[ ]	/* DeltaExceptionP1 */
PUSHW[ ]	/* 1 value pushed */
33 
MDRP[10000]	/* MoveDirectRelPt */
PUSHW[ ]	/* 1 value pushed */
100 
SRP0[ ]	/* SetRefPoint0 */
PUSHW[ ]	/* 1 value pushed */
35 
MDRP[10000]	/* MoveDirectRelPt */
PUSHW[ ]	/* 1 value pushed */
35 
MDAP[1]	/* MoveDirectAbsPt */
PUSHW[ ]	/* 1 value pushed */
100 
SRP0[ ]	/* SetRefPoint0 */
PUSHW[ ]	/* 1 value pushed */
37 
MDRP[10000]	/* MoveDirectRelPt */
PUSHW[ ]	/* 1 value pushed */
37 
MDAP[1]	/* MoveDirectAbsPt */
PUSHW[ ]	/* 1 value pushed */
100 
SRP0[ ]	/* SetRefPoint0 */
PUSHW[ ]	/* 1 value pushed */
39 
MDRP[10000]	/* MoveDirectRelPt */
PUSHW[ ]	/* 1 value pushed */
39 
MDAP[1]	/* MoveDirectAbsPt */
PUSHW[ ]	/* 1 value pushed */
100 
SRP0[ ]	/* SetRefPoint0 */
PUSHW[ ]	/* 1 value pushed */
41 
MDRP[10000]	/* MoveDirectRelPt */
PUSHW[ ]	/* 1 value pushed */
41 
MDAP[1]	/* MoveDirectAbsPt */
PUSHW[ ]	/* 1 value pushed */
46 
SRP0[ ]	/* SetRefPoint0 */
PUSHW[ ]	/* 1 value pushed */
42 
MDRP[10000]	/* MoveDirectRelPt */
PUSHW[ ]	/* 1 value pushed */
46 
SRP0[ ]	/* SetRefPoint0 */
PUSHW[ ]	/* 1 value pushed */
44 
MDRP[10000]	/* MoveDirectRelPt */
PUSHW[ ]	/* 1 value pushed */
46 
SRP0[ ]	/* SetRefPoint0 */
PUSHW[ ]	/* 1 value pushed */
49 
MDRP[10000]	/* MoveDirectRelPt */
PUSHW[ ]	/* 1 value pushed */
49 
MDAP[1]	/* MoveDirectAbsPt */
PUSHW[ ]	/* 1 value pushed */
66 
SRP0[ ]	/* SetRefPoint0 */
PUSHW[ ]	/* 1 value pushed */
64 
MDRP[10000]	/* MoveDirectRelPt */
PUSHW[ ]	/* 1 value pushed */
66 
SRP0[ ]	/* SetRefPoint0 */
PUSHW[ ]	/* 1 value pushed */
69 
MDRP[10000]	/* MoveDirectRelPt */
PUSHW[ ]	/* 1 value pushed */
66 
SRP0[ ]	/* SetRefPoint0 */
PUSHW[ ]	/* 1 value pushed */
73 
MDRP[10000]	/* MoveDirectRelPt */
PUSHW[ ]	/* 1 value pushed */
73 
MDAP[1]	/* MoveDirectAbsPt */
PUSHW[ ]	/* 1 value pushed */
46 
SRP0[ ]	/* SetRefPoint0 */
PUSHW[ ]	/* 1 value pushed */
90 
MDRP[10000]	/* MoveDirectRelPt */
PUSHW[ ]	/* 1 value pushed */
100 
SRP0[ ]	/* SetRefPoint0 */
PUSHW[ ]	/* 1 value pushed */
92 
MDRP[10000]	/* MoveDirectRelPt */
PUSHW[ ]	/* 1 value pushed */
92 
MDAP[1]	/* MoveDirectAbsPt */
PUSHW[ ]	/* 1 value pushed */
100 
SRP0[ ]	/* SetRefPoint0 */
PUSHW[ ]	/* 1 value pushed */
94 
MDRP[10000]	/* MoveDirectRelPt */
PUSHW[ ]	/* 1 value pushed */
94 
MDAP[1]	/* MoveDirectAbsPt */
PUSHW[ ]	/* 1 value pushed */
100 
SRP0[ ]	/* SetRefPoint0 */
PUSHW[ ]	/* 1 value pushed */
96 
MDRP[10000]	/* MoveDirectRelPt */
PUSHW[ ]	/* 1 value pushed */
96 
MDAP[1]	/* MoveDirectAbsPt */
PUSHW[ ]	/* 1 value pushed */
100 
SRP0[ ]	/* SetRefPoint0 */
PUSHW[ ]	/* 1 value pushed */
98 
MDRP[10000]	/* MoveDirectRelPt */
PUSHW[ ]	/* 1 value pushed */
98 
MDAP[1]	/* MoveDirectAbsPt */
SVTCA[0]	/* SetFreedomAndProjectionVectorToAxis */
PUSHW[ ]	/* 1 value pushed */
67 
MDAP[1]	/* MoveDirectAbsPt */
PUSHW[ ]	/* 1 value pushed */
91 
MDAP[1]	/* MoveDirectAbsPt */
PUSHW[ ]	/* 1 value pushed */
0 
RCVT[ ]	/* ReadCVT */
IF[ ]	/* If */
PUSHW[ ]	/* 1 value pushed */
25 
MDAP[1]	/* MoveDirectAbsPt */
ELSE[ ]	/* Else */
PUSHW[ ]	/* 2 values pushed */
25 14 
MIAP[0]	/* MoveIndirectAbsPt */
EIF[ ]	/* EndIf */
PUSHW[ ]	/* 1 value pushed */
0 
RCVT[ ]	/* ReadCVT */
IF[ ]	/* If */
PUSHW[ ]	/* 1 value pushed */
55 
MDAP[1]	/* MoveDirectAbsPt */
ELSE[ ]	/* Else */
PUSHW[ ]	/* 2 values pushed */
55 14 
MIAP[0]	/* MoveIndirectAbsPt */
EIF[ ]	/* EndIf */
PUSHW[ ]	/* 1 value pushed */
0 
RCVT[ ]	/* ReadCVT */
IF[ ]	/* If */
PUSHW[ ]	/* 1 value pushed */
0 
MDAP[1]	/* MoveDirectAbsPt */
ELSE[ ]	/* Else */
PUSHW[ ]	/* 2 values pushed */
0 8 
MIAP[0]	/* MoveIndirectAbsPt */
EIF[ ]	/* EndIf */
PUSHW[ ]	/* 1 value pushed */
0 
RCVT[ ]	/* ReadCVT */
IF[ ]	/* If */
PUSHW[ ]	/* 1 value pushed */
82 
MDAP[1]	/* MoveDirectAbsPt */
ELSE[ ]	/* Else */
PUSHW[ ]	/* 2 values pushed */
82 8 
MIAP[0]	/* MoveIndirectAbsPt */
EIF[ ]	/* EndIf */
IUP[0]	/* InterpolateUntPts */
IUP[1]	/* InterpolateUntPts */";
};
width = 900;
}
);
note = H;
unicode = 0048;
},
{
glyphname = I;
lastChange = "2019-03-14 18:39:42 +0000";
layers = (
{
layerId = "6873DD1C-7BCD-4DE2-A211-237E2294755D";
paths = (
{
closed = 1;
nodes = (
"46 0 LINE",
"46 10 LINE",
"79.333 15.333 OFFCURVE",
"109 26.333 OFFCURVE",
"129 49 CURVE SMOOTH",
"141.92 64.504 OFFCURVE",
"143 119.286 OFFCURVE",
"143 156 CURVE SMOOTH",
"143 181.48 OFFCURVE",
"145 269.869 OFFCURVE",
"145 305 CURVE SMOOTH",
"145 325.667 OFFCURVE",
"145 345 OFFCURVE",
"145 363 CURVE SMOOTH",
"145 558 LINE SMOOTH",
"145 570 OFFCURVE",
"145 582 OFFCURVE",
"145 594 CURVE SMOOTH",
"145 622.204 OFFCURVE",
"141.257 661.866 OFFCURVE",
"130 675 CURVE SMOOTH",
"111.333 697.667 OFFCURVE",
"83.667 706 OFFCURVE",
"49 710 CURVE",
"49 720 LINE",
"348 720 LINE",
"348 710 LINE",
"320 706 OFFCURVE",
"283.333 699 OFFCURVE",
"266 667 CURVE SMOOTH",
"260 655.667 OFFCURVE",
"256.833 641.333 OFFCURVE",
"256.5 624 CURVE SMOOTH",
"256.167 606.667 OFFCURVE",
"255.667 590.333 OFFCURVE",
"255 575 CURVE",
"255 558.333 OFFCURVE",
"254.833 541.833 OFFCURVE",
"254.5 525.5 CURVE SMOOTH",
"254.167 509.167 OFFCURVE",
"254 492.667 OFFCURVE",
"254 476 CURVE SMOOTH",
"254 459.333 OFFCURVE",
"254 442 OFFCURVE",
"254 424 CURVE SMOOTH",
"254 406.667 OFFCURVE",
"254 387.667 OFFCURVE",
"254 367 CURVE SMOOTH",
"254 141 LINE SMOOTH",
"254 102.333 OFFCURVE",
"253.333 61.667 OFFCURVE",
"264 47 CURVE SMOOTH",
"280 24.333 OFFCURVE",
"321 12.667 OFFCURVE",
"349 10 CURVE",
"349 0 LINE"
);
}
);
userData = {
assembly = "PUSHW[ ]	/* 4 values pushed */
12 7 33 4 
CALL[ ]	/* CallFunction */
PUSHW[ ]	/* 1 value pushed */
12 
SRP0[ ]	/* SetRefPoint0 */
PUSHW[ ]	/* 1 value pushed */
7 
MDRP[10000]	/* MoveDirectRelPt */
PUSHW[ ]	/* 1 value pushed */
12 
SRP0[ ]	/* SetRefPoint0 */
PUSHW[ ]	/* 1 value pushed */
10 
MDRP[10000]	/* MoveDirectRelPt */
PUSHW[ ]	/* 1 value pushed */
12 
SRP0[ ]	/* SetRefPoint0 */
PUSHW[ ]	/* 1 value pushed */
15 
MDRP[10000]	/* MoveDirectRelPt */
PUSHW[ ]	/* 1 value pushed */
15 
MDAP[1]	/* MoveDirectAbsPt */
PUSHW[ ]	/* 1 value pushed */
33 
SRP0[ ]	/* SetRefPoint0 */
PUSHW[ ]	/* 1 value pushed */
31 
MDRP[10000]	/* MoveDirectRelPt */
PUSHW[ ]	/* 1 value pushed */
33 
SRP0[ ]	/* SetRefPoint0 */
PUSHW[ ]	/* 1 value pushed */
36 
MDRP[10000]	/* MoveDirectRelPt */
PUSHW[ ]	/* 1 value pushed */
33 
SRP0[ ]	/* SetRefPoint0 */
PUSHW[ ]	/* 1 value pushed */
40 
MDRP[10000]	/* MoveDirectRelPt */
PUSHW[ ]	/* 1 value pushed */
40 
MDAP[1]	/* MoveDirectAbsPt */
SVTCA[0]	/* SetFreedomAndProjectionVectorToAxis */
PUSHW[ ]	/* 1 value pushed */
0 
RCVT[ ]	/* ReadCVT */
IF[ ]	/* If */
PUSHW[ ]	/* 1 value pushed */
22 
MDAP[1]	/* MoveDirectAbsPt */
ELSE[ ]	/* Else */
PUSHW[ ]	/* 2 values pushed */
22 14 
MIAP[0]	/* MoveIndirectAbsPt */
EIF[ ]	/* EndIf */
PUSHW[ ]	/* 1 value pushed */
0 
RCVT[ ]	/* ReadCVT */
IF[ ]	/* If */
PUSHW[ ]	/* 1 value pushed */
0 
MDAP[1]	/* MoveDirectAbsPt */
ELSE[ ]	/* Else */
PUSHW[ ]	/* 2 values pushed */
0 8 
MIAP[0]	/* MoveIndirectAbsPt */
EIF[ ]	/* EndIf */
IUP[0]	/* InterpolateUntPts */
IUP[1]	/* InterpolateUntPts */";
};
width = 399;
}
);
note = I;
unicode = 0049;
},
{
glyphname = J;
lastChange = "2019-03-14 18:39:42 +0000";
layers = (
{
layerId = "6873DD1C-7BCD-4DE2-A211-237E2294755D";
paths = (
{
closed = 1;
nodes = (
"352 706 OFFCURVE",
"313.333 699 OFFCURVE",
"296 667 CURVE SMOOTH",
"290.667 656.333 OFFCURVE",
"287.667 642.167 OFFCURVE",
"287 624.5 CURVE SMOOTH",
"286.333 606.833 OFFCURVE",
"285.667 590.333 OFFCURVE",
"285 575 CURVE",
"285 558.333 OFFCURVE",
"284.833 541.833 OFFCURVE",
"284.5 525.5 CURVE SMOOTH",
"284.167 509.167 OFFCURVE",
"284 492.667 OFFCURVE",
"284 476 CURVE SMOOTH",
"284 459.333 OFFCURVE",
"284 442 OFFCURVE",
"284 424 CURVE SMOOTH",
"284 406.667 OFFCURVE",
"284 387.667 OFFCURVE",
"284 367 CURVE SMOOTH",
"284 132 LINE SMOOTH",
"284 88 OFFCURVE",
"260.667 58.667 OFFCURVE",
"226 32 CURVE SMOOTH",
"183.333 -1.333 OFFCURVE",
"134.667 -15 OFFCURVE",
"96 -15 CURVE SMOOTH",
"49.543 -15 OFFCURVE",
"9 5.854 OFFCURVE",
"9 54 CURVE SMOOTH",
"9 86 OFFCURVE",
"37.333 108 OFFCURVE",
"68 108 CURVE SMOOTH",
"94.667 108 OFFCURVE",
"117 85.667 OFFCURVE",
"117 59 CURVE SMOOTH",
"117 28.333 OFFCURVE",
"96 16 OFFCURVE",
"68 12 CURVE",
"68 9 LINE",
"74.667 -0.333 OFFCURVE",
"88.333 -5 OFFCURVE",
"99 -5 CURVE SMOOTH",
"132.333 -5 OFFCURVE",
"152.667 19.333 OFFCURVE",
"162 50 CURVE SMOOTH",
"170 79.333 OFFCURVE",
"172.667 118.667 OFFCURVE",
"174 156 CURVE",
"174 165.333 OFFCURVE",
"174.167 178 OFFCURVE",
"174.5 194 CURVE SMOOTH",
"174.833 210 OFFCURVE",
"175 227.333 OFFCURVE",
"175 246 CURVE SMOOTH",
"175 265.333 OFFCURVE",
"175 285 OFFCURVE",
"175 305 CURVE SMOOTH",
"175 325.667 OFFCURVE",
"175 345 OFFCURVE",
"175 363 CURVE SMOOTH",
"175 558 LINE SMOOTH",
"175 570 OFFCURVE",
"175 582 OFFCURVE",
"175 594 CURVE SMOOTH",
"175 622.022 OFFCURVE",
"171.425 665.837 OFFCURVE",
"161 678 CURVE SMOOTH",
"142.333 700.667 OFFCURVE",
"106.667 706 OFFCURVE",
"72 710 CURVE",
"72 720 LINE",
"380 720 LINE",
"380 710 LINE"
);
}
);
userData = {
assembly = "PUSHW[ ]	/* 1 value pushed */
64 
MDAP[1]	/* MoveDirectAbsPt */
PUSHW[ ]	/* 4 values pushed */
55 7 12 4 
CALL[ ]	/* CallFunction */
PUSHW[ ]	/* 1 value pushed */
55 
SRP0[ ]	/* SetRefPoint0 */
PUSHW[ ]	/* 1 value pushed */
12 
SRP0[ ]	/* SetRefPoint0 */
PUSHW[ ]	/* 1 value pushed */
10 
MDRP[10000]	/* MoveDirectRelPt */
PUSHW[ ]	/* 1 value pushed */
12 
SRP0[ ]	/* SetRefPoint0 */
PUSHW[ ]	/* 1 value pushed */
15 
MDRP[10000]	/* MoveDirectRelPt */
PUSHW[ ]	/* 1 value pushed */
12 
SRP0[ ]	/* SetRefPoint0 */
PUSHW[ ]	/* 1 value pushed */
17 
MDRP[10000]	/* MoveDirectRelPt */
PUSHW[ ]	/* 1 value pushed */
12 
SRP0[ ]	/* SetRefPoint0 */
PUSHW[ ]	/* 1 value pushed */
20 
MDRP[10000]	/* MoveDirectRelPt */
PUSHW[ ]	/* 1 value pushed */
20 
MDAP[1]	/* MoveDirectAbsPt */
PUSHW[ ]	/* 1 value pushed */
64 
SRP0[ ]	/* SetRefPoint0 */
PUSHW[ ]	/* 1 value pushed */
39 
MDRP[10000]	/* MoveDirectRelPt */
PUSHW[ ]	/* 1 value pushed */
39 
MDAP[1]	/* MoveDirectAbsPt */
PUSHW[ ]	/* 2 values pushed */
33 7 
MIRP[11100]	/* MoveIndirectRelPt */
NPUSHW[ ]	/* 13 values pushed */
6 33 22 33 38 33 54 33 70 33 86 33 6 
DELTAP1[ ]	/* DeltaExceptionP1 */
NPUSHW[ ]	/* 5 values pushed */
101 33 117 33 2 
DELTAP1[ ]	/* DeltaExceptionP1 */
PUSHW[ ]	/* 3 values pushed */
30 39 33 
SRP1[ ]	/* SetRefPoint1 */
SRP2[ ]	/* SetRefPoint2 */
IP[ ]	/* InterpolatePts */
PUSHW[ ]	/* 1 value pushed */
55 
SRP0[ ]	/* SetRefPoint0 */
PUSHW[ ]	/* 1 value pushed */
50 
MDRP[10000]	/* MoveDirectRelPt */
PUSHW[ ]	/* 1 value pushed */
55 
SRP0[ ]	/* SetRefPoint0 */
PUSHW[ ]	/* 1 value pushed */
53 
MDRP[10000]	/* MoveDirectRelPt */
PUSHW[ ]	/* 1 value pushed */
55 
SRP0[ ]	/* SetRefPoint0 */
PUSHW[ ]	/* 1 value pushed */
58 
MDRP[10000]	/* MoveDirectRelPt */
PUSHW[ ]	/* 1 value pushed */
58 
MDAP[1]	/* MoveDirectAbsPt */
SVTCA[0]	/* SetFreedomAndProjectionVectorToAxis */
PUSHW[ ]	/* 1 value pushed */
0 
RCVT[ ]	/* ReadCVT */
IF[ ]	/* If */
PUSHW[ ]	/* 1 value pushed */
1 
MDAP[1]	/* MoveDirectAbsPt */
ELSE[ ]	/* Else */
PUSHW[ ]	/* 2 values pushed */
1 14 
MIAP[0]	/* MoveIndirectAbsPt */
EIF[ ]	/* EndIf */
PUSHW[ ]	/* 4 values pushed */
36 4 44 4 
CALL[ ]	/* CallFunction */
PUSHW[ ]	/* 1 value pushed */
36 
SRP0[ ]	/* SetRefPoint0 */
PUSHW[ ]	/* 3 values pushed */
30 44 36 
SRP1[ ]	/* SetRefPoint1 */
SRP2[ ]	/* SetRefPoint2 */
IP[ ]	/* InterpolatePts */
IUP[0]	/* InterpolateUntPts */
IUP[1]	/* InterpolateUntPts */";
};
width = 399;
}
);
note = J;
unicode = 004A;
},
{
glyphname = K;
lastChange = "2019-03-14 18:39:42 +0000";
layers = (
{
layerId = "6873DD1C-7BCD-4DE2-A211-237E2294755D";
paths = (
{
closed = 1;
nodes = (
"580 0 LINE",
"574.667 2.667 OFFCURVE",
"568 6.667 OFFCURVE",
"560 16 CURVE SMOOTH",
"517.333 65.333 OFFCURVE",
"476.833 112.167 OFFCURVE",
"438.5 156.5 CURVE SMOOTH",
"400.167 200.833 OFFCURVE",
"360.333 245.667 OFFCURVE",
"319 291 CURVE SMOOTH",
"301.667 310.333 OFFCURVE",
"289.833 322.333 OFFCURVE",
"283.5 327 CURVE SMOOTH",
"277.167 331.667 OFFCURVE",
"271.667 334 OFFCURVE",
"267 334 CURVE SMOOTH",
"256.333 334 OFFCURVE",
"255 329.667 OFFCURVE",
"251 319 CURVE",
"251 284.333 OFFCURVE",
"251 251.333 OFFCURVE",
"251 220 CURVE SMOOTH",
"251 189.333 OFFCURVE",
"251.333 163 OFFCURVE",
"252 141 CURVE SMOOTH",
"253.333 102.333 OFFCURVE",
"255.667 66.333 OFFCURVE",
"269 49 CURVE",
"286.846 23.506 OFFCURVE",
"336.864 12.814 OFFCURVE",
"365 10 CURVE",
"365 0 LINE",
"44 0 LINE",
"44 10 LINE",
"77.333 15.333 OFFCURVE",
"111 25.333 OFFCURVE",
"127 44 CURVE SMOOTH",
"140.28 59.936 OFFCURVE",
"142 118.832 OFFCURVE",
"142 156 CURVE SMOOTH",
"142 165.333 OFFCURVE",
"142.167 178 OFFCURVE",
"142.5 194 CURVE SMOOTH",
"142.833 210 OFFCURVE",
"143 227.333 OFFCURVE",
"143 246 CURVE SMOOTH",
"143 265.333 OFFCURVE",
"143 285 OFFCURVE",
"143 305 CURVE SMOOTH",
"143 325.667 OFFCURVE",
"143 345 OFFCURVE",
"143 363 CURVE SMOOTH",
"143 558 LINE SMOOTH",
"143 608.667 OFFCURVE",
"141.667 655.333 OFFCURVE",
"127 674 CURVE SMOOTH",
"108.333 696.667 OFFCURVE",
"81.667 706 OFFCURVE",
"47 710 CURVE",
"47 720 LINE",
"357 720 LINE",
"357 710 LINE",
"294.479 703.419 OFFCURVE",
"256.374 689.695 OFFCURVE",
"254 590 CURVE SMOOTH",
"252.667 559.333 OFFCURVE",
"252 535.667 OFFCURVE",
"252 501 CURVE SMOOTH",
"252 483.667 OFFCURVE",
"252 462.667 OFFCURVE",
"252 438 CURVE SMOOTH",
"252 414 OFFCURVE",
"252 383.333 OFFCURVE",
"252 346 CURVE",
"306.034 379.02 OFFCURVE",
"427.043 505.963 OFFCURVE",
"488 572 CURVE",
"510.667 598.667 OFFCURVE",
"532 628.333 OFFCURVE",
"532 651 CURVE SMOOTH",
"532 689.667 OFFCURVE",
"500.667 704.667 OFFCURVE",
"466 710 CURVE",
"466 720 LINE",
"734 720 LINE",
"734 710 LINE",
"666 703.333 OFFCURVE",
"597 645.667 OFFCURVE",
"525 579 CURVE SMOOTH",
"497.062 553.722 OFFCURVE",
"392.492 448.463 OFFCURVE",
"359 413 CURVE",
"372.977 395.529 OFFCURVE",
"421.919 339.466 OFFCURVE",
"465 291 CURVE SMOOTH",
"518.333 231 OFFCURVE",
"582 159.667 OFFCURVE",
"638 97 CURVE SMOOTH",
"653.272 78.673 OFFCURVE",
"707.866 30.711 OFFCURVE",
"719 27 CURVE",
"736.333 20.333 OFFCURVE",
"767.667 12.667 OFFCURVE",
"805 10 CURVE",
"805 0 LINE"
);
}
);
userData = {
assembly = "PUSHW[ ]	/* 4 values pushed */
40 7 57 4 
CALL[ ]	/* CallFunction */
PUSHW[ ]	/* 1 value pushed */
40 
SRP0[ ]	/* SetRefPoint0 */
PUSHW[ ]	/* 1 value pushed */
36 
MDRP[10000]	/* MoveDirectRelPt */
PUSHW[ ]	/* 1 value pushed */
40 
SRP0[ ]	/* SetRefPoint0 */
PUSHW[ ]	/* 1 value pushed */
38 
MDRP[10000]	/* MoveDirectRelPt */
PUSHW[ ]	/* 1 value pushed */
40 
SRP0[ ]	/* SetRefPoint0 */
PUSHW[ ]	/* 1 value pushed */
43 
MDRP[10000]	/* MoveDirectRelPt */
PUSHW[ ]	/* 1 value pushed */
43 
MDAP[1]	/* MoveDirectAbsPt */
PUSHW[ ]	/* 1 value pushed */
57 
SRP0[ ]	/* SetRefPoint0 */
PUSHW[ ]	/* 1 value pushed */
60 
MDRP[10000]	/* MoveDirectRelPt */
PUSHW[ ]	/* 1 value pushed */
57 
SRP0[ ]	/* SetRefPoint0 */
PUSHW[ ]	/* 1 value pushed */
62 
MDRP[10000]	/* MoveDirectRelPt */
PUSHW[ ]	/* 1 value pushed */
57 
SRP0[ ]	/* SetRefPoint0 */
PUSHW[ ]	/* 1 value pushed */
65 
MDRP[10000]	/* MoveDirectRelPt */
PUSHW[ ]	/* 1 value pushed */
65 
MDAP[1]	/* MoveDirectAbsPt */
PUSHW[ ]	/* 1 value pushed */
40 
SRP0[ ]	/* SetRefPoint0 */
PUSHW[ ]	/* 1 value pushed */
84 
MDRP[10000]	/* MoveDirectRelPt */
PUSHW[ ]	/* 1 value pushed */
40 
SRP0[ ]	/* SetRefPoint0 */
PUSHW[ ]	/* 1 value pushed */
86 
MDRP[10000]	/* MoveDirectRelPt */
PUSHW[ ]	/* 1 value pushed */
86 
MDAP[1]	/* MoveDirectAbsPt */
PUSHW[ ]	/* 1 value pushed */
40 
SRP0[ ]	/* SetRefPoint0 */
PUSHW[ ]	/* 1 value pushed */
88 
MDRP[10000]	/* MoveDirectRelPt */
PUSHW[ ]	/* 1 value pushed */
88 
MDAP[1]	/* MoveDirectAbsPt */
SVTCA[0]	/* SetFreedomAndProjectionVectorToAxis */
PUSHW[ ]	/* 1 value pushed */
0 
RCVT[ ]	/* ReadCVT */
IF[ ]	/* If */
PUSHW[ ]	/* 1 value pushed */
23 
MDAP[1]	/* MoveDirectAbsPt */
ELSE[ ]	/* Else */
PUSHW[ ]	/* 2 values pushed */
23 14 
MIAP[0]	/* MoveIndirectAbsPt */
EIF[ ]	/* EndIf */
PUSHW[ ]	/* 1 value pushed */
0 
RCVT[ ]	/* ReadCVT */
IF[ ]	/* If */
PUSHW[ ]	/* 1 value pushed */
49 
MDAP[1]	/* MoveDirectAbsPt */
ELSE[ ]	/* Else */
PUSHW[ ]	/* 2 values pushed */
49 14 
MIAP[0]	/* MoveIndirectAbsPt */
EIF[ ]	/* EndIf */
PUSHW[ ]	/* 1 value pushed */
0 
RCVT[ ]	/* ReadCVT */
IF[ ]	/* If */
PUSHW[ ]	/* 1 value pushed */
0 
MDAP[1]	/* MoveDirectAbsPt */
ELSE[ ]	/* Else */
PUSHW[ ]	/* 2 values pushed */
0 8 
MIAP[0]	/* MoveIndirectAbsPt */
EIF[ ]	/* EndIf */
PUSHW[ ]	/* 1 value pushed */
0 
RCVT[ ]	/* ReadCVT */
IF[ ]	/* If */
PUSHW[ ]	/* 1 value pushed */
74 
MDAP[1]	/* MoveDirectAbsPt */
ELSE[ ]	/* Else */
PUSHW[ ]	/* 2 values pushed */
74 8 
MIAP[0]	/* MoveIndirectAbsPt */
EIF[ ]	/* EndIf */
PUSHW[ ]	/* 3 values pushed */
36 0 23 
SRP1[ ]	/* SetRefPoint1 */
SRP2[ ]	/* SetRefPoint2 */
IP[ ]	/* InterpolatePts */
IUP[0]	/* InterpolateUntPts */
IUP[1]	/* InterpolateUntPts */";
};
width = 767;
}
);
note = K;
unicode = 004B;
},
{
glyphname = L;
lastChange = "2019-03-14 18:39:42 +0000";
layers = (
{
layerId = "6873DD1C-7BCD-4DE2-A211-237E2294755D";
paths = (
{
closed = 1;
nodes = (
"676 0 LINE",
"34 0 LINE",
"34 10 LINE",
"67.333 15.333 OFFCURVE",
"103.333 26.667 OFFCURVE",
"122 48 CURVE SMOOTH",
"135.189 63.827 OFFCURVE",
"141 119.909 OFFCURVE",
"141 156 CURVE SMOOTH",
"141 181.48 OFFCURVE",
"143 269.869 OFFCURVE",
"143 305 CURVE SMOOTH",
"143 325.667 OFFCURVE",
"143 345 OFFCURVE",
"143 363 CURVE SMOOTH",
"143 557 LINE SMOOTH",
"143 569 OFFCURVE",
"143 580.667 OFFCURVE",
"143 592 CURVE SMOOTH",
"143 620.972 OFFCURVE",
"139.17 658.968 OFFCURVE",
"128 672 CURVE SMOOTH",
"109.333 694.667 OFFCURVE",
"75.667 706 OFFCURVE",
"41 710 CURVE",
"41 720 LINE",
"360 720 LINE",
"360 710 LINE",
"312.884 702.751 OFFCURVE",
"257.455 688.291 OFFCURVE",
"255 622 CURVE SMOOTH",
"254.065 589.284 OFFCURVE",
"252 472.655 OFFCURVE",
"252 443 CURVE SMOOTH",
"252 423 OFFCURVE",
"252 400.667 OFFCURVE",
"252 376 CURVE SMOOTH",
"252 353.333 OFFCURVE",
"252 332.667 OFFCURVE",
"252 314 CURVE SMOOTH",
"252 296 OFFCURVE",
"252 278.333 OFFCURVE",
"252 261 CURVE SMOOTH",
"252 243.667 OFFCURVE",
"252.167 225.833 OFFCURVE",
"252.5 207.5 CURVE SMOOTH",
"252.833 189.167 OFFCURVE",
"253 168.667 OFFCURVE",
"253 146 CURVE SMOOTH",
"254.333 103.333 OFFCURVE",
"254 60.667 OFFCURVE",
"266 42 CURVE",
"277.823 27.221 OFFCURVE",
"343.926 15 OFFCURVE",
"388 15 CURVE SMOOTH",
"411.496 15 OFFCURVE",
"494.906 18.502 OFFCURVE",
"534 30 CURVE SMOOTH",
"635.213 57.834 OFFCURVE",
"668.987 123.968 OFFCURVE",
"703 209 CURVE",
"713 206 LINE"
);
}
);
userData = {
assembly = "PUSHW[ ]	/* 4 values pushed */
19 7 52 4 
CALL[ ]	/* CallFunction */
PUSHW[ ]	/* 1 value pushed */
19 
SRP0[ ]	/* SetRefPoint0 */
NPUSHW[ ]	/* 13 values pushed */
6 19 22 19 38 19 54 19 70 19 86 19 6 
DELTAP1[ ]	/* DeltaExceptionP1 */
NPUSHW[ ]	/* 5 values pushed */
101 19 117 19 2 
DELTAP1[ ]	/* DeltaExceptionP1 */
PUSHW[ ]	/* 1 value pushed */
22 
MDRP[10000]	/* MoveDirectRelPt */
PUSHW[ ]	/* 1 value pushed */
22 
MDAP[1]	/* MoveDirectAbsPt */
PUSHW[ ]	/* 1 value pushed */
19 
SRP0[ ]	/* SetRefPoint0 */
PUSHW[ ]	/* 1 value pushed */
24 
MDRP[10000]	/* MoveDirectRelPt */
PUSHW[ ]	/* 1 value pushed */
24 
MDAP[1]	/* MoveDirectAbsPt */
PUSHW[ ]	/* 1 value pushed */
19 
SRP0[ ]	/* SetRefPoint0 */
PUSHW[ ]	/* 1 value pushed */
26 
MDRP[10000]	/* MoveDirectRelPt */
PUSHW[ ]	/* 1 value pushed */
26 
MDAP[1]	/* MoveDirectAbsPt */
PUSHW[ ]	/* 1 value pushed */
19 
SRP0[ ]	/* SetRefPoint0 */
PUSHW[ ]	/* 1 value pushed */
28 
MDRP[10000]	/* MoveDirectRelPt */
PUSHW[ ]	/* 1 value pushed */
28 
MDAP[1]	/* MoveDirectAbsPt */
PUSHW[ ]	/* 1 value pushed */
19 
SRP0[ ]	/* SetRefPoint0 */
PUSHW[ ]	/* 1 value pushed */
32 
MDRP[10000]	/* MoveDirectRelPt */
PUSHW[ ]	/* 1 value pushed */
32 
MDAP[1]	/* MoveDirectAbsPt */
PUSHW[ ]	/* 1 value pushed */
52 
SRP0[ ]	/* SetRefPoint0 */
PUSHW[ ]	/* 1 value pushed */
47 
MDRP[10000]	/* MoveDirectRelPt */
PUSHW[ ]	/* 1 value pushed */
52 
SRP0[ ]	/* SetRefPoint0 */
PUSHW[ ]	/* 1 value pushed */
49 
MDRP[10000]	/* MoveDirectRelPt */
PUSHW[ ]	/* 1 value pushed */
52 
SRP0[ ]	/* SetRefPoint0 */
PUSHW[ ]	/* 1 value pushed */
56 
MDRP[10000]	/* MoveDirectRelPt */
PUSHW[ ]	/* 1 value pushed */
56 
MDAP[1]	/* MoveDirectAbsPt */
SVTCA[0]	/* SetFreedomAndProjectionVectorToAxis */
PUSHW[ ]	/* 1 value pushed */
0 
RCVT[ ]	/* ReadCVT */
IF[ ]	/* If */
PUSHW[ ]	/* 1 value pushed */
38 
MDAP[1]	/* MoveDirectAbsPt */
ELSE[ ]	/* Else */
PUSHW[ ]	/* 2 values pushed */
38 14 
MIAP[0]	/* MoveIndirectAbsPt */
EIF[ ]	/* EndIf */
PUSHW[ ]	/* 1 value pushed */
0 
RCVT[ ]	/* ReadCVT */
IF[ ]	/* If */
PUSHW[ ]	/* 1 value pushed */
65 
MDAP[1]	/* MoveDirectAbsPt */
ELSE[ ]	/* Else */
PUSHW[ ]	/* 2 values pushed */
65 8 
MIAP[0]	/* MoveIndirectAbsPt */
EIF[ ]	/* EndIf */
IUP[0]	/* InterpolateUntPts */
IUP[1]	/* InterpolateUntPts */";
};
width = 708;
}
);
note = L;
unicode = 004C;
},
{
glyphname = M;
lastChange = "2019-03-14 18:39:42 +0000";
layers = (
{
layerId = "6873DD1C-7BCD-4DE2-A211-237E2294755D";
paths = (
{
closed = 1;
nodes = (
"616 0 LINE",
"616 11 LINE",
"673.333 13.667 OFFCURVE",
"713.667 38 OFFCURVE",
"727 66 CURVE SMOOTH",
"735 83.333 OFFCURVE",
"738.667 111.333 OFFCURVE",
"740 138 CURVE SMOOTH",
"741.333 182 OFFCURVE",
"742 224 OFFCURVE",
"742 264 CURVE SMOOTH",
"742 304 OFFCURVE",
"742 345.333 OFFCURVE",
"742 388 CURVE SMOOTH",
"742 671 LINE",
"708.518 595.918 OFFCURVE",
"655.191 475.602 OFFCURVE",
"627 414 CURVE SMOOTH",
"591 335.333 OFFCURVE",
"556 256.667 OFFCURVE",
"512 158 CURVE",
"504.488 142.976 OFFCURVE",
"458.168 32.505 OFFCURVE",
"453 17 CURVE",
"447 17 LINE",
"412.22 97.429 OFFCURVE",
"355.129 229.959 OFFCURVE",
"322 304.5 CURVE SMOOTH",
"302 349.5 OFFCURVE",
"283.333 391.667 OFFCURVE",
"266 431 CURVE SMOOTH",
"242.46 484.417 OFFCURVE",
"180.294 623.553 OFFCURVE",
"166 655 CURVE",
"166 567 OFFCURVE",
"165.167 504.5 OFFCURVE",
"164.5 438.5 CURVE SMOOTH",
"164.167 405.5 OFFCURVE",
"164 370.667 OFFCURVE",
"164 334 CURVE SMOOTH",
"164 297.333 OFFCURVE",
"164 254.667 OFFCURVE",
"164 206 CURVE SMOOTH",
"164 79.953 OFFCURVE",
"171.338 26 OFFCURVE",
"286 10 CURVE",
"286 0 LINE",
"25 0 LINE",
"25 10 LINE",
"120.116 29.023 OFFCURVE",
"140.493 86.137 OFFCURVE",
"143 214 CURVE SMOOTH",
"145.667 271.333 OFFCURVE",
"147 351.667 OFFCURVE",
"147 441 CURVE SMOOTH",
"147 460.333 OFFCURVE",
"147 476.667 OFFCURVE",
"147 490 CURVE SMOOTH",
"147 503.333 OFFCURVE",
"147 516 OFFCURVE",
"147 528 CURVE SMOOTH",
"147 540.667 OFFCURVE",
"147 553.667 OFFCURVE",
"147 567 CURVE SMOOTH",
"147 580.333 OFFCURVE",
"146.667 596.667 OFFCURVE",
"146 616 CURVE SMOOTH",
"143.57 684.027 OFFCURVE",
"91.4 702.6 OFFCURVE",
"47 710 CURVE",
"47 720 LINE",
"260 720 LINE",
"499 176 LINE",
"557.667 302.667 OFFCURVE",
"615.833 433.667 OFFCURVE",
"660.5 535 CURVE SMOOTH",
"695.905 615.323 OFFCURVE",
"732.62 700.319 OFFCURVE",
"740 720 CURVE",
"953 720 LINE",
"953 710 LINE",
"898.333 708.667 OFFCURVE",
"871.667 684.333 OFFCURVE",
"861 655 CURVE SMOOTH",
"853 632.333 OFFCURVE",
"851.333 577.667 OFFCURVE",
"850 531 CURVE SMOOTH",
"849.333 499 OFFCURVE",
"849 468 OFFCURVE",
"849 438 CURVE SMOOTH",
"849 408 OFFCURVE",
"849 377.667 OFFCURVE",
"849 347 CURVE SMOOTH",
"849 311 OFFCURVE",
"849 275 OFFCURVE",
"849 239 CURVE SMOOTH",
"849 203.667 OFFCURVE",
"849.333 166.333 OFFCURVE",
"850 127 CURVE SMOOTH",
"850 101.667 OFFCURVE",
"853 72.667 OFFCURVE",
"861 58 CURVE",
"871.167 37.667 OFFCURVE",
"911.347 11.986 OFFCURVE",
"959 10 CURVE",
"959 0 LINE"
);
}
);
userData = {
assembly = "PUSHW[ ]	/* 4 values pushed */
17 7 86 4 
CALL[ ]	/* CallFunction */
PUSHW[ ]	/* 1 value pushed */
17 
SRP0[ ]	/* SetRefPoint0 */
PUSHW[ ]	/* 1 value pushed */
9 
MDRP[10000]	/* MoveDirectRelPt */
PUSHW[ ]	/* 1 value pushed */
17 
SRP0[ ]	/* SetRefPoint0 */
PUSHW[ ]	/* 1 value pushed */
11 
MDRP[10000]	/* MoveDirectRelPt */
PUSHW[ ]	/* 1 value pushed */
11 
MDAP[1]	/* MoveDirectAbsPt */
PUSHW[ ]	/* 1 value pushed */
17 
SRP0[ ]	/* SetRefPoint0 */
PUSHW[ ]	/* 1 value pushed */
13 
MDRP[10000]	/* MoveDirectRelPt */
PUSHW[ ]	/* 1 value pushed */
13 
MDAP[1]	/* MoveDirectAbsPt */
PUSHW[ ]	/* 1 value pushed */
17 
SRP0[ ]	/* SetRefPoint0 */
PUSHW[ ]	/* 1 value pushed */
15 
MDRP[10000]	/* MoveDirectRelPt */
PUSHW[ ]	/* 1 value pushed */
15 
MDAP[1]	/* MoveDirectAbsPt */
PUSHW[ ]	/* 1 value pushed */
86 
SRP0[ ]	/* SetRefPoint0 */
PUSHW[ ]	/* 1 value pushed */
89 
MDRP[10000]	/* MoveDirectRelPt */
PUSHW[ ]	/* 1 value pushed */
86 
SRP0[ ]	/* SetRefPoint0 */
PUSHW[ ]	/* 1 value pushed */
91 
MDRP[10000]	/* MoveDirectRelPt */
PUSHW[ ]	/* 1 value pushed */
91 
MDAP[1]	/* MoveDirectAbsPt */
PUSHW[ ]	/* 1 value pushed */
17 
SRP0[ ]	/* SetRefPoint0 */
PUSHW[ ]	/* 1 value pushed */
100 
MDRP[11100]	/* MoveDirectRelPt */
SVTCA[0]	/* SetFreedomAndProjectionVectorToAxis */
PUSHW[ ]	/* 1 value pushed */
0 
RCVT[ ]	/* ReadCVT */
IF[ ]	/* If */
PUSHW[ ]	/* 1 value pushed */
24 
MDAP[1]	/* MoveDirectAbsPt */
ELSE[ ]	/* Else */
PUSHW[ ]	/* 2 values pushed */
24 14 
MIAP[0]	/* MoveIndirectAbsPt */
EIF[ ]	/* EndIf */
PUSHW[ ]	/* 1 value pushed */
0 
RCVT[ ]	/* ReadCVT */
IF[ ]	/* If */
PUSHW[ ]	/* 1 value pushed */
31 
MDAP[1]	/* MoveDirectAbsPt */
ELSE[ ]	/* Else */
PUSHW[ ]	/* 2 values pushed */
31 14 
MIAP[0]	/* MoveIndirectAbsPt */
EIF[ ]	/* EndIf */
PUSHW[ ]	/* 1 value pushed */
0 
RCVT[ ]	/* ReadCVT */
IF[ ]	/* If */
PUSHW[ ]	/* 1 value pushed */
0 
MDAP[1]	/* MoveDirectAbsPt */
ELSE[ ]	/* Else */
PUSHW[ ]	/* 2 values pushed */
0 8 
MIAP[0]	/* MoveIndirectAbsPt */
EIF[ ]	/* EndIf */
PUSHW[ ]	/* 1 value pushed */
0 
RCVT[ ]	/* ReadCVT */
IF[ ]	/* If */
PUSHW[ ]	/* 1 value pushed */
55 
MDAP[1]	/* MoveDirectAbsPt */
ELSE[ ]	/* Else */
PUSHW[ ]	/* 2 values pushed */
55 8 
MIAP[0]	/* MoveIndirectAbsPt */
EIF[ ]	/* EndIf */
PUSHW[ ]	/* 3 values pushed */
30 0 24 
SRP1[ ]	/* SetRefPoint1 */
SRP2[ ]	/* SetRefPoint2 */
IP[ ]	/* InterpolatePts */
PUSHW[ ]	/* 3 values pushed */
68 0 24 
SRP1[ ]	/* SetRefPoint1 */
SRP2[ ]	/* SetRefPoint2 */
IP[ ]	/* InterpolatePts */
PUSHW[ ]	/* 3 values pushed */
76 0 24 
SRP1[ ]	/* SetRefPoint1 */
SRP2[ ]	/* SetRefPoint2 */
IP[ ]	/* InterpolatePts */
PUSHW[ ]	/* 3 values pushed */
86 0 24 
SRP1[ ]	/* SetRefPoint1 */
SRP2[ ]	/* SetRefPoint2 */
IP[ ]	/* InterpolatePts */
IUP[0]	/* InterpolateUntPts */
IUP[1]	/* InterpolateUntPts */";
};
width = 991;
}
);
note = M;
unicode = 004D;
},
{
glyphname = N;
lastChange = "2019-03-14 18:39:42 +0000";
layers = (
{
layerId = "6873DD1C-7BCD-4DE2-A211-237E2294755D";
paths = (
{
closed = 1;
nodes = (
"796.667 703.333 OFFCURVE",
"768 686.667 OFFCURVE",
"752 648 CURVE",
"742.667 628 OFFCURVE",
"741.667 567.333 OFFCURVE",
"739 506 CURVE SMOOTH",
"736.333 448.667 OFFCURVE",
"734 368.333 OFFCURVE",
"734 279 CURVE SMOOTH",
"734 260.333 OFFCURVE",
"734 239 OFFCURVE",
"734 215 CURVE SMOOTH",
"734 191.667 OFFCURVE",
"734.167 167.833 OFFCURVE",
"734.5 143.5 CURVE SMOOTH",
"734.833 119.167 OFFCURVE",
"735 95 OFFCURVE",
"735 71 CURVE SMOOTH",
"735 47 OFFCURVE",
"735 25.333 OFFCURVE",
"735 6 CURVE SMOOTH",
"735 0.667 OFFCURVE",
"731.667 -3 OFFCURVE",
"725 -3 CURVE SMOOTH",
"719.667 -3 OFFCURVE",
"713.667 0.333 OFFCURVE",
"707 7 CURVE",
"593.667 137.667 OFFCURVE",
"503.167 244.167 OFFCURVE",
"418.5 343.5 CURVE SMOOTH",
"333.833 442.833 OFFCURVE",
"255.667 534.667 OFFCURVE",
"165 636 CURVE",
"165 214 LINE SMOOTH",
"165 146 OFFCURVE",
"166.667 87.667 OFFCURVE",
"180 61 CURVE SMOOTH",
"194.667 30.333 OFFCURVE",
"224.333 16.667 OFFCURVE",
"279 10 CURVE",
"279 0 LINE",
"33 0 LINE",
"33 10 LINE",
"65 14 OFFCURVE",
"100.333 24.667 OFFCURVE",
"119 54 CURVE SMOOTH",
"137.667 82 OFFCURVE",
"140.333 138 OFFCURVE",
"143 214 CURVE SMOOTH",
"145.667 271.333 OFFCURVE",
"147 351.667 OFFCURVE",
"147 441 CURVE SMOOTH",
"147 460.333 OFFCURVE",
"147 476.333 OFFCURVE",
"147 489 CURVE SMOOTH",
"147 501.667 OFFCURVE",
"147 514 OFFCURVE",
"147 526 CURVE SMOOTH",
"147 538 OFFCURVE",
"147 550.333 OFFCURVE",
"147 563 CURVE SMOOTH",
"147 576.333 OFFCURVE",
"146.667 592.667 OFFCURVE",
"146 612 CURVE",
"138.541 684.1 OFFCURVE",
"91.79 703.526 OFFCURVE",
"40 710 CURVE",
"40 720 LINE",
"243 720 LINE",
"717 166 LINE",
"717 506 LINE SMOOTH",
"717 559.333 OFFCURVE",
"717.667 612 OFFCURVE",
"707 640 CURVE SMOOTH",
"693.667 677.333 OFFCURVE",
"662 700.667 OFFCURVE",
"598 710 CURVE",
"598 720 LINE",
"846 720 LINE",
"846 710 LINE"
);
}
);
userData = {
assembly = "SVTCA[0]	/* SetFreedomAndProjectionVectorToAxis */
PUSHW[ ]	/* 1 value pushed */
0 
RCVT[ ]	/* ReadCVT */
IF[ ]	/* If */
PUSHW[ ]	/* 1 value pushed */
1 
MDAP[1]	/* MoveDirectAbsPt */
ELSE[ ]	/* Else */
PUSHW[ ]	/* 2 values pushed */
1 14 
MIAP[0]	/* MoveIndirectAbsPt */
EIF[ ]	/* EndIf */
PUSHW[ ]	/* 1 value pushed */
0 
RCVT[ ]	/* ReadCVT */
IF[ ]	/* If */
PUSHW[ ]	/* 1 value pushed */
11 
MDAP[1]	/* MoveDirectAbsPt */
ELSE[ ]	/* Else */
PUSHW[ ]	/* 2 values pushed */
11 14 
MIAP[0]	/* MoveIndirectAbsPt */
EIF[ ]	/* EndIf */
PUSHW[ ]	/* 1 value pushed */
0 
RCVT[ ]	/* ReadCVT */
IF[ ]	/* If */
PUSHW[ ]	/* 1 value pushed */
36 
MDAP[1]	/* MoveDirectAbsPt */
ELSE[ ]	/* Else */
PUSHW[ ]	/* 2 values pushed */
36 8 
MIAP[0]	/* MoveIndirectAbsPt */
EIF[ ]	/* EndIf */
PUSHW[ ]	/* 1 value pushed */
0 
RCVT[ ]	/* ReadCVT */
IF[ ]	/* If */
PUSHW[ ]	/* 1 value pushed */
52 
MDAP[1]	/* MoveDirectAbsPt */
ELSE[ ]	/* Else */
PUSHW[ ]	/* 2 values pushed */
52 8 
MIAP[0]	/* MoveIndirectAbsPt */
EIF[ ]	/* EndIf */
PUSHW[ ]	/* 3 values pushed */
10 52 1 
SRP1[ ]	/* SetRefPoint1 */
SRP2[ ]	/* SetRefPoint2 */
IP[ ]	/* InterpolatePts */
PUSHW[ ]	/* 3 values pushed */
45 52 1 
SRP1[ ]	/* SetRefPoint1 */
SRP2[ ]	/* SetRefPoint2 */
IP[ ]	/* InterpolatePts */
IUP[0]	/* InterpolateUntPts */
IUP[1]	/* InterpolateUntPts */";
};
width = 875;
}
);
note = N;
unicode = 004E;
},
{
glyphname = O;
lastChange = "2019-03-14 18:39:42 +0000";
layers = (
{
layerId = "6873DD1C-7BCD-4DE2-A211-237E2294755D";
paths = (
{
closed = 1;
nodes = (
"779 258.333 OFFCURVE",
"736.167 165.667 OFFCURVE",
"667.5 99 CURVE SMOOTH",
"598.833 32.333 OFFCURVE",
"504.667 -5 OFFCURVE",
"402 -5 CURVE SMOOTH",
"300.667 -5 OFFCURVE",
"207 31.833 OFFCURVE",
"139 96.5 CURVE SMOOTH",
"71 161.167 OFFCURVE",
"29 253 OFFCURVE",
"29 361 CURVE SMOOTH",
"29 475.667 OFFCURVE",
"73.5 568.167 OFFCURVE",
"143.5 631.5 CURVE SMOOTH",
"213.5 694.833 OFFCURVE",
"311 730 OFFCURVE",
"415 730 CURVE SMOOTH",
"528.333 730 OFFCURVE",
"619.333 686.833 OFFCURVE",
"682 619.5 CURVE SMOOTH",
"744.667 552.167 OFFCURVE",
"779 461 OFFCURVE",
"779 365 CURVE SMOOTH"
);
},
{
closed = 1;
nodes = (
"655 532.116 OFFCURVE",
"569.104 713 OFFCURVE",
"403 713 CURVE SMOOTH",
"316.333 713 OFFCURVE",
"253.167 666.667 OFFCURVE",
"212.5 600 CURVE SMOOTH",
"171.833 533.333 OFFCURVE",
"153 444.667 OFFCURVE",
"153 358 CURVE SMOOTH",
"153 267.333 OFFCURVE",
"174.5 180 OFFCURVE",
"216.5 116 CURVE SMOOTH",
"258.5 52 OFFCURVE",
"322 10 OFFCURVE",
"406 10 CURVE SMOOTH",
"490 10 OFFCURVE",
"551.667 57.167 OFFCURVE",
"593 124.5 CURVE SMOOTH",
"634.333 191.833 OFFCURVE",
"655 280 OFFCURVE",
"655 364 CURVE SMOOTH"
);
}
);
userData = {
assembly = "PUSHW[ ]	/* 1 value pushed */
40 
MDAP[1]	/* MoveDirectAbsPt */
PUSHW[ ]	/* 1 value pushed */
41 
MDAP[1]	/* MoveDirectAbsPt */
PUSHW[ ]	/* 1 value pushed */
0 
MDRP[11100]	/* MoveDirectRelPt */
PUSHW[ ]	/* 1 value pushed */
40 
SRP0[ ]	/* SetRefPoint0 */
PUSHW[ ]	/* 1 value pushed */
10 
MDRP[10000]	/* MoveDirectRelPt */
PUSHW[ ]	/* 1 value pushed */
10 
MDAP[1]	/* MoveDirectAbsPt */
PUSHW[ ]	/* 1 value pushed */
0 
SRP0[ ]	/* SetRefPoint0 */
PUSHW[ ]	/* 2 values pushed */
20 7 
MIRP[11100]	/* MoveIndirectRelPt */
NPUSHW[ ]	/* 5 values pushed */
106 20 122 20 2 
DELTAP1[ ]	/* DeltaExceptionP1 */
NPUSHW[ ]	/* 13 values pushed */
9 20 25 20 41 20 57 20 73 20 89 20 6 
DELTAP1[ ]	/* DeltaExceptionP1 */
PUSHW[ ]	/* 1 value pushed */
10 
SRP0[ ]	/* SetRefPoint0 */
PUSHW[ ]	/* 2 values pushed */
30 7 
MIRP[11100]	/* MoveIndirectRelPt */
NPUSHW[ ]	/* 13 values pushed */
6 30 22 30 38 30 54 30 70 30 86 30 6 
DELTAP1[ ]	/* DeltaExceptionP1 */
NPUSHW[ ]	/* 5 values pushed */
101 30 117 30 2 
DELTAP1[ ]	/* DeltaExceptionP1 */
SVTCA[0]	/* SetFreedomAndProjectionVectorToAxis */
PUSHW[ ]	/* 1 value pushed */
0 
RCVT[ ]	/* ReadCVT */
IF[ ]	/* If */
PUSHW[ ]	/* 1 value pushed */
5 
MDAP[1]	/* MoveDirectAbsPt */
ELSE[ ]	/* Else */
PUSHW[ ]	/* 2 values pushed */
5 14 
MIAP[0]	/* MoveIndirectAbsPt */
EIF[ ]	/* EndIf */
PUSHW[ ]	/* 1 value pushed */
0 
RCVT[ ]	/* ReadCVT */
IF[ ]	/* If */
PUSHW[ ]	/* 1 value pushed */
15 
MDAP[1]	/* MoveDirectAbsPt */
ELSE[ ]	/* Else */
PUSHW[ ]	/* 2 values pushed */
15 8 
MIAP[0]	/* MoveIndirectAbsPt */
EIF[ ]	/* EndIf */
IUP[0]	/* InterpolateUntPts */
IUP[1]	/* InterpolateUntPts */";
};
width = 808;
}
);
note = O;
unicode = 004F;
},
{
glyphname = P;
lastChange = "2019-03-14 18:39:42 +0000";
layers = (
{
layerId = "6873DD1C-7BCD-4DE2-A211-237E2294755D";
paths = (
{
closed = 1;
nodes = (
"636 417.119 OFFCURVE",
"571.291 354.626 OFFCURVE",
"494 326 CURVE SMOOTH",
"444.984 308.494 OFFCURVE",
"359.193 301 OFFCURVE",
"306 301 CURVE SMOOTH",
"286 301 OFFCURVE",
"268 301 OFFCURVE",
"252 301 CURVE",
"252 279.667 OFFCURVE",
"252 261.333 OFFCURVE",
"252 246 CURVE SMOOTH",
"252 231.333 OFFCURVE",
"252 218.333 OFFCURVE",
"252 207 CURVE SMOOTH",
"252 195.667 OFFCURVE",
"252.167 185.167 OFFCURVE",
"252.5 175.5 CURVE SMOOTH",
"252.833 165.833 OFFCURVE",
"253 155.333 OFFCURVE",
"253 144 CURVE SMOOTH",
"254.333 101.333 OFFCURVE",
"252.667 71 OFFCURVE",
"266 51 CURVE",
"276.667 33.667 OFFCURVE",
"306.333 12.667 OFFCURVE",
"361 10 CURVE",
"361 0 LINE",
"41 0 LINE",
"41 10 LINE",
"74.333 15.333 OFFCURVE",
"107.667 24.667 OFFCURVE",
"125 46 CURVE SMOOTH",
"137.405 60.886 OFFCURVE",
"141 121.138 OFFCURVE",
"141 156 CURVE SMOOTH",
"141 181.48 OFFCURVE",
"143 269.869 OFFCURVE",
"143 305 CURVE SMOOTH",
"143 325.667 OFFCURVE",
"143 345 OFFCURVE",
"143 363 CURVE SMOOTH",
"143 558 LINE SMOOTH",
"143 596.302 OFFCURVE",
"142.103 662.897 OFFCURVE",
"126 679 CURVE SMOOTH",
"106 700.333 OFFCURVE",
"73 704.667 OFFCURVE",
"37 710 CURVE",
"37 720 LINE",
"41 720 OFFCURVE",
"49 720 OFFCURVE",
"61 720 CURVE SMOOTH",
"73.667 720 OFFCURVE",
"88.5 720.167 OFFCURVE",
"105.5 720.5 CURVE SMOOTH",
"122.5 720.833 OFFCURVE",
"141 721 OFFCURVE",
"161 721 CURVE SMOOTH",
"181 721 OFFCURVE",
"200.833 721.167 OFFCURVE",
"220.5 721.5 CURVE SMOOTH",
"240.167 721.833 OFFCURVE",
"258.667 722 OFFCURVE",
"276 722 CURVE SMOOTH",
"294 722 OFFCURVE",
"309 722 OFFCURVE",
"321 722 CURVE SMOOTH",
"409 722 OFFCURVE",
"474 717.333 OFFCURVE",
"534 684 CURVE SMOOTH",
"592.667 652 OFFCURVE",
"636 592 OFFCURVE",
"636 512 CURVE SMOOTH"
);
},
{
closed = 1;
nodes = (
"528 594.333 OFFCURVE",
"485 657.333 OFFCURVE",
"421 688 CURVE SMOOTH",
"389 702.667 OFFCURVE",
"352.667 707 OFFCURVE",
"314 707 CURVE SMOOTH",
"300 707 OFFCURVE",
"289.167 706.5 OFFCURVE",
"281.5 705.5 CURVE SMOOTH",
"273.833 704.5 OFFCURVE",
"267.667 703.667 OFFCURVE",
"263 703 CURVE",
"250.204 626.225 OFFCURVE",
"255.681 664.662 OFFCURVE",
"254 626 CURVE SMOOTH",
"252.667 579.333 OFFCURVE",
"252 507 OFFCURVE",
"252 443 CURVE SMOOTH",
"252 411 OFFCURVE",
"252 383 OFFCURVE",
"252 359 CURVE SMOOTH",
"252 335 OFFCURVE",
"252 320.333 OFFCURVE",
"252 315 CURVE",
"306.667 315 OFFCURVE",
"354.667 316.333 OFFCURVE",
"396 331 CURVE SMOOTH",
"481.333 360.333 OFFCURVE",
"528 433 OFFCURVE",
"528 517 CURVE SMOOTH"
);
}
);
userData = {
assembly = "PUSHW[ ]	/* 1 value pushed */
94 
MDAP[1]	/* MoveDirectAbsPt */
PUSHW[ ]	/* 1 value pushed */
95 
MDAP[1]	/* MoveDirectAbsPt */
PUSHW[ ]	/* 1 value pushed */
0 
MDRP[11100]	/* MoveDirectRelPt */
PUSHW[ ]	/* 2 values pushed */
67 7 
MIRP[11100]	/* MoveIndirectRelPt */
NPUSHW[ ]	/* 5 values pushed */
106 67 122 67 2 
DELTAP1[ ]	/* DeltaExceptionP1 */
NPUSHW[ ]	/* 13 values pushed */
9 67 25 67 41 67 57 67 73 67 89 67 6 
DELTAP1[ ]	/* DeltaExceptionP1 */
PUSHW[ ]	/* 1 value pushed */
3 
MDRP[10000]	/* MoveDirectRelPt */
PUSHW[ ]	/* 1 value pushed */
3 
MDAP[1]	/* MoveDirectAbsPt */
PUSHW[ ]	/* 1 value pushed */
94 
SRP0[ ]	/* SetRefPoint0 */
PUSHW[ ]	/* 1 value pushed */
28 
MDRP[10000]	/* MoveDirectRelPt */
PUSHW[ ]	/* 1 value pushed */
28 
MDAP[1]	/* MoveDirectAbsPt */
PUSHW[ ]	/* 1 value pushed */
25 
MDRP[10000]	/* MoveDirectRelPt */
PUSHW[ ]	/* 1 value pushed */
28 
SRP0[ ]	/* SetRefPoint0 */
PUSHW[ ]	/* 1 value pushed */
32 
MDRP[10000]	/* MoveDirectRelPt */
PUSHW[ ]	/* 1 value pushed */
32 
MDAP[1]	/* MoveDirectAbsPt */
PUSHW[ ]	/* 1 value pushed */
28 
SRP0[ ]	/* SetRefPoint0 */
PUSHW[ ]	/* 2 values pushed */
49 7 
MIRP[11100]	/* MoveIndirectRelPt */
NPUSHW[ ]	/* 13 values pushed */
6 49 22 49 38 49 54 49 70 49 86 49 6 
DELTAP1[ ]	/* DeltaExceptionP1 */
NPUSHW[ ]	/* 5 values pushed */
101 49 117 49 2 
DELTAP1[ ]	/* DeltaExceptionP1 */
PUSHW[ ]	/* 1 value pushed */
52 
MDRP[10000]	/* MoveDirectRelPt */
PUSHW[ ]	/* 1 value pushed */
52 
MDAP[1]	/* MoveDirectAbsPt */
PUSHW[ ]	/* 1 value pushed */
49 
SRP0[ ]	/* SetRefPoint0 */
PUSHW[ ]	/* 1 value pushed */
54 
MDRP[10000]	/* MoveDirectRelPt */
PUSHW[ ]	/* 1 value pushed */
54 
MDAP[1]	/* MoveDirectAbsPt */
PUSHW[ ]	/* 1 value pushed */
49 
SRP0[ ]	/* SetRefPoint0 */
PUSHW[ ]	/* 1 value pushed */
56 
MDRP[10000]	/* MoveDirectRelPt */
PUSHW[ ]	/* 1 value pushed */
56 
MDAP[1]	/* MoveDirectAbsPt */
PUSHW[ ]	/* 1 value pushed */
49 
SRP0[ ]	/* SetRefPoint0 */
PUSHW[ ]	/* 1 value pushed */
73 
MDRP[10000]	/* MoveDirectRelPt */
PUSHW[ ]	/* 1 value pushed */
73 
MDAP[1]	/* MoveDirectAbsPt */
PUSHW[ ]	/* 1 value pushed */
49 
SRP0[ ]	/* SetRefPoint0 */
PUSHW[ ]	/* 1 value pushed */
75 
MDRP[10000]	/* MoveDirectRelPt */
PUSHW[ ]	/* 1 value pushed */
75 
MDAP[1]	/* MoveDirectAbsPt */
PUSHW[ ]	/* 1 value pushed */
49 
SRP0[ ]	/* SetRefPoint0 */
PUSHW[ ]	/* 1 value pushed */
77 
MDRP[10000]	/* MoveDirectRelPt */
PUSHW[ ]	/* 1 value pushed */
77 
MDAP[1]	/* MoveDirectAbsPt */
PUSHW[ ]	/* 1 value pushed */
49 
SRP0[ ]	/* SetRefPoint0 */
PUSHW[ ]	/* 1 value pushed */
80 
MDRP[10000]	/* MoveDirectRelPt */
PUSHW[ ]	/* 1 value pushed */
80 
MDAP[1]	/* MoveDirectAbsPt */
SVTCA[0]	/* SetFreedomAndProjectionVectorToAxis */
PUSHW[ ]	/* 1 value pushed */
0 
RCVT[ ]	/* ReadCVT */
IF[ ]	/* If */
PUSHW[ ]	/* 1 value pushed */
6 
MDAP[1]	/* MoveDirectAbsPt */
ELSE[ ]	/* Else */
PUSHW[ ]	/* 2 values pushed */
6 14 
MIAP[0]	/* MoveIndirectAbsPt */
EIF[ ]	/* EndIf */
PUSHW[ ]	/* 1 value pushed */
0 
RCVT[ ]	/* ReadCVT */
IF[ ]	/* If */
PUSHW[ ]	/* 1 value pushed */
8 
MDAP[1]	/* MoveDirectAbsPt */
ELSE[ ]	/* Else */
PUSHW[ ]	/* 2 values pushed */
8 14 
MIAP[0]	/* MoveIndirectAbsPt */
EIF[ ]	/* EndIf */
PUSHW[ ]	/* 1 value pushed */
0 
RCVT[ ]	/* ReadCVT */
IF[ ]	/* If */
PUSHW[ ]	/* 1 value pushed */
11 
MDAP[1]	/* MoveDirectAbsPt */
ELSE[ ]	/* Else */
PUSHW[ ]	/* 2 values pushed */
11 14 
MIAP[0]	/* MoveIndirectAbsPt */
EIF[ ]	/* EndIf */
PUSHW[ ]	/* 1 value pushed */
0 
RCVT[ ]	/* ReadCVT */
IF[ ]	/* If */
PUSHW[ ]	/* 1 value pushed */
14 
MDAP[1]	/* MoveDirectAbsPt */
ELSE[ ]	/* Else */
PUSHW[ ]	/* 2 values pushed */
14 14 
MIAP[0]	/* MoveIndirectAbsPt */
EIF[ ]	/* EndIf */
PUSHW[ ]	/* 1 value pushed */
0 
RCVT[ ]	/* ReadCVT */
IF[ ]	/* If */
PUSHW[ ]	/* 1 value pushed */
16 
MDAP[1]	/* MoveDirectAbsPt */
ELSE[ ]	/* Else */
PUSHW[ ]	/* 2 values pushed */
16 14 
MIAP[0]	/* MoveIndirectAbsPt */
EIF[ ]	/* EndIf */
PUSHW[ ]	/* 1 value pushed */
0 
RCVT[ ]	/* ReadCVT */
IF[ ]	/* If */
PUSHW[ ]	/* 1 value pushed */
41 
MDAP[1]	/* MoveDirectAbsPt */
ELSE[ ]	/* Else */
PUSHW[ ]	/* 2 values pushed */
41 8 
MIAP[0]	/* MoveIndirectAbsPt */
EIF[ ]	/* EndIf */
IUP[0]	/* InterpolateUntPts */
IUP[1]	/* InterpolateUntPts */";
};
width = 656;
}
);
note = P;
unicode = 0050;
},
{
glyphname = Q;
lastChange = "2019-03-14 18:39:42 +0000";
layers = (
{
layerId = "6873DD1C-7BCD-4DE2-A211-237E2294755D";
paths = (
{
closed = 1;
nodes = (
"779 270.333 OFFCURVE",
"744.833 187.833 OFFCURVE",
"689.5 124.5 CURVE SMOOTH",
"634.167 61.167 OFFCURVE",
"556 18 OFFCURVE",
"468 2 CURVE",
"468 -67.535 OFFCURVE",
"530.078 -107 OFFCURVE",
"601 -107 CURVE SMOOTH",
"625 -107 OFFCURVE",
"646.333 -104.667 OFFCURVE",
"673 -94 CURVE",
"678 -102 LINE",
"639.333 -128.667 OFFCURVE",
"589 -151 OFFCURVE",
"525 -151 CURVE SMOOTH",
"417.624 -151 OFFCURVE",
"339.313 -105.503 OFFCURVE",
"326 1 CURVE",
"244.667 18.333 OFFCURVE",
"170.5 61.5 OFFCURVE",
"116.5 123.5 CURVE SMOOTH",
"62.5 185.5 OFFCURVE",
"29 266.333 OFFCURVE",
"29 361 CURVE SMOOTH",
"29 473.667 OFFCURVE",
"72.333 567 OFFCURVE",
"159 641 CURVE SMOOTH",
"229.667 701 OFFCURVE",
"319 730 OFFCURVE",
"415 730 CURVE SMOOTH",
"528.333 730 OFFCURVE",
"619.333 686.833 OFFCURVE",
"682 619.5 CURVE SMOOTH",
"744.667 552.167 OFFCURVE",
"779 461 OFFCURVE",
"779 365 CURVE SMOOTH"
);
},
{
closed = 1;
nodes = (
"655 532.116 OFFCURVE",
"569.104 713 OFFCURVE",
"403 713 CURVE SMOOTH",
"316.333 713 OFFCURVE",
"253.167 666.667 OFFCURVE",
"212.5 600 CURVE SMOOTH",
"171.833 533.333 OFFCURVE",
"153 444.667 OFFCURVE",
"153 358 CURVE SMOOTH",
"153 267.333 OFFCURVE",
"177 179.333 OFFCURVE",
"221 114 CURVE SMOOTH",
"265 48.667 OFFCURVE",
"328.667 6 OFFCURVE",
"406 6 CURVE SMOOTH",
"581.26 6 OFFCURVE",
"655 194.052 OFFCURVE",
"655 364 CURVE SMOOTH"
);
}
);
userData = {
assembly = "PUSHW[ ]	/* 1 value pushed */
57 
MDAP[1]	/* MoveDirectAbsPt */
PUSHW[ ]	/* 1 value pushed */
58 
MDAP[1]	/* MoveDirectAbsPt */
PUSHW[ ]	/* 1 value pushed */
0 
MDRP[11100]	/* MoveDirectRelPt */
PUSHW[ ]	/* 1 value pushed */
57 
SRP0[ ]	/* SetRefPoint0 */
PUSHW[ ]	/* 1 value pushed */
10 
MDRP[10000]	/* MoveDirectRelPt */
PUSHW[ ]	/* 1 value pushed */
10 
MDAP[1]	/* MoveDirectAbsPt */
PUSHW[ ]	/* 2 values pushed */
47 7 
MIRP[11100]	/* MoveIndirectRelPt */
NPUSHW[ ]	/* 13 values pushed */
6 47 22 47 38 47 54 47 70 47 86 47 6 
DELTAP1[ ]	/* DeltaExceptionP1 */
NPUSHW[ ]	/* 5 values pushed */
101 47 117 47 2 
DELTAP1[ ]	/* DeltaExceptionP1 */
PUSHW[ ]	/* 1 value pushed */
8 
MDRP[10000]	/* MoveDirectRelPt */
PUSHW[ ]	/* 1 value pushed */
8 
MDAP[1]	/* MoveDirectAbsPt */
PUSHW[ ]	/* 1 value pushed */
0 
SRP0[ ]	/* SetRefPoint0 */
PUSHW[ ]	/* 2 values pushed */
37 7 
MIRP[11100]	/* MoveIndirectRelPt */
NPUSHW[ ]	/* 5 values pushed */
106 37 122 37 2 
DELTAP1[ ]	/* DeltaExceptionP1 */
NPUSHW[ ]	/* 13 values pushed */
9 37 25 37 41 37 57 37 73 37 89 37 6 
DELTAP1[ ]	/* DeltaExceptionP1 */
SVTCA[0]	/* SetFreedomAndProjectionVectorToAxis */
PUSHW[ ]	/* 1 value pushed */
0 
RCVT[ ]	/* ReadCVT */
IF[ ]	/* If */
PUSHW[ ]	/* 1 value pushed */
5 
MDAP[1]	/* MoveDirectAbsPt */
ELSE[ ]	/* Else */
PUSHW[ ]	/* 2 values pushed */
5 14 
MIAP[0]	/* MoveIndirectAbsPt */
EIF[ ]	/* EndIf */
PUSHW[ ]	/* 4 values pushed */
42 4 20 4 
CALL[ ]	/* CallFunction */
PUSHW[ ]	/* 1 value pushed */
42 
SRP0[ ]	/* SetRefPoint0 */
PUSHW[ ]	/* 1 value pushed */
15 
MDRP[10000]	/* MoveDirectRelPt */
PUSHW[ ]	/* 1 value pushed */
15 
MDAP[1]	/* MoveDirectAbsPt */
PUSHW[ ]	/* 1 value pushed */
20 
SRP0[ ]	/* SetRefPoint0 */
PUSHW[ ]	/* 2 values pushed */
27 3 
MIRP[11100]	/* MoveIndirectRelPt */
PUSHW[ ]	/* 1 value pushed */
42 
SRP0[ ]	/* SetRefPoint0 */
PUSHW[ ]	/* 1 value pushed */
32 
MDRP[10000]	/* MoveDirectRelPt */
PUSHW[ ]	/* 1 value pushed */
32 
MDAP[1]	/* MoveDirectAbsPt */
IUP[0]	/* InterpolateUntPts */
IUP[1]	/* InterpolateUntPts */";
};
width = 808;
}
);
note = Q;
unicode = 0051;
},
{
glyphname = R;
lastChange = "2019-03-14 18:39:42 +0000";
layers = (
{
layerId = "6873DD1C-7BCD-4DE2-A211-237E2294755D";
paths = (
{
closed = 1;
nodes = (
"592 0 LINE",
"569.226 22.774 OFFCURVE",
"559.681 39.084 OFFCURVE",
"534 76 CURVE SMOOTH",
"515.034 103.949 OFFCURVE",
"485.645 149.521 OFFCURVE",
"471 171 CURVE SMOOTH",
"451 200.333 OFFCURVE",
"429 228.667 OFFCURVE",
"397 266 CURVE SMOOTH",
"370.333 296.667 OFFCURVE",
"338.667 327.333 OFFCURVE",
"304 334 CURVE SMOOTH",
"291.333 336.667 OFFCURVE",
"281.667 338 OFFCURVE",
"275 338 CURVE SMOOTH",
"269 338 OFFCURVE",
"261.333 338.333 OFFCURVE",
"252 339 CURVE",
"252 295.667 OFFCURVE",
"252 258 OFFCURVE",
"252 226 CURVE SMOOTH",
"252 194 OFFCURVE",
"252.333 167 OFFCURVE",
"253 145 CURVE SMOOTH",
"254.333 102.333 OFFCURVE",
"252.667 72 OFFCURVE",
"266 52 CURVE",
"276.667 34.667 OFFCURVE",
"306.333 12.667 OFFCURVE",
"361 10 CURVE",
"361 0 LINE",
"41 0 LINE",
"41 10 LINE",
"74.333 15.333 OFFCURVE",
"107.667 24.667 OFFCURVE",
"125 46 CURVE SMOOTH",
"137.405 60.886 OFFCURVE",
"141 121.138 OFFCURVE",
"141 156 CURVE SMOOTH",
"141 181.48 OFFCURVE",
"143 269.869 OFFCURVE",
"143 305 CURVE SMOOTH",
"143 325.667 OFFCURVE",
"143 345 OFFCURVE",
"143 363 CURVE SMOOTH",
"143 558 LINE SMOOTH",
"143 596.302 OFFCURVE",
"142.103 662.897 OFFCURVE",
"126 679 CURVE SMOOTH",
"106 700.333 OFFCURVE",
"83 704.667 OFFCURVE",
"47 710 CURVE",
"47 720 LINE",
"52.333 720 OFFCURVE",
"66 720 OFFCURVE",
"88 720 CURVE SMOOTH",
"110.667 720 OFFCURVE",
"136.333 720.167 OFFCURVE",
"165 720.5 CURVE SMOOTH",
"193.667 720.833 OFFCURVE",
"222.333 721 OFFCURVE",
"251 721 CURVE SMOOTH",
"279.667 721 OFFCURVE",
"303 721 OFFCURVE",
"321 721 CURVE SMOOTH",
"410.333 721 OFFCURVE",
"477.667 720.667 OFFCURVE",
"535 690 CURVE SMOOTH",
"593.667 659.333 OFFCURVE",
"633 608 OFFCURVE",
"633 528 CURVE SMOOTH",
"633 430.251 OFFCURVE",
"558.048 374.016 OFFCURVE",
"468 344 CURVE",
"468 341 LINE",
"490.667 329 OFFCURVE",
"512 305 OFFCURVE",
"532 277 CURVE SMOOTH",
"566.667 226.333 OFFCURVE",
"611 162.333 OFFCURVE",
"643 117 CURVE SMOOTH",
"692.333 47.667 OFFCURVE",
"734.333 19.333 OFFCURVE",
"797 10 CURVE",
"797 0 LINE"
);
},
{
closed = 1;
nodes = (
"518 600.667 OFFCURVE",
"484 654.333 OFFCURVE",
"420 685 CURVE SMOOTH",
"388 699.667 OFFCURVE",
"352.667 706 OFFCURVE",
"314 706 CURVE SMOOTH",
"286 706 OFFCURVE",
"269.333 704.333 OFFCURVE",
"260 703 CURVE",
"255.365 675.187 OFFCURVE",
"255.238 654.477 OFFCURVE",
"254 626 CURVE SMOOTH",
"252.667 579.333 OFFCURVE",
"252 516.667 OFFCURVE",
"252 462 CURVE SMOOTH",
"252 434.667 OFFCURVE",
"252 410.667 OFFCURVE",
"252 390 CURVE SMOOTH",
"252 370 OFFCURVE",
"252 357.333 OFFCURVE",
"252 352 CURVE",
"306.667 352 OFFCURVE",
"353 355.333 OFFCURVE",
"397 370 CURVE SMOOTH",
"478.433 395.448 OFFCURVE",
"518 459.664 OFFCURVE",
"518 534 CURVE SMOOTH"
);
}
);
userData = {
assembly = "PUSHW[ ]	/* 1 value pushed */
113 
MDAP[1]	/* MoveDirectAbsPt */
PUSHW[ ]	/* 1 value pushed */
114 
MDAP[1]	/* MoveDirectAbsPt */
PUSHW[ ]	/* 1 value pushed */
113 
SRP0[ ]	/* SetRefPoint0 */
PUSHW[ ]	/* 1 value pushed */
41 
MDRP[10000]	/* MoveDirectRelPt */
PUSHW[ ]	/* 1 value pushed */
41 
MDAP[1]	/* MoveDirectAbsPt */
PUSHW[ ]	/* 1 value pushed */
45 
MDRP[10000]	/* MoveDirectRelPt */
PUSHW[ ]	/* 1 value pushed */
45 
MDAP[1]	/* MoveDirectAbsPt */
PUSHW[ ]	/* 1 value pushed */
114 
SRP0[ ]	/* SetRefPoint0 */
PUSHW[ ]	/* 1 value pushed */
16 
MDRP[11100]	/* MoveDirectRelPt */
PUSHW[ ]	/* 3 values pushed */
11 45 16 
SRP1[ ]	/* SetRefPoint1 */
SRP2[ ]	/* SetRefPoint2 */
IP[ ]	/* InterpolatePts */
PUSHW[ ]	/* 1 value pushed */
41 
SRP0[ ]	/* SetRefPoint0 */
PUSHW[ ]	/* 2 values pushed */
62 7 
MIRP[11100]	/* MoveIndirectRelPt */
NPUSHW[ ]	/* 13 values pushed */
6 62 22 62 38 62 54 62 70 62 86 62 6 
DELTAP1[ ]	/* DeltaExceptionP1 */
NPUSHW[ ]	/* 5 values pushed */
101 62 117 62 2 
DELTAP1[ ]	/* DeltaExceptionP1 */
PUSHW[ ]	/* 1 value pushed */
24 
MDRP[10000]	/* MoveDirectRelPt */
PUSHW[ ]	/* 1 value pushed */
24 
MDAP[1]	/* MoveDirectAbsPt */
PUSHW[ ]	/* 1 value pushed */
41 
SRP0[ ]	/* SetRefPoint0 */
PUSHW[ ]	/* 1 value pushed */
38 
MDRP[10000]	/* MoveDirectRelPt */
PUSHW[ ]	/* 1 value pushed */
62 
SRP0[ ]	/* SetRefPoint0 */
PUSHW[ ]	/* 1 value pushed */
64 
MDRP[10000]	/* MoveDirectRelPt */
PUSHW[ ]	/* 1 value pushed */
64 
MDAP[1]	/* MoveDirectAbsPt */
PUSHW[ ]	/* 1 value pushed */
62 
SRP0[ ]	/* SetRefPoint0 */
PUSHW[ ]	/* 1 value pushed */
66 
MDRP[10000]	/* MoveDirectRelPt */
PUSHW[ ]	/* 1 value pushed */
66 
MDAP[1]	/* MoveDirectAbsPt */
PUSHW[ ]	/* 1 value pushed */
16 
SRP0[ ]	/* SetRefPoint0 */
PUSHW[ ]	/* 2 values pushed */
84 7 
MIRP[11100]	/* MoveIndirectRelPt */
NPUSHW[ ]	/* 5 values pushed */
106 84 122 84 2 
DELTAP1[ ]	/* DeltaExceptionP1 */
NPUSHW[ ]	/* 13 values pushed */
9 84 25 84 41 84 57 84 73 84 89 84 6 
DELTAP1[ ]	/* DeltaExceptionP1 */
PUSHW[ ]	/* 1 value pushed */
62 
SRP0[ ]	/* SetRefPoint0 */
PUSHW[ ]	/* 1 value pushed */
92 
MDRP[10000]	/* MoveDirectRelPt */
PUSHW[ ]	/* 1 value pushed */
92 
MDAP[1]	/* MoveDirectAbsPt */
PUSHW[ ]	/* 1 value pushed */
62 
SRP0[ ]	/* SetRefPoint0 */
PUSHW[ ]	/* 1 value pushed */
94 
MDRP[10000]	/* MoveDirectRelPt */
PUSHW[ ]	/* 1 value pushed */
94 
MDAP[1]	/* MoveDirectAbsPt */
PUSHW[ ]	/* 1 value pushed */
62 
SRP0[ ]	/* SetRefPoint0 */
PUSHW[ ]	/* 1 value pushed */
96 
MDRP[10000]	/* MoveDirectRelPt */
PUSHW[ ]	/* 1 value pushed */
96 
MDAP[1]	/* MoveDirectAbsPt */
PUSHW[ ]	/* 1 value pushed */
62 
SRP0[ ]	/* SetRefPoint0 */
PUSHW[ ]	/* 1 value pushed */
99 
MDRP[10000]	/* MoveDirectRelPt */
PUSHW[ ]	/* 1 value pushed */
99 
MDAP[1]	/* MoveDirectAbsPt */
PUSHW[ ]	/* 1 value pushed */
62 
SRP0[ ]	/* SetRefPoint0 */
PUSHW[ ]	/* 1 value pushed */
104 
MDRP[10000]	/* MoveDirectRelPt */
PUSHW[ ]	/* 1 value pushed */
104 
MDAP[1]	/* MoveDirectAbsPt */
SVTCA[0]	/* SetFreedomAndProjectionVectorToAxis */
PUSHW[ ]	/* 1 value pushed */
0 
RCVT[ ]	/* ReadCVT */
IF[ ]	/* If */
PUSHW[ ]	/* 1 value pushed */
22 
MDAP[1]	/* MoveDirectAbsPt */
ELSE[ ]	/* Else */
PUSHW[ ]	/* 2 values pushed */
22 14 
MIAP[0]	/* MoveIndirectAbsPt */
EIF[ ]	/* EndIf */
PUSHW[ ]	/* 1 value pushed */
0 
RCVT[ ]	/* ReadCVT */
IF[ ]	/* If */
PUSHW[ ]	/* 1 value pushed */
24 
MDAP[1]	/* MoveDirectAbsPt */
ELSE[ ]	/* Else */
PUSHW[ ]	/* 2 values pushed */
24 14 
MIAP[0]	/* MoveIndirectAbsPt */
EIF[ ]	/* EndIf */
PUSHW[ ]	/* 1 value pushed */
0 
RCVT[ ]	/* ReadCVT */
IF[ ]	/* If */
PUSHW[ ]	/* 1 value pushed */
27 
MDAP[1]	/* MoveDirectAbsPt */
ELSE[ ]	/* Else */
PUSHW[ ]	/* 2 values pushed */
27 14 
MIAP[0]	/* MoveIndirectAbsPt */
EIF[ ]	/* EndIf */
PUSHW[ ]	/* 1 value pushed */
0 
RCVT[ ]	/* ReadCVT */
IF[ ]	/* If */
PUSHW[ ]	/* 1 value pushed */
29 
MDAP[1]	/* MoveDirectAbsPt */
ELSE[ ]	/* Else */
PUSHW[ ]	/* 2 values pushed */
29 14 
MIAP[0]	/* MoveIndirectAbsPt */
EIF[ ]	/* EndIf */
PUSHW[ ]	/* 1 value pushed */
0 
RCVT[ ]	/* ReadCVT */
IF[ ]	/* If */
PUSHW[ ]	/* 1 value pushed */
0 
MDAP[1]	/* MoveDirectAbsPt */
ELSE[ ]	/* Else */
PUSHW[ ]	/* 2 values pushed */
0 8 
MIAP[0]	/* MoveIndirectAbsPt */
EIF[ ]	/* EndIf */
PUSHW[ ]	/* 1 value pushed */
0 
RCVT[ ]	/* ReadCVT */
IF[ ]	/* If */
PUSHW[ ]	/* 1 value pushed */
54 
MDAP[1]	/* MoveDirectAbsPt */
ELSE[ ]	/* Else */
PUSHW[ ]	/* 2 values pushed */
54 8 
MIAP[0]	/* MoveIndirectAbsPt */
EIF[ ]	/* EndIf */
PUSHW[ ]	/* 3 values pushed */
11 0 22 
SRP1[ ]	/* SetRefPoint1 */
SRP2[ ]	/* SetRefPoint2 */
IP[ ]	/* InterpolatePts */
IUP[0]	/* InterpolateUntPts */
IUP[1]	/* InterpolateUntPts */";
};
width = 762;
}
);
note = R;
unicode = 0052;
},
{
glyphname = S;
lastChange = "2019-03-14 18:39:42 +0000";
layers = (
{
layerId = "6873DD1C-7BCD-4DE2-A211-237E2294755D";
paths = (
{
closed = 1;
nodes = (
"558 63.98 OFFCURVE",
"445.258 -7 OFFCURVE",
"297 -7 CURVE SMOOTH",
"231.667 -7 OFFCURVE",
"185.667 2.167 OFFCURVE",
"155 13.5 CURVE SMOOTH",
"131.647 22.131 OFFCURVE",
"110.52 36 OFFCURVE",
"106 36 CURVE SMOOTH",
"102 36 OFFCURVE",
"85.667 15.667 OFFCURVE",
"75 1 CURVE",
"66 1 LINE",
"63 200 LINE",
"73 200 LINE",
"89.058 151.827 OFFCURVE",
"127.422 91.315 OFFCURVE",
"161.5 60 CURVE SMOOTH",
"191.424 32.503 OFFCURVE",
"244.134 7 OFFCURVE",
"296 7 CURVE SMOOTH",
"394.667 7 OFFCURVE",
"462 65 OFFCURVE",
"462 157 CURVE SMOOTH",
"462 230.664 OFFCURVE",
"412.891 264.291 OFFCURVE",
"347 289 CURVE SMOOTH",
"328.443 295.959 OFFCURVE",
"218.421 333.792 OFFCURVE",
"200 341 CURVE SMOOTH",
"128.973 368.318 OFFCURVE",
"68 438.938 OFFCURVE",
"68 522 CURVE SMOOTH",
"68 661.393 OFFCURVE",
"175.916 731 OFFCURVE",
"308 731 CURVE SMOOTH",
"368 731 OFFCURVE",
"410.167 719 OFFCURVE",
"437.5 707 CURVE SMOOTH",
"457.334 698.292 OFFCURVE",
"478.243 683 OFFCURVE",
"480 683 CURVE SMOOTH",
"484 683 OFFCURVE",
"499.333 703 OFFCURVE",
"510 719 CURVE",
"521 719 LINE",
"521 534 LINE",
"510 534 LINE",
"476.825 625.232 OFFCURVE",
"407.148 715 OFFCURVE",
"307 715 CURVE SMOOTH",
"220.816 715 OFFCURVE",
"157 664.037 OFFCURVE",
"157 574 CURVE SMOOTH",
"157 503.333 OFFCURVE",
"204 463.333 OFFCURVE",
"272 438 CURVE SMOOTH",
"311.282 422.287 OFFCURVE",
"374.766 402.823 OFFCURVE",
"415 388 CURVE SMOOTH",
"505.667 354.667 OFFCURVE",
"558 291.667 OFFCURVE",
"558 197 CURVE SMOOTH"
);
}
);
userData = {
assembly = "PUSHW[ ]	/* 1 value pushed */
77 
MDAP[1]	/* MoveDirectAbsPt */
PUSHW[ ]	/* 1 value pushed */
78 
MDAP[1]	/* MoveDirectAbsPt */
PUSHW[ ]	/* 1 value pushed */
0 
MDRP[11100]	/* MoveDirectRelPt */
PUSHW[ ]	/* 1 value pushed */
77 
SRP0[ ]	/* SetRefPoint0 */
PUSHW[ ]	/* 1 value pushed */
37 
MDRP[10000]	/* MoveDirectRelPt */
PUSHW[ ]	/* 1 value pushed */
37 
MDAP[1]	/* MoveDirectAbsPt */
PUSHW[ ]	/* 2 values pushed */
11 6 
MIRP[11100]	/* MoveIndirectRelPt */
NPUSHW[ ]	/* 13 values pushed */
6 11 22 11 38 11 54 11 70 11 86 11 6 
DELTAP1[ ]	/* DeltaExceptionP1 */
NPUSHW[ ]	/* 5 values pushed */
101 11 117 11 2 
DELTAP1[ ]	/* DeltaExceptionP1 */
PUSHW[ ]	/* 1 value pushed */
0 
SRP0[ ]	/* SetRefPoint0 */
PUSHW[ ]	/* 2 values pushed */
51 7 
MIRP[11100]	/* MoveIndirectRelPt */
NPUSHW[ ]	/* 5 values pushed */
106 51 122 51 2 
DELTAP1[ ]	/* DeltaExceptionP1 */
NPUSHW[ ]	/* 13 values pushed */
9 51 25 51 41 51 57 51 73 51 89 51 6 
DELTAP1[ ]	/* DeltaExceptionP1 */
PUSHW[ ]	/* 1 value pushed */
37 
SRP0[ ]	/* SetRefPoint0 */
PUSHW[ ]	/* 1 value pushed */
61 
MDRP[10000]	/* MoveDirectRelPt */
PUSHW[ ]	/* 1 value pushed */
61 
MDAP[1]	/* MoveDirectAbsPt */
PUSHW[ ]	/* 1 value pushed */
37 
SRP0[ ]	/* SetRefPoint0 */
PUSHW[ ]	/* 1 value pushed */
62 
MDRP[10000]	/* MoveDirectRelPt */
PUSHW[ ]	/* 1 value pushed */
62 
MDAP[1]	/* MoveDirectAbsPt */
PUSHW[ ]	/* 1 value pushed */
37 
SRP0[ ]	/* SetRefPoint0 */
PUSHW[ ]	/* 1 value pushed */
64 
MDRP[10000]	/* MoveDirectRelPt */
PUSHW[ ]	/* 1 value pushed */
64 
MDAP[1]	/* MoveDirectAbsPt */
SVTCA[0]	/* SetFreedomAndProjectionVectorToAxis */
PUSHW[ ]	/* 1 value pushed */
0 
RCVT[ ]	/* ReadCVT */
IF[ ]	/* If */
PUSHW[ ]	/* 1 value pushed */
32 
MDAP[1]	/* MoveDirectAbsPt */
ELSE[ ]	/* Else */
PUSHW[ ]	/* 2 values pushed */
32 14 
MIAP[0]	/* MoveIndirectAbsPt */
EIF[ ]	/* EndIf */
PUSHW[ ]	/* 1 value pushed */
0 
RCVT[ ]	/* ReadCVT */
IF[ ]	/* If */
PUSHW[ ]	/* 1 value pushed */
72 
MDAP[1]	/* MoveDirectAbsPt */
ELSE[ ]	/* Else */
PUSHW[ ]	/* 2 values pushed */
72 8 
MIAP[0]	/* MoveIndirectAbsPt */
EIF[ ]	/* EndIf */
IUP[0]	/* InterpolateUntPts */
IUP[1]	/* InterpolateUntPts */";
};
width = 605;
}
);
note = S;
unicode = 0053;
},
{
glyphname = T;
lastChange = "2019-03-14 18:39:42 +0000";
layers = (
{
layerId = "6873DD1C-7BCD-4DE2-A211-237E2294755D";
paths = (
{
closed = 1;
nodes = (
"741 532 LINE",
"723.602 571.145 OFFCURVE",
"678.876 640.733 OFFCURVE",
"658 659 CURVE",
"630 685.667 OFFCURVE",
"600.667 691.667 OFFCURVE",
"550 693 CURVE SMOOTH",
"537.333 693 OFFCURVE",
"526.333 693.167 OFFCURVE",
"517 693.5 CURVE SMOOTH",
"507.667 693.833 OFFCURVE",
"498.333 694 OFFCURVE",
"489 694 CURVE SMOOTH",
"480.333 694 OFFCURVE",
"470.667 694 OFFCURVE",
"460 694 CURVE SMOOTH",
"450 694 OFFCURVE",
"437.667 694 OFFCURVE",
"423 694 CURVE",
"423 677.333 OFFCURVE",
"422.833 654.667 OFFCURVE",
"422.5 626 CURVE SMOOTH",
"422.167 597.333 OFFCURVE",
"422 567.333 OFFCURVE",
"422 536 CURVE SMOOTH",
"422 504.667 OFFCURVE",
"422 473.667 OFFCURVE",
"422 443 CURVE SMOOTH",
"422 413 OFFCURVE",
"422 387.667 OFFCURVE",
"422 367 CURVE SMOOTH",
"422 145 LINE SMOOTH",
"422 106.333 OFFCURVE",
"422.333 66.667 OFFCURVE",
"433 52 CURVE SMOOTH",
"453 22.667 OFFCURVE",
"495.667 15.333 OFFCURVE",
"525 10 CURVE",
"525 0 LINE",
"200 0 LINE",
"200 10 LINE",
"234.667 14 OFFCURVE",
"266.333 18.333 OFFCURVE",
"297 53 CURVE",
"309.364 65.364 OFFCURVE",
"311 125.855 OFFCURVE",
"311 160 CURVE SMOOTH",
"311 184.777 OFFCURVE",
"313 270.826 OFFCURVE",
"313 306 CURVE SMOOTH",
"313 326 OFFCURVE",
"313 345 OFFCURVE",
"313 363 CURVE SMOOTH",
"313 694 LINE",
"299 694 OFFCURVE",
"286.667 694 OFFCURVE",
"276 694 CURVE SMOOTH",
"266 694 OFFCURVE",
"256.333 694 OFFCURVE",
"247 694 CURVE SMOOTH",
"238.333 694 OFFCURVE",
"229.167 693.833 OFFCURVE",
"219.5 693.5 CURVE SMOOTH",
"209.833 693.167 OFFCURVE",
"198.667 693 OFFCURVE",
"186 693 CURVE SMOOTH",
"135.333 691.667 OFFCURVE",
"106 682.667 OFFCURVE",
"78 656 CURVE",
"58.029 638.525 OFFCURVE",
"12.135 571.405 OFFCURVE",
"-1 532 CURVE",
"-10 535 LINE",
"20 725 LINE",
"50.667 718.333 OFFCURVE",
"69.667 714.333 OFFCURVE",
"119 713 CURVE SMOOTH",
"169.667 711.667 OFFCURVE",
"207.667 711 OFFCURVE",
"245 711 CURVE SMOOTH",
"263.667 711 OFFCURVE",
"282.667 711 OFFCURVE",
"302 711 CURVE SMOOTH",
"322 711 OFFCURVE",
"344.333 711 OFFCURVE",
"369 711 CURVE SMOOTH",
"393.667 711 OFFCURVE",
"415.667 711 OFFCURVE",
"435 711 CURVE SMOOTH",
"475.196 711 OFFCURVE",
"577.46 713 OFFCURVE",
"619 713 CURVE SMOOTH",
"663 714.333 OFFCURVE",
"687.333 720.667 OFFCURVE",
"718 730 CURVE",
"750 535 LINE"
);
}
);
userData = {
assembly = "PUSHW[ ]	/* 4 values pushed */
66 7 37 4 
CALL[ ]	/* CallFunction */
PUSHW[ ]	/* 1 value pushed */
66 
SRP0[ ]	/* SetRefPoint0 */
PUSHW[ ]	/* 1 value pushed */
37 
SRP0[ ]	/* SetRefPoint0 */
PUSHW[ ]	/* 1 value pushed */
40 
MDRP[10000]	/* MoveDirectRelPt */
PUSHW[ ]	/* 1 value pushed */
37 
SRP0[ ]	/* SetRefPoint0 */
PUSHW[ ]	/* 1 value pushed */
44 
MDRP[10000]	/* MoveDirectRelPt */
PUSHW[ ]	/* 1 value pushed */
44 
MDAP[1]	/* MoveDirectAbsPt */
PUSHW[ ]	/* 1 value pushed */
66 
SRP0[ ]	/* SetRefPoint0 */
PUSHW[ ]	/* 1 value pushed */
61 
MDRP[10000]	/* MoveDirectRelPt */
PUSHW[ ]	/* 1 value pushed */
66 
SRP0[ ]	/* SetRefPoint0 */
PUSHW[ ]	/* 1 value pushed */
64 
MDRP[10000]	/* MoveDirectRelPt */
PUSHW[ ]	/* 1 value pushed */
66 
SRP0[ ]	/* SetRefPoint0 */
PUSHW[ ]	/* 1 value pushed */
69 
MDRP[10000]	/* MoveDirectRelPt */
PUSHW[ ]	/* 1 value pushed */
69 
MDAP[1]	/* MoveDirectAbsPt */
SVTCA[0]	/* SetFreedomAndProjectionVectorToAxis */
PUSHW[ ]	/* 1 value pushed */
30 
MDAP[1]	/* MoveDirectAbsPt */
PUSHW[ ]	/* 1 value pushed */
33 
MDAP[1]	/* MoveDirectAbsPt */
PUSHW[ ]	/* 1 value pushed */
35 
MDAP[1]	/* MoveDirectAbsPt */
PUSHW[ ]	/* 1 value pushed */
37 
MDAP[1]	/* MoveDirectAbsPt */
PUSHW[ ]	/* 1 value pushed */
69 
MDAP[1]	/* MoveDirectAbsPt */
PUSHW[ ]	/* 1 value pushed */
71 
MDAP[1]	/* MoveDirectAbsPt */
PUSHW[ ]	/* 1 value pushed */
73 
MDAP[1]	/* MoveDirectAbsPt */
PUSHW[ ]	/* 1 value pushed */
76 
MDAP[1]	/* MoveDirectAbsPt */
PUSHW[ ]	/* 1 value pushed */
0 
RCVT[ ]	/* ReadCVT */
IF[ ]	/* If */
PUSHW[ ]	/* 1 value pushed */
1 
MDAP[1]	/* MoveDirectAbsPt */
ELSE[ ]	/* Else */
PUSHW[ ]	/* 2 values pushed */
1 14 
MIAP[0]	/* MoveIndirectAbsPt */
EIF[ ]	/* EndIf */
PUSHW[ ]	/* 1 value pushed */
0 
RCVT[ ]	/* ReadCVT */
IF[ ]	/* If */
PUSHW[ ]	/* 1 value pushed */
20 
MDAP[1]	/* MoveDirectAbsPt */
ELSE[ ]	/* Else */
PUSHW[ ]	/* 2 values pushed */
20 14 
MIAP[0]	/* MoveIndirectAbsPt */
EIF[ ]	/* EndIf */
PUSHW[ ]	/* 1 value pushed */
0 
RCVT[ ]	/* ReadCVT */
IF[ ]	/* If */
PUSHW[ ]	/* 1 value pushed */
53 
MDAP[1]	/* MoveDirectAbsPt */
ELSE[ ]	/* Else */
PUSHW[ ]	/* 2 values pushed */
53 8 
MIAP[0]	/* MoveIndirectAbsPt */
EIF[ ]	/* EndIf */
IUP[0]	/* InterpolateUntPts */
IUP[1]	/* InterpolateUntPts */";
};
width = 737;
}
);
note = T;
unicode = 0054;
},
{
glyphname = U;
lastChange = "2019-03-14 18:39:42 +0000";
layers = (
{
layerId = "6873DD1C-7BCD-4DE2-A211-237E2294755D";
paths = (
{
closed = 1;
nodes = (
"774.667 703.333 OFFCURVE",
"748 686.667 OFFCURVE",
"732 648 CURVE SMOOTH",
"723.106 627.248 OFFCURVE",
"718 547.308 OFFCURVE",
"718 497 CURVE SMOOTH",
"716.667 439.667 OFFCURVE",
"714.667 370.333 OFFCURVE",
"712 281 CURVE SMOOTH",
"708.936 222.787 OFFCURVE",
"707.535 167.851 OFFCURVE",
"674.5 106.5 CURVE SMOOTH",
"651.167 63.167 OFFCURVE",
"609.667 26.167 OFFCURVE",
"543 5.5 CURVE SMOOTH",
"509.667 -4.833 OFFCURVE",
"468.667 -10 OFFCURVE",
"420 -10 CURVE SMOOTH",
"324 -10 OFFCURVE",
"259.667 11.5 OFFCURVE",
"217 45.5 CURVE SMOOTH",
"195.667 62.5 OFFCURVE",
"179.167 81.167 OFFCURVE",
"167.5 101.5 CURVE SMOOTH",
"134.982 158.173 OFFCURVE",
"130 212.713 OFFCURVE",
"130 252 CURVE SMOOTH",
"130 270.667 OFFCURVE",
"130.167 295 OFFCURVE",
"130.5 325 CURVE SMOOTH",
"130.833 355 OFFCURVE",
"131 388.333 OFFCURVE",
"131 425 CURVE SMOOTH",
"131 558 LINE SMOOTH",
"131 570 OFFCURVE",
"131 582 OFFCURVE",
"131 594 CURVE SMOOTH",
"131 622.204 OFFCURVE",
"127.257 661.866 OFFCURVE",
"116 675 CURVE SMOOTH",
"97.333 697.667 OFFCURVE",
"69.667 706 OFFCURVE",
"35 710 CURVE",
"35 720 LINE",
"333 720 LINE",
"333 710 LINE",
"287.66 703.523 OFFCURVE",
"244.529 688.173 OFFCURVE",
"242 630 CURVE SMOOTH",
"240.667 595.333 OFFCURVE",
"240 570.333 OFFCURVE",
"240 545 CURVE SMOOTH",
"240 532.333 OFFCURVE",
"240 519 OFFCURVE",
"240 505 CURVE SMOOTH",
"240 491.667 OFFCURVE",
"240 476 OFFCURVE",
"240 458 CURVE SMOOTH",
"240 435.333 OFFCURVE",
"240 415 OFFCURVE",
"240 397 CURVE SMOOTH",
"240 379 OFFCURVE",
"240 362 OFFCURVE",
"240 346 CURVE SMOOTH",
"240 330.667 OFFCURVE",
"240.167 315.833 OFFCURVE",
"240.5 301.5 CURVE SMOOTH",
"240.833 287.167 OFFCURVE",
"241 272 OFFCURVE",
"241 256 CURVE SMOOTH",
"243.663 114.872 OFFCURVE",
"320.778 22 OFFCURVE",
"454 22 CURVE SMOOTH",
"534.337 22 OFFCURVE",
"632.711 74.085 OFFCURVE",
"658.5 124 CURVE SMOOTH",
"688.168 181.421 OFFCURVE",
"694 261.45 OFFCURVE",
"694 327 CURVE SMOOTH",
"694 345 OFFCURVE",
"694 361.333 OFFCURVE",
"694 376 CURVE SMOOTH",
"694 390.667 OFFCURVE",
"694 404.333 OFFCURVE",
"694 417 CURVE SMOOTH",
"694 430.333 OFFCURVE",
"694 443.333 OFFCURVE",
"694 456 CURVE SMOOTH",
"694 469.333 OFFCURVE",
"694 483 OFFCURVE",
"694 497 CURVE SMOOTH",
"694 539.176 OFFCURVE",
"692.856 615.36 OFFCURVE",
"683 640 CURVE",
"669.667 677.333 OFFCURVE",
"640 700.667 OFFCURVE",
"576 710 CURVE",
"576 720 LINE",
"824 720 LINE",
"824 710 LINE"
);
}
);
userData = {
assembly = "PUSHW[ ]	/* 4 values pushed */
31 7 63 4 
CALL[ ]	/* CallFunction */
PUSHW[ ]	/* 1 value pushed */
31 
SRP0[ ]	/* SetRefPoint0 */
PUSHW[ ]	/* 3 values pushed */
83 11 3 
CALL[ ]	/* CallFunction */
PUSHW[ ]	/* 1 value pushed */
83 
SRP0[ ]	/* SetRefPoint0 */
NPUSHW[ ]	/* 5 values pushed */
218 11 234 11 2 
DELTAP1[ ]	/* DeltaExceptionP1 */
NPUSHW[ ]	/* 27 values pushed */
9 11 25 11 41 11 57 11 73 11 89 11 105 11 121 11 137 11 153 11 169 11 185 11 201 11 13 
DELTAP1[ ]	/* DeltaExceptionP1 */
PUSHW[ ]	/* 1 value pushed */
11 
SRP0[ ]	/* SetRefPoint0 */
PUSHW[ ]	/* 1 value pushed */
13 
MDRP[10000]	/* MoveDirectRelPt */
PUSHW[ ]	/* 1 value pushed */
11 
SRP0[ ]	/* SetRefPoint0 */
PUSHW[ ]	/* 1 value pushed */
15 
MDRP[10000]	/* MoveDirectRelPt */
PUSHW[ ]	/* 1 value pushed */
11 
SRP0[ ]	/* SetRefPoint0 */
PUSHW[ ]	/* 1 value pushed */
17 
MDRP[10000]	/* MoveDirectRelPt */
PUSHW[ ]	/* 1 value pushed */
11 
SRP0[ ]	/* SetRefPoint0 */
PUSHW[ ]	/* 1 value pushed */
19 
MDRP[10000]	/* MoveDirectRelPt */
PUSHW[ ]	/* 1 value pushed */
31 
SRP0[ ]	/* SetRefPoint0 */
PUSHW[ ]	/* 1 value pushed */
34 
MDRP[10000]	/* MoveDirectRelPt */
PUSHW[ ]	/* 1 value pushed */
34 
MDAP[1]	/* MoveDirectAbsPt */
PUSHW[ ]	/* 1 value pushed */
31 
SRP0[ ]	/* SetRefPoint0 */
PUSHW[ ]	/* 1 value pushed */
36 
MDRP[10000]	/* MoveDirectRelPt */
PUSHW[ ]	/* 1 value pushed */
36 
MDAP[1]	/* MoveDirectAbsPt */
PUSHW[ ]	/* 1 value pushed */
31 
SRP0[ ]	/* SetRefPoint0 */
PUSHW[ ]	/* 1 value pushed */
38 
MDRP[10000]	/* MoveDirectRelPt */
PUSHW[ ]	/* 1 value pushed */
38 
MDAP[1]	/* MoveDirectAbsPt */
PUSHW[ ]	/* 1 value pushed */
31 
SRP0[ ]	/* SetRefPoint0 */
PUSHW[ ]	/* 1 value pushed */
40 
MDRP[10000]	/* MoveDirectRelPt */
PUSHW[ ]	/* 1 value pushed */
40 
MDAP[1]	/* MoveDirectAbsPt */
PUSHW[ ]	/* 1 value pushed */
31 
SRP0[ ]	/* SetRefPoint0 */
PUSHW[ ]	/* 1 value pushed */
42 
MDRP[10000]	/* MoveDirectRelPt */
PUSHW[ ]	/* 1 value pushed */
42 
MDAP[1]	/* MoveDirectAbsPt */
PUSHW[ ]	/* 1 value pushed */
31 
SRP0[ ]	/* SetRefPoint0 */
PUSHW[ ]	/* 1 value pushed */
45 
MDRP[10000]	/* MoveDirectRelPt */
PUSHW[ ]	/* 1 value pushed */
45 
MDAP[1]	/* MoveDirectAbsPt */
PUSHW[ ]	/* 1 value pushed */
63 
SRP0[ ]	/* SetRefPoint0 */
PUSHW[ ]	/* 1 value pushed */
60 
MDRP[10000]	/* MoveDirectRelPt */
PUSHW[ ]	/* 1 value pushed */
63 
SRP0[ ]	/* SetRefPoint0 */
PUSHW[ ]	/* 1 value pushed */
66 
MDRP[10000]	/* MoveDirectRelPt */
PUSHW[ ]	/* 1 value pushed */
66 
MDAP[1]	/* MoveDirectAbsPt */
PUSHW[ ]	/* 1 value pushed */
83 
SRP0[ ]	/* SetRefPoint0 */
PUSHW[ ]	/* 1 value pushed */
80 
MDRP[10000]	/* MoveDirectRelPt */
PUSHW[ ]	/* 1 value pushed */
80 
MDAP[1]	/* MoveDirectAbsPt */
PUSHW[ ]	/* 1 value pushed */
83 
SRP0[ ]	/* SetRefPoint0 */
PUSHW[ ]	/* 1 value pushed */
92 
MDRP[11100]	/* MoveDirectRelPt */
SVTCA[0]	/* SetFreedomAndProjectionVectorToAxis */
PUSHW[ ]	/* 1 value pushed */
0 
RCVT[ ]	/* ReadCVT */
IF[ ]	/* If */
PUSHW[ ]	/* 1 value pushed */
1 
MDAP[1]	/* MoveDirectAbsPt */
ELSE[ ]	/* Else */
PUSHW[ ]	/* 2 values pushed */
1 14 
MIAP[0]	/* MoveIndirectAbsPt */
EIF[ ]	/* EndIf */
PUSHW[ ]	/* 1 value pushed */
0 
RCVT[ ]	/* ReadCVT */
IF[ ]	/* If */
PUSHW[ ]	/* 1 value pushed */
51 
MDAP[1]	/* MoveDirectAbsPt */
ELSE[ ]	/* Else */
PUSHW[ ]	/* 2 values pushed */
51 14 
MIAP[0]	/* MoveIndirectAbsPt */
EIF[ ]	/* EndIf */
PUSHW[ ]	/* 1 value pushed */
0 
RCVT[ ]	/* ReadCVT */
IF[ ]	/* If */
PUSHW[ ]	/* 1 value pushed */
73 
MDAP[1]	/* MoveDirectAbsPt */
ELSE[ ]	/* Else */
PUSHW[ ]	/* 2 values pushed */
73 8 
MIAP[0]	/* MoveIndirectAbsPt */
EIF[ ]	/* EndIf */
PUSHW[ ]	/* 2 values pushed */
26 2 
MIRP[11100]	/* MoveIndirectRelPt */
NPUSHW[ ]	/* 33 values pushed */
7 26 23 26 39 26 55 26 71 26 87 26 103 26 119 26 135 26 151 26 167 26 183 26 199 26 215 26 231 26 247 26 16 
DELTAP1[ ]	/* DeltaExceptionP1 */
NPUSHW[ ]	/* 33 values pushed */
7 26 23 26 39 26 55 26 71 26 87 26 103 26 119 26 135 26 151 26 167 26 183 26 199 26 215 26 231 26 247 26 16 
DELTAP2[ ]	/* DeltaExceptionP2 */
NPUSHW[ ]	/* 33 values pushed */
7 26 23 26 39 26 55 26 71 26 87 26 103 26 119 26 135 26 151 26 167 26 183 26 199 26 215 26 231 26 247 26 16 
DELTAP3[ ]	/* DeltaExceptionP3 */
IUP[0]	/* InterpolateUntPts */
IUP[1]	/* InterpolateUntPts */";
};
width = 834;
}
);
note = U;
unicode = 0055;
},
{
glyphname = V;
lastChange = "2019-03-14 18:39:42 +0000";
layers = (
{
layerId = "6873DD1C-7BCD-4DE2-A211-237E2294755D";
paths = (
{
closed = 1;
nodes = (
"684.667 707 OFFCURVE",
"669.5 702 OFFCURVE",
"656.5 694 CURVE SMOOTH",
"643.5 686 OFFCURVE",
"636 680.667 OFFCURVE",
"634 678 CURVE",
"618.382 662.382 OFFCURVE",
"596.128 621.06 OFFCURVE",
"575 570 CURVE SMOOTH",
"548.333 506 OFFCURVE",
"515.333 424 OFFCURVE",
"482 340 CURVE SMOOTH",
"454.388 270.417 OFFCURVE",
"410.801 157.257 OFFCURVE",
"386 93 CURVE",
"337 -7 LINE",
"325 -7 LINE",
"290.393 77.945 OFFCURVE",
"236.635 216.881 OFFCURVE",
"208 289 CURVE SMOOTH",
"172 379.667 OFFCURVE",
"139.333 462.667 OFFCURVE",
"106 548 CURVE SMOOTH",
"94.815 578.358 OFFCURVE",
"72.475 626.05 OFFCURVE",
"59 653 CURVE SMOOTH",
"47.202 676.595 OFFCURVE",
"21.746 706.75 OFFCURVE",
"-30 709 CURVE",
"-30 720 LINE",
"269 720 LINE",
"269 710 LINE",
"242.087 704.617 OFFCURVE",
"190 698.196 OFFCURVE",
"190 659 CURVE SMOOTH",
"190 624.379 OFFCURVE",
"248.802 483.372 OFFCURVE",
"269 431.5 CURVE SMOOTH",
"298.333 356.167 OFFCURVE",
"327.667 281.667 OFFCURVE",
"353 219 CURVE SMOOTH",
"365.667 187.667 OFFCURVE",
"375.667 162 OFFCURVE",
"383 142 CURVE",
"390.603 158.727 OFFCURVE",
"413.878 220.154 OFFCURVE",
"435.5 275 CURVE SMOOTH",
"462.833 344.333 OFFCURVE",
"497 435 OFFCURVE",
"533 531 CURVE SMOOTH",
"546.333 567.667 OFFCURVE",
"555 595.5 OFFCURVE",
"559 614.5 CURVE SMOOTH",
"563 633.5 OFFCURVE",
"565 646.667 OFFCURVE",
"565 654 CURVE SMOOTH",
"565 691.46 OFFCURVE",
"506.673 707.102 OFFCURVE",
"469 710 CURVE",
"469 720 LINE",
"702 720 LINE",
"702 709 LINE"
);
}
);
userData = {
assembly = "SVTCA[0]	/* SetFreedomAndProjectionVectorToAxis */
PUSHW[ ]	/* 1 value pushed */
0 
RCVT[ ]	/* ReadCVT */
IF[ ]	/* If */
PUSHW[ ]	/* 1 value pushed */
1 
MDAP[1]	/* MoveDirectAbsPt */
ELSE[ ]	/* Else */
PUSHW[ ]	/* 2 values pushed */
1 14 
MIAP[0]	/* MoveIndirectAbsPt */
EIF[ ]	/* EndIf */
PUSHW[ ]	/* 1 value pushed */
0 
RCVT[ ]	/* ReadCVT */
IF[ ]	/* If */
PUSHW[ ]	/* 1 value pushed */
29 
MDAP[1]	/* MoveDirectAbsPt */
ELSE[ ]	/* Else */
PUSHW[ ]	/* 2 values pushed */
29 14 
MIAP[0]	/* MoveIndirectAbsPt */
EIF[ ]	/* EndIf */
PUSHW[ ]	/* 1 value pushed */
0 
RCVT[ ]	/* ReadCVT */
IF[ ]	/* If */
PUSHW[ ]	/* 1 value pushed */
46 
MDAP[1]	/* MoveDirectAbsPt */
ELSE[ ]	/* Else */
PUSHW[ ]	/* 2 values pushed */
46 8 
MIAP[0]	/* MoveIndirectAbsPt */
EIF[ ]	/* EndIf */
PUSHW[ ]	/* 3 values pushed */
16 46 1 
SRP1[ ]	/* SetRefPoint1 */
SRP2[ ]	/* SetRefPoint2 */
IP[ ]	/* InterpolatePts */
IUP[0]	/* InterpolateUntPts */
IUP[1]	/* InterpolateUntPts */";
};
width = 667;
}
);
note = V;
unicode = 0056;
},
{
glyphname = W;
lastChange = "2019-03-14 18:39:42 +0000";
layers = (
{
layerId = "6873DD1C-7BCD-4DE2-A211-237E2294755D";
paths = (
{
closed = 1;
nodes = (
"1004.333 708 OFFCURVE",
"990.167 703.333 OFFCURVE",
"978.5 696 CURVE SMOOTH",
"966.833 688.667 OFFCURVE",
"960 683.667 OFFCURVE",
"958 681 CURVE",
"938.601 661.601 OFFCURVE",
"917.721 625.292 OFFCURVE",
"899 571 CURVE SMOOTH",
"880.474 514.264 OFFCURVE",
"842.699 407.978 OFFCURVE",
"819.5 340 CURVE SMOOTH",
"796.103 271.442 OFFCURVE",
"756.488 157.463 OFFCURVE",
"735 93 CURVE",
"693 -3 LINE",
"683 -3 LINE",
"647 93 OFFCURVE",
"616.167 180.667 OFFCURVE",
"587.5 262 CURVE SMOOTH",
"564.793 326.426 OFFCURVE",
"527.451 434.131 OFFCURVE",
"505 494 CURVE",
"487.581 443.92 OFFCURVE",
"454.63 351.708 OFFCURVE",
"435 295 CURVE SMOOTH",
"411 225.667 OFFCURVE",
"386.667 157.667 OFFCURVE",
"364 95 CURVE",
"320 -3 LINE",
"308 -3 LINE",
"275.492 81.94 OFFCURVE",
"224.027 218.635 OFFCURVE",
"196.5 291.5 CURVE SMOOTH",
"162.5 381.5 OFFCURVE",
"131 465 OFFCURVE",
"99 549 CURVE SMOOTH",
"86.919 581.791 OFFCURVE",
"66.43 633.139 OFFCURVE",
"56 654 CURVE SMOOTH",
"44.471 677.058 OFFCURVE",
"22.003 706.727 OFFCURVE",
"-28 709 CURVE",
"-28 720 LINE",
"254 720 LINE",
"254 710 LINE",
"230.739 710 OFFCURVE",
"180 699.189 OFFCURVE",
"180 659 CURVE SMOOTH",
"180 625.096 OFFCURVE",
"236.763 487.271 OFFCURVE",
"255.5 437 CURVE SMOOTH",
"282.833 363.667 OFFCURVE",
"311 290.5 OFFCURVE",
"335 228.5 CURVE SMOOTH",
"347 197.5 OFFCURVE",
"356.667 172 OFFCURVE",
"364 152 CURVE",
"369.399 166.397 OFFCURVE",
"390.28 224.98 OFFCURVE",
"409 277.5 CURVE SMOOTH",
"433 344.833 OFFCURVE",
"463.667 432 OFFCURVE",
"493 524 CURVE",
"473 577.333 OFFCURVE",
"458.667 615.333 OFFCURVE",
"440 654 CURVE SMOOTH",
"425.764 682.472 OFFCURVE",
"399.292 706.613 OFFCURVE",
"342 709 CURVE",
"342 720 LINE",
"655 720 LINE",
"655 710 LINE",
"626.235 705.206 OFFCURVE",
"562 698.223 OFFCURVE",
"562 659 CURVE SMOOTH",
"562 625.763 OFFCURVE",
"619.456 480.978 OFFCURVE",
"639 427 CURVE SMOOTH",
"661.917 363.706 OFFCURVE",
"695.937 267.657 OFFCURVE",
"713.5 219.5 CURVE SMOOTH",
"723.833 191.167 OFFCURVE",
"731.333 170.667 OFFCURVE",
"736 158 CURVE",
"745.394 179.92 OFFCURVE",
"777.706 277.093 OFFCURVE",
"790.5 315 CURVE SMOOTH",
"805.305 358.868 OFFCURVE",
"829.783 434.258 OFFCURVE",
"844.5 479.5 CURVE SMOOTH",
"853.5 507.167 OFFCURVE",
"861.667 533 OFFCURVE",
"869 557 CURVE SMOOTH",
"878.333 587.667 OFFCURVE",
"883.667 610 OFFCURVE",
"885 624 CURVE SMOOTH",
"886.333 638 OFFCURVE",
"887 648.333 OFFCURVE",
"887 655 CURVE SMOOTH",
"887 691.573 OFFCURVE",
"835.563 707.12 OFFCURVE",
"801 710 CURVE",
"801 720 LINE",
"1021 720 LINE",
"1021 710 LINE"
);
}
);
userData = {
assembly = "SVTCA[0]	/* SetFreedomAndProjectionVectorToAxis */
PUSHW[ ]	/* 1 value pushed */
0 
RCVT[ ]	/* ReadCVT */
IF[ ]	/* If */
PUSHW[ ]	/* 1 value pushed */
1 
MDAP[1]	/* MoveDirectAbsPt */
ELSE[ ]	/* Else */
PUSHW[ ]	/* 2 values pushed */
1 14 
MIAP[0]	/* MoveIndirectAbsPt */
EIF[ ]	/* EndIf */
PUSHW[ ]	/* 1 value pushed */
0 
RCVT[ ]	/* ReadCVT */
IF[ ]	/* If */
PUSHW[ ]	/* 1 value pushed */
31 
MDAP[1]	/* MoveDirectAbsPt */
ELSE[ ]	/* Else */
PUSHW[ ]	/* 2 values pushed */
31 14 
MIAP[0]	/* MoveIndirectAbsPt */
EIF[ ]	/* EndIf */
PUSHW[ ]	/* 1 value pushed */
0 
RCVT[ ]	/* ReadCVT */
IF[ ]	/* If */
PUSHW[ ]	/* 1 value pushed */
59 
MDAP[1]	/* MoveDirectAbsPt */
ELSE[ ]	/* Else */
PUSHW[ ]	/* 2 values pushed */
59 14 
MIAP[0]	/* MoveIndirectAbsPt */
EIF[ ]	/* EndIf */
PUSHW[ ]	/* 1 value pushed */
0 
RCVT[ ]	/* ReadCVT */
IF[ ]	/* If */
PUSHW[ ]	/* 1 value pushed */
76 
MDAP[1]	/* MoveDirectAbsPt */
ELSE[ ]	/* Else */
PUSHW[ ]	/* 2 values pushed */
76 8 
MIAP[0]	/* MoveIndirectAbsPt */
EIF[ ]	/* EndIf */
PUSHW[ ]	/* 1 value pushed */
0 
RCVT[ ]	/* ReadCVT */
IF[ ]	/* If */
PUSHW[ ]	/* 1 value pushed */
88 
MDAP[1]	/* MoveDirectAbsPt */
ELSE[ ]	/* Else */
PUSHW[ ]	/* 2 values pushed */
88 8 
MIAP[0]	/* MoveIndirectAbsPt */
EIF[ ]	/* EndIf */
PUSHW[ ]	/* 3 values pushed */
18 76 1 
SRP1[ ]	/* SetRefPoint1 */
SRP2[ ]	/* SetRefPoint2 */
IP[ ]	/* InterpolatePts */
PUSHW[ ]	/* 3 values pushed */
46 76 1 
SRP1[ ]	/* SetRefPoint1 */
SRP2[ ]	/* SetRefPoint2 */
IP[ ]	/* InterpolatePts */
PUSHW[ ]	/* 3 values pushed */
83 76 1 
SRP1[ ]	/* SetRefPoint1 */
SRP2[ ]	/* SetRefPoint2 */
IP[ ]	/* InterpolatePts */
IUP[0]	/* InterpolateUntPts */
IUP[1]	/* InterpolateUntPts */";
};
width = 991;
}
);
note = W;
unicode = 0057;
},
{
glyphname = X;
lastChange = "2019-03-14 18:39:42 +0000";
layers = (
{
layerId = "6873DD1C-7BCD-4DE2-A211-237E2294755D";
paths = (
{
closed = 1;
nodes = (
"666 695.333 OFFCURVE",
"619.667 651.667 OFFCURVE",
"561 581 CURVE SMOOTH",
"540.458 556.833 OFFCURVE",
"424.454 415.745 OFFCURVE",
"408 396 CURVE",
"415.43 384.855 OFFCURVE",
"470.1 306.707 OFFCURVE",
"492 275.5 CURVE SMOOTH",
"515.752 241.654 OFFCURVE",
"572.188 163.705 OFFCURVE",
"586 142 CURVE",
"632.458 74.635 OFFCURVE",
"669.472 18.075 OFFCURVE",
"726 10 CURVE",
"726 0 LINE",
"402 0 LINE",
"402 10 LINE",
"442.351 15.764 OFFCURVE",
"494 21.698 OFFCURVE",
"494 59 CURVE SMOOTH",
"494 77.667 OFFCURVE",
"473.667 111.333 OFFCURVE",
"451 146 CURVE SMOOTH",
"420.333 194 OFFCURVE",
"381.667 249.333 OFFCURVE",
"331 320 CURVE",
"295.358 277.675 OFFCURVE",
"220.178 186.919 OFFCURVE",
"192 147 CURVE SMOOTH",
"173.333 120.333 OFFCURVE",
"156 93 OFFCURVE",
"156 69 CURVE SMOOTH",
"156 31.786 OFFCURVE",
"208.685 15.616 OFFCURVE",
"248 10 CURVE",
"248 0 LINE",
"-17 0 LINE",
"-17 10 LINE",
"36.333 24.667 OFFCURVE",
"94 69 OFFCURVE",
"154 137 CURVE SMOOTH",
"174.981 160.779 OFFCURVE",
"301.73 314.076 OFFCURVE",
"320 336 CURVE",
"305.344 355.541 OFFCURVE",
"180.573 533.212 OFFCURVE",
"148 578 CURVE SMOOTH",
"96.275 649.43 OFFCURVE",
"68.785 690.587 OFFCURVE",
"5 710 CURVE",
"5 720 LINE",
"331 720 LINE",
"331 710 LINE",
"292.812 707.062 OFFCURVE",
"236 696.316 OFFCURVE",
"236 661 CURVE SMOOTH",
"236 642.333 OFFCURVE",
"258 609.667 OFFCURVE",
"282 575 CURVE SMOOTH",
"298.667 551 OFFCURVE",
"315.667 526.5 OFFCURVE",
"333 501.5 CURVE SMOOTH",
"350.333 476.5 OFFCURVE",
"371.333 446.333 OFFCURVE",
"396 411 CURVE",
"418 436.333 OFFCURVE",
"440.5 464 OFFCURVE",
"463.5 494 CURVE SMOOTH",
"486.5 524 OFFCURVE",
"506.667 550 OFFCURVE",
"524 572 CURVE SMOOTH",
"540 593.333 OFFCURVE",
"564 630.667 OFFCURVE",
"564 652 CURVE SMOOTH",
"564 688.182 OFFCURVE",
"508.917 704.474 OFFCURVE",
"473 710 CURVE",
"473 720 LINE",
"734 720 LINE",
"734 710 LINE"
);
}
);
userData = {
assembly = "SVTCA[0]	/* SetFreedomAndProjectionVectorToAxis */
PUSHW[ ]	/* 1 value pushed */
0 
RCVT[ ]	/* ReadCVT */
IF[ ]	/* If */
PUSHW[ ]	/* 1 value pushed */
1 
MDAP[1]	/* MoveDirectAbsPt */
ELSE[ ]	/* Else */
PUSHW[ ]	/* 2 values pushed */
1 14 
MIAP[0]	/* MoveIndirectAbsPt */
EIF[ ]	/* EndIf */
PUSHW[ ]	/* 1 value pushed */
0 
RCVT[ ]	/* ReadCVT */
IF[ ]	/* If */
PUSHW[ ]	/* 1 value pushed */
26 
MDAP[1]	/* MoveDirectAbsPt */
ELSE[ ]	/* Else */
PUSHW[ ]	/* 2 values pushed */
26 14 
MIAP[0]	/* MoveIndirectAbsPt */
EIF[ ]	/* EndIf */
PUSHW[ ]	/* 1 value pushed */
0 
RCVT[ ]	/* ReadCVT */
IF[ ]	/* If */
PUSHW[ ]	/* 1 value pushed */
47 
MDAP[1]	/* MoveDirectAbsPt */
ELSE[ ]	/* Else */
PUSHW[ ]	/* 2 values pushed */
47 8 
MIAP[0]	/* MoveIndirectAbsPt */
EIF[ ]	/* EndIf */
PUSHW[ ]	/* 1 value pushed */
0 
RCVT[ ]	/* ReadCVT */
IF[ ]	/* If */
PUSHW[ ]	/* 1 value pushed */
74 
MDAP[1]	/* MoveDirectAbsPt */
ELSE[ ]	/* Else */
PUSHW[ ]	/* 2 values pushed */
74 8 
MIAP[0]	/* MoveIndirectAbsPt */
EIF[ ]	/* EndIf */
IUP[0]	/* InterpolateUntPts */
IUP[1]	/* InterpolateUntPts */";
};
width = 708;
}
);
note = X;
unicode = 0058;
},
